<?xml version="1.0" encoding="UTF-8" standalone="no"?>
<svg
   version="1.1"
   width="730.40216"
   height="498.57965"
   id="svg316022"
   sodipodi:docname="5.fish_decline.svg"
   inkscape:version="1.1 (c4e8f9e, 2021-05-24)"
   xmlns:inkscape="http://www.inkscape.org/namespaces/inkscape"
   xmlns:sodipodi="http://sodipodi.sourceforge.net/DTD/sodipodi-0.dtd"
   xmlns="http://www.w3.org/2000/svg"
   xmlns:svg="http://www.w3.org/2000/svg"
   xmlns:rdf="http://www.w3.org/1999/02/22-rdf-syntax-ns#"
   xmlns:cc="http://creativecommons.org/ns#"
   xmlns:dc="http://purl.org/dc/elements/1.1/">
  <sodipodi:namedview
     id="namedview885"
     pagecolor="#ffffff"
     bordercolor="#666666"
     borderopacity="1.0"
     inkscape:pageshadow="2"
     inkscape:pageopacity="0.0"
     inkscape:pagecheckerboard="0"
     showgrid="false"
     fit-margin-top="10"
     fit-margin-left="10"
     fit-margin-right="10"
     fit-margin-bottom="10"
     inkscape:zoom="0.50066816"
     inkscape:cx="369.50622"
     inkscape:cy="250.66503"
     inkscape:window-width="1366"
     inkscape:window-height="742"
     inkscape:window-x="0"
     inkscape:window-y="26"
     inkscape:window-maximized="0"
     inkscape:current-layer="g219" />
  <g
     id="g318232"
     transform="translate(-17.70442,-25.945497)" />
  <metadata
     id="metadata316028">
    <rdf:RDF>
      <cc:Work
         rdf:about="">
        <dc:format>image/svg+xml</dc:format>
        <dc:type
           rdf:resource="http://purl.org/dc/dcmitype/StillImage" />
      </cc:Work>
    </rdf:RDF>
  </metadata>
  <defs
     id="defs316026">
    <clipPath
       id="clip-0-3-4">
      <rect
         id="rect315643-3"
         height="493.89999"
         y="4.4000001"
         x="0"
         width="720.90906" />
    </clipPath>
    <clipPath
       id="clip-0-5-9">
      <rect
         id="rect315657-0"
         height="493.89999"
         y="4.4000001"
         x="0"
         width="720.90906" />
    </clipPath>
    <clipPath
       id="clip-0-2-5">
      <rect
         id="rect315636-6"
         height="493.89999"
         y="4.4000001"
         x="0"
         width="720.90906" />
    </clipPath>
    <clipPath
       id="clip-0-0-3">
      <rect
         id="rect315622-6"
         height="493.89999"
         y="4.4000001"
         x="0"
         width="720.90906" />
    </clipPath>
  </defs>
  <g
     style="display:inline;opacity:1"
     id="g219"
     transform="translate(17.775283,11.155411)">
    <path
       id="line315489"
       style="font-family:'Source Sans Pro';display:inline;fill:#000000;stroke:#4d4f4a;stroke-width:1.5;stroke-linecap:square;stroke-opacity:1"
       transform="translate(-1.026875,-37.100909)"
       d="M 39.668976,495.5 H 702.90375" />
    <text
       text-anchor="end"
       style="font-weight:normal;font-size:12.6px;font-family:'Source Sans Pro';display:inline;fill:#4d4f4a;fill-opacity:1"
       id="text315497"
       x="702.66986"
       y="477.21506"><tspan
         x="702.66986"
         dy="0"
         id="tspan315495"
         style="fill:#4d4f4a;fill-opacity:1"
         rotate="0 0">2016</tspan></text>
    <text
       transform="translate(-1.026875,-37.100909)"
       text-anchor="end"
       style="font-weight:normal;font-size:12.6px;font-family:'Source Sans Pro';display:inline;fill:#4d4f4a;fill-opacity:1"
       id="text315505"
       x="628.9364"
       y="514.31598"><tspan
         x="628.9364"
         dy="0"
         id="tspan315503"
         style="fill:#4d4f4a;fill-opacity:1">2010</tspan></text>
    <text
       transform="translate(-1.026875,-37.100909)"
       text-anchor="end"
       style="font-weight:normal;font-size:12.6px;font-family:'Source Sans Pro';display:inline;fill:#4d4f4a;fill-opacity:1"
       id="text315513"
       x="484.73093"
       y="514.31598"><tspan
         x="484.73093"
         dy="0"
         id="tspan315511"
         style="fill:#4d4f4a;fill-opacity:1">2000</tspan></text>
    <text
       transform="translate(-1.026875,-37.100909)"
       text-anchor="end"
       style="font-weight:normal;font-size:12.6px;font-family:'Source Sans Pro';display:inline;fill:#4d4f4a;fill-opacity:1"
       id="text315521"
       x="340.56488"
       y="514.31598"><tspan
         x="340.56488"
         dy="0"
         id="tspan315519"
         style="fill:#4d4f4a;fill-opacity:1">1990</tspan></text>
    <text
       transform="translate(-1.026875,-37.100909)"
       text-anchor="end"
       style="font-weight:normal;font-size:12.6px;font-family:'Source Sans Pro';display:inline;fill:#4d4f4a;fill-opacity:1"
       id="text315529"
       x="196.35939"
       y="514.31598"><tspan
         x="196.35939"
         dy="0"
         id="tspan315527"
         style="fill:#4d4f4a;fill-opacity:1">1980</tspan></text>
    <text
       transform="translate(-1.026875,-37.100909)"
       text-anchor="end"
       style="font-weight:normal;font-size:12.6px;font-family:'Source Sans Pro';display:inline;fill:#4d4f4a;fill-opacity:1"
       id="text315537"
       x="52.193359"
       y="514.31598"><tspan
         x="52.193359"
         dy="0"
         id="tspan315535"
         style="fill:#4d4f4a;fill-opacity:1">1970</tspan></text>
    <text
       transform="translate(-1.026875,-37.100909)"
       text-anchor="end"
       style="font-weight:normal;font-size:12.6px;font-family:'Source Sans Pro';display:inline;fill:#4d4f4a;fill-opacity:1"
       id="text315565"
       x="29.168976"
       y="499.65799"><tspan
         x="29.168976"
         dy="0"
         id="tspan315563"
         style="fill:#4d4f4a;fill-opacity:1">0%</tspan></text>
    <text
       transform="translate(-1.026875,-37.100909)"
       text-anchor="end"
       style="font-weight:normal;font-size:12.6px;font-family:'Source Sans Pro';display:inline;fill:#4d4f4a;fill-opacity:1"
       id="text315573"
       x="29.168976"
       y="55.748909"><tspan
         x="29.168976"
         dy="0"
         id="tspan315571"
         style="fill:#4d4f4a;fill-opacity:1">100%</tspan></text>
    <text
       transform="translate(-1.026875,-37.100909)"
       text-anchor="end"
       style="font-weight:normal;font-size:12.6px;font-family:'Source Sans Pro';display:inline;fill:#4d4f4a;fill-opacity:1"
       id="text315581"
       x="29.168976"
       y="277.70346"><tspan
         x="29.168976"
         dy="0"
         id="tspan315579"
         style="fill:#4d4f4a;fill-opacity:1">50%</tspan></text>
    <path
       id="line315962"
       style="font-family:'Source Sans Pro';display:inline;fill:#000000;stroke:#4d4f4a;stroke-width:2;stroke-dasharray:2, 2;stroke-opacity:1"
       transform="translate(-1.026875,-37.100909)"
       d="M 39.668976,51.590908 H 702.90375" />
    <text
       text-anchor="end"
       font-size="12.6px"
       id="text315968"
       x="702.42413"
       y="8.1899996"
       style="font-family:'Source Sans Pro';display:inline;fill:#4d4f4a;fill-opacity:1"><tspan
         class="bg-label"
         y="8.1899996"
         x="702.42413"
         font-weight="regular"
         display="block"
         fill="none"
         stroke-width="2"
         id="tspan315964"
         style="fill:#4d4f4a;fill-opacity:1">1970</tspan><tspan
         class="fg-label"
         y="8.1899996"
         x="702.42413"
         font-weight="regular"
         fill="currentColor"
         id="tspan315966"
         style="fill:#4d4f4a;fill-opacity:1">1970</tspan></text>
    <circle
       style="display:inline;opacity:1;fill:#968263;fill-opacity:0.939516;stroke:none;stroke-width:0.130259;stroke-linecap:round;stroke-miterlimit:4;stroke-dasharray:none;stroke-dashoffset:0;stroke-opacity:0.25098;stop-color:#000000"
       id="path318264"
       cx="41.407429"
       cy="14.543468"
       r="4.9348702" />
    <circle
       r="4.9348702"
       cy="14.489999"
       cx="43.642101"
       id="circle318266"
       style="display:inline;opacity:1;fill:#7288b8;fill-opacity:1;stroke:none;stroke-width:0.130259;stroke-linecap:round;stroke-miterlimit:4;stroke-dasharray:none;stroke-dashoffset:0;stroke-opacity:0.25098;stop-color:#000000" />
    <path
       id="path315619"
       fill="rgb(170, 170, 170)"
       clip-path="url(#clip-0-2-5)"
       pointer-events="none"
       opacity="0.3"
       transform="translate(38.642101,-37.100909)"
       d="m 0,51.590909 c 4.8029025,-3.121246 9.6058049,-6.242492 14.408707,-8.495132 4.802903,-2.252639 9.605805,-5.020706 14.408708,-5.020706 4.816061,0 9.632122,2.661671 14.448183,6.793811 4.802902,4.12085 9.605805,12.531686 14.408707,17.934585 4.802903,5.4029 9.605805,9.146696 14.408708,14.482813 4.802902,5.336116 9.605805,12.468713 14.408707,17.533888 4.816061,5.079052 9.632122,9.885762 14.44818,12.885962 4.80291,2.992 9.60581,2.76147 14.40871,5.11185 4.8029,2.35038 9.60581,5.27793 14.40871,8.99043 4.8029,3.71251 9.6058,13.2846 14.40871,13.2846 4.81606,0 9.63212,-6.53037 14.44818,-6.53037 4.8029,0 9.6058,10.02633 14.40871,15.34018 4.8029,5.31385 9.6058,10.90976 14.4087,16.54291 4.80291,5.63315 9.60581,15.65479 14.40871,17.256 4.81606,1.60559 9.63212,0.80279 14.44818,2.40838 4.80291,1.60121 9.60581,6.31047 14.40871,12.13794 4.8029,5.82746 9.60581,15.82543 14.40871,22.82686 4.8029,7.00143 9.6058,15.48034 14.40871,19.18172 4.81606,3.71152 9.63212,5.56728 14.44818,5.56728 4.8029,0 9.6058,-9.35159 14.40871,-9.35159 4.8029,0 9.6058,16.51097 14.4087,20.28644 4.80291,3.77547 9.60581,5.03807 14.40871,5.66321 4.81606,0.62685 9.63212,0.31343 14.44818,0.94028 4.80291,0.62514 9.60581,14.38652 14.40871,17.69544 4.8029,3.30892 9.60581,1.83784 14.40871,4.96338 4.8029,3.12553 9.6058,9.38214 14.40871,13.78985 4.81606,4.41978 9.63212,8.05439 14.44818,12.68952 4.8029,4.62247 9.60581,11.1821 14.40871,15.07663 4.8029,3.89453 9.6058,5.9325 14.4087,8.29054 4.80291,2.35804 9.60581,3.25067 14.40871,5.85769 4.81606,2.61417 9.63212,6.34918 14.44819,9.81665 4.8029,3.45799 9.6058,8.90617 14.4087,10.95656 4.80291,2.05039 9.60581,3.07559 14.40871,3.07559 4.8029,0 9.60581,-2.51092 14.40871,-2.51092 4.81606,0 9.63212,9.1423 14.44818,11.77361 4.8029,2.62413 9.60581,2.50907 14.40871,4.0139 4.8029,1.50483 9.6058,4.58854 14.40871,5.01508 4.8029,0.42654 9.6058,0.63982 14.4087,0.63982 4.81606,0 9.63213,-0.60392 14.44819,-0.60392 4.8029,0 9.6058,0.66582 14.4087,1.99747 4.80291,1.33165 9.60581,7.10795 14.40871,9.87941 4.8029,2.77145 9.60581,5.22382 14.40871,6.74932 4.81606,1.52967 9.63212,2.40426 14.44818,2.40426 4.8029,0 9.60581,-1.58622 14.40871,-2.34151 4.8029,-0.75529 9.6058,-2.19025 14.40871,-2.19025 4.8029,0 9.6058,0.55656 14.4087,1.11312 v 53.2114 c -4.8029,-0.18468 -9.6058,-0.36935 -14.4087,-0.36935 -4.80291,0 -9.60581,0.66326 -14.40871,0.95207 -4.8029,0.28881 -9.60581,0.78081 -14.40871,0.78081 -4.81606,0 -9.63212,-0.53371 -14.44818,-1.60113 -4.8029,-1.06451 -9.60581,-3.09488 -14.40871,-5.09145 -4.8029,-1.99658 -9.6058,-5.58076 -14.40871,-6.88802 -4.8029,-1.30726 -9.6058,-1.79273 -14.4087,-1.96089 -4.81606,-0.16861 -9.63213,-0.0972 -14.44819,-0.25292 -4.8029,-0.15524 -9.6058,-0.22622 -14.4087,-0.67865 -4.80291,-0.45243 -9.60581,-2.58381 -14.40871,-3.64511 -4.8029,-1.06131 -9.60581,-0.90757 -14.40871,-2.72272 -4.81606,-1.82011 -9.63212,-8.8516 -14.44818,-8.8516 -4.8029,0 -9.60581,0.38384 -14.40871,0.38384 -4.8029,0 -9.6058,-0.6997 -14.40871,-2.09909 -4.8029,-1.39939 -9.6058,-7.10063 -14.4087,-9.76557 -4.81607,-2.67223 -9.63213,-4.37268 -14.44819,-6.23624 -4.8029,-1.85846 -9.6058,-3.17833 -14.40871,-4.93335 -4.8029,-1.75502 -9.6058,-2.91237 -14.4087,-5.59676 -4.8029,-2.6844 -9.60581,-7.25918 -14.40871,-10.50962 -4.81606,-3.25935 -9.63212,-5.93563 -14.44818,-9.01561 -4.80291,-3.07157 -9.60581,-6.96018 -14.40871,-9.43779 -4.8029,-2.47762 -9.60581,-2.27325 -14.40871,-5.42792 -4.8029,-3.15466 -9.6058,-11.46607 -14.40871,-13.50007 -4.81606,-2.03957 -9.63212,-1.27901 -14.44818,-3.05936 -4.8029,-1.77548 -9.6058,-3.51989 -14.40871,-7.59569 -4.8029,-4.0758 -9.6058,-16.85908 -14.4087,-16.85908 -4.80291,0 -9.60581,2.98118 -14.40871,2.98118 -4.81606,0 -9.63212,-2.44473 -14.44818,-6.50153 -4.80291,-4.04571 -9.60581,-11.46781 -14.40871,-17.77507 -4.8029,-6.30726 -9.60581,-14.3248 -14.40871,-20.06851 -4.8029,-5.7437 -9.6058,-10.13057 -14.40871,-14.3937 -4.81606,-4.27481 -9.63212,-4.93831 -14.44818,-11.21132 -4.8029,-6.25587 -9.6058,-19.28707 -14.40871,-26.33381 -4.8029,-7.04673 -9.6058,-10.55937 -14.4087,-15.9466 -4.80291,-5.38722 -9.60581,-12.30733 -14.40871,-16.37673 -4.81606,-4.08055 -9.63212,-4.36306 -14.44818,-8.05025 -4.80291,-3.67712 -9.60581,-10.03684 -14.40871,-14.02625 -4.8029,-3.98941 -9.60581,-7.23194 -14.40871,-9.9102 -4.8029,-2.67827 -9.6058,-2.84675 -14.40871,-6.15939 C 96.123842,147.64972 91.307781,142.466 86.49172,137.20701 81.688818,131.96239 76.885915,124.89096 72.083013,119.4716 67.28011,114.05223 62.477208,110.2172 57.674305,104.69083 52.871403,99.164467 48.0685,90.883188 43.265598,86.313392 38.449537,81.731075 33.633476,77.260111 28.817415,77.260111 c -4.802903,0 -9.605805,0.283197 -14.408708,0.283197 C 9.6058049,77.543308 4.8029025,64.567108 0,51.590909"
       class="shading"
       style="font-family:'Source Sans Pro';display:inline;opacity:1;fill:#7288b8;fill-opacity:0.25;stroke:#7288b8;stroke-width:0.5;stroke-miterlimit:4;stroke-dasharray:none;stroke-opacity:1" />
    <path
       class="line"
       opacity="1"
       pointer-events="none"
       fill="none"
       stroke="#7288b8"
       stroke-width="2.8"
       transform="translate(38.642101,-37.100909)"
       clip-path="url(#clip-0-0-3)"
       clip-path-id="0-0"
       d="m 0,51.590909 c 4.8029025,4.753415 9.6058049,9.50683 14.408707,9.50683 4.802903,0 9.605805,-2.47515 14.408708,-2.47515 4.816061,0 9.632122,3.556582 14.448183,7.895859 4.802902,4.327421 9.605805,12.602051 14.408707,18.076283 4.802903,5.474232 9.605805,9.397411 14.408708,14.769109 4.802902,5.3717 9.605805,12.36171 14.408707,17.46108 4.816061,5.11334 9.632122,9.9696 14.44818,13.16516 4.80291,3.18684 9.60581,3.44414 14.40871,6.00156 4.8029,2.55742 9.60581,5.53037 14.40871,9.34298 4.8029,3.81261 9.6058,11.73525 14.40871,13.53267 4.81606,1.80235 9.63212,0.90117 14.44818,2.70352 4.8029,1.79742 9.6058,10.58237 14.40871,15.91863 4.8029,5.33626 9.6058,9.86851 14.4087,16.09893 4.80291,6.23042 9.60581,16.54788 14.40871,21.2836 4.81606,4.7487 9.63212,3.58955 14.44818,7.13083 4.80291,3.53161 9.60581,8.25079 14.40871,14.06876 4.8029,5.81798 9.60581,14.24062 14.40871,20.83912 4.8029,6.5985 9.6058,14.74453 14.40871,18.75187 4.81606,4.01832 9.63212,6.02748 14.44818,6.02748 4.8029,0 9.6058,-5.3686 14.40871,-5.3686 4.8029,0 9.6058,14.24645 14.4087,18.48554 4.80291,4.23909 9.60581,5.48218 14.40871,6.94899 4.81606,1.47083 9.63212,0.73542 14.44818,2.20625 4.80291,1.46681 9.60581,12.712 14.40871,16.16493 4.8029,3.45294 9.60581,2.41121 14.40871,5.1794 4.8029,2.76819 9.6058,7.70105 14.40871,11.42973 4.81606,3.73889 9.63212,7.05704 14.44818,10.97163 4.8029,3.90388 9.60581,9.27438 14.40871,12.47957 4.8029,3.20519 9.6058,4.7048 14.4087,6.75159 4.80291,2.04678 9.60581,3.29898 14.40871,5.52912 4.81606,2.23625 9.63212,4.82639 14.44819,7.87642 4.8029,3.0417 9.6058,8.88614 14.4087,10.3918 4.80291,1.50566 9.60581,2.25849 14.40871,2.25849 4.8029,0 9.60581,-1.12867 14.40871,-1.12867 4.81606,0 9.63212,8.35745 14.44818,10.54888 4.8029,2.18544 9.60581,1.99484 14.40871,3.27816 4.8029,1.28331 9.6058,4.03295 14.40871,4.42172 4.8029,0.38877 9.6058,0.57591 14.4087,0.58316 4.81606,0.007 9.63213,0.004 14.44819,0.0109 4.8029,0.007 9.6058,0.65172 14.4087,1.95517 4.80291,1.30345 9.60581,5.92554 14.40871,8.27976 4.8029,2.35422 9.60581,4.48607 14.40871,5.84556 4.81606,1.36322 9.63212,2.31288 14.44818,2.31288 4.8029,0 9.60581,-1.15444 14.40871,-1.66684 4.8029,-0.5124 9.6058,-1.40757 14.40871,-1.40757 4.8029,0 9.6058,0.31735 14.4087,0.63471"
       id="path315625"
       style="font-family:'Source Sans Pro';display:inline" />
    <text
       text-anchor="end"
       font-size="12.6px"
       id="text318299"
       x="702.42413"
       y="432.19"
       style="font-family:'Source Sans Pro';display:inline;fill:#7288b8;fill-opacity:1"><tspan
         id="tspan318297"
         style="font-style:normal;font-variant:normal;font-weight:900;font-stretch:normal;font-family:'Source Sans Pro';-inkscape-font-specification:'Source Sans Pro Heavy';fill:#7288b8;fill-opacity:1">15.51%</tspan></text>
    <circle
       style="display:inline;opacity:1;fill:#7288b8;fill-opacity:1;stroke:none;stroke-width:0.130259;stroke-linecap:round;stroke-miterlimit:4;stroke-dasharray:none;stroke-dashoffset:0;stroke-opacity:0.25098;stop-color:#000000"
       id="circle318294"
       cx="697.0343"
       cy="388.48999"
       r="4.9348702" />
  </g>
</svg>
