<?xml version="1.0" encoding="UTF-8"?>
<svg id="svg5" width="104.44mm" height="84.706mm" version="1.1" viewBox="0 0 394.72 320.15" xmlns="http://www.w3.org/2000/svg" xmlns:cc="http://creativecommons.org/ns#" xmlns:dc="http://purl.org/dc/elements/1.1/" xmlns:rdf="http://www.w3.org/1999/02/22-rdf-syntax-ns#">
 <metadata id="metadata3103">
  <rdf:RDF>
   <cc:Work rdf:about="">
    <dc:format>image/svg+xml</dc:format>
    <dc:type rdf:resource="http://purl.org/dc/dcmitype/StillImage"/>
   </cc:Work>
  </rdf:RDF>
 </metadata>
 <g id="temp2" transform="translate(-175.21 -390.31)">
  <g id="g6415" transform="translate(-690.58 -85.081)">
   <path id="path6387" d="m1260.5 527.58v101.8l-150.06 85.859-139.09 80.305v-21.076l38.671-19.205 29.388-11.121 21.156-18.744 21.353-15.019 28.524-19.387-0.025-24.165 21.147-5.843 21.973-12.827 14.002-31.715 20.581-10.065 50.683-68.834z" fill="#968263"/>
   <path id="path6389" d="m971.36 795.54-105.34-60.621v-21.076l105.34 60.621z" fill="#6f6149" fill-opacity=".92549"/>
   <g id="g6413" transform="translate(4e-4)">
    <g>
     <path id="path6391" d="m1131.6 660.98 21.973-12.827 14.002-31.715 20.581-10.065 30.643-41.066 20.039-27.768 21.698-9.9592-93.707-52.189-23.821 17.16-12.365 14.398-29.505 43.242-32.852 8.7778-23.448 31.353-39.697 15.797 105.34 60.621z" fill="#75938d"/>
     <path id="path6393" d="m1005.1 606.12 39.697-15.797 108.74 57.831-21.973 12.827-21.121 5.7598z" fill="#586e69"/>
     <path id="path6395" d="m1044.8 590.32 23.448-31.353 99.289 57.469-14.002 31.715z" fill="#617c75"/>
     <path id="path6397" d="m1068.3 558.97 99.289 57.469 20.581-10.065-87.018-56.182z" fill="#6b8981"/>
     <path id="path6399" d="m1166.8 475.39-23.821 17.16 95.83 44.988 21.698-9.9592z" fill="#91a9a4"/>
    </g>
    <path id="path6401" d="m1110.5 690.99-105.31-60.704-0.025-24.165 105.31 60.704 0.025 24.165" fill="#6f6148" fill-opacity=".92549"/>
    <g>
     <path id="path6403" d="m1005.1 630.28 105.31 60.704-49.876 34.406-21.156 18.744-29.388 11.121-38.671 19.205-105.34-60.621 57.455-24.24 33.85-24.327z" fill="#c1b5a2"/>
     <path id="path6405" d="m1110.5 666.74-139.35 80.451 0.25332 27.273 38.671-19.205 29.388-11.121 21.156-18.744 49.876-34.406v-24.248" fill="#7593ce" opacity=".6784"/>
     <path id="path6407" d="m866.03 713.84 105.34 60.621-0.25332-27.273-105.29-60.788z" fill="#3f66b1" opacity=".6784"/>
     <path id="path6409" d="m1005.1 606.12-139.32 80.368 105.31 60.704 139.32-80.368z" fill="#6385c7" opacity=".84934"/>
    </g>
    <path id="path6411" d="m1198.1 491.92c-16.206 30.339-11.02 41.356-21.517 50.428-13.638 11.788-29.644-12.017-45.511 5.6889-13.038 14.549 16.681 41.551 0.5629 52.162-14.94 9.8352-33.694-9.0872-46.488 1.199-17.984 14.458 5.0057 15.309-37.195 46.713" fill-opacity="0" stroke="#6480b5" stroke-width="34.261"/>
   </g>
  </g>
  <g id="g6423" transform="matrix(.63492 0 0 .63492 2.1826 246.67)" fill="#cde9f1" fill-opacity=".75879" opacity=".82769">
   <path id="path6417" d="m605.26 290.21a32.058 26.923 0 0 0-27.135 12.621 32.058 26.923 0 0 0-13.996-2.709 32.058 26.923 0 0 0-32.057 26.922 32.058 26.923 0 0 0 32.057 26.924 32.058 26.923 0 0 0 12.332-2.125 32.058 26.923 0 0 0 30.822 19.582 32.058 26.923 0 0 0 23.266-8.4824 17.232 14.471 0 0 0 7.6641 1.5391 17.232 14.471 0 0 0 16.838-11.576 32.058 26.923 0 0 0 16.006-23.234 32.058 26.923 0 0 0-32.059-26.924 32.058 26.923 0 0 0-6.2285 0.57812 32.058 26.923 0 0 0-27.51-13.115z"/>
   <ellipse id="ellipse6419" cx="692.2" cy="352.38" rx="17.232" ry="14.471"/>
   <ellipse id="ellipse6421" cx="525.38" cy="297.93" rx="11.082" ry="9.3069"/>
  </g>
  <g id="g6431" transform="matrix(.54095 0 0 .27951 87.714 433.28)" fill="#040c0e" fill-opacity=".75879">
   <path id="path6425" d="m601.36 282.22c-11.028 7e-3 -17.373 12.767-23.231 20.613-4.3614-1.7804-9.1468-2.7066-13.996-2.709-17.704 5.9e-4 -32.056 12.054-32.057 26.922-6.8e-4 14.869 14.352 26.923 32.057 26.924 4.2375-0.0169 8.429-0.73913 12.332-2.125 3.9075 11.579 14.947 19.108 29.278 19.115 11.985-11.087 4.6168-22.822 14.123-34.999 9.5059-12.177 25.777 2.8468 28.795 0.15016 2.3788 1.0033 6.5466 1.9966 9.2086 2.0056 8.1708-0.0181 15.925-24.565 19.369-28.143 6.1545-6.8303 15.976-13.649 16.006-23.234 6.8e-4 -14.87-19.653-26.34-37.358-26.34-2.0937 0.0214-6.2285 0.57812-6.2285 0.57812-9.4971 2.3299-37.018 21.245-48.297 21.241z" opacity=".2272"/>
   <ellipse id="ellipse6427" cx="692.2" cy="352.38" rx="17.232" ry="14.471" opacity=".2272"/>
   <ellipse id="ellipse6429" cx="525.38" cy="297.93" rx="11.082" ry="9.3069" opacity=".2272"/>
  </g>
  <path id="path6753" d="m371.7 528.14c-19.311-4.8044-35.235-4.2229-43.17 7.6006" fill="none" stroke="#6480b5" stroke-width="10.072"/>
  <path id="path6753-0" d="m394.21 547.71c5.1736 3.5264 25.903 12.918 0.0707 26.338" fill="none" stroke="#6480b5" stroke-width="8.1827"/>
 </g>
 <g id="temp1" transform="translate(-175.21 -390.31)">
  <g id="g6367" transform="translate(-690.58 -85.081)">
   <path id="path6339" d="m1260.5 527.58v101.8l-150.06 85.859-139.09 80.305v-21.076l38.671-19.205 29.388-11.121 21.156-18.744 21.353-15.019 28.524-19.387-0.025-24.165 21.147-5.843 21.973-12.827 14.002-31.715 20.581-10.065 50.683-68.834z" fill="#968263"/>
   <path id="path6341" d="m971.36 795.54-105.34-60.621v-21.076l105.34 60.621z" fill="#6f6149" fill-opacity=".92549"/>
   <g id="g6365" transform="translate(4e-4)">
    <g>
     <path id="path6343" d="m1131.6 660.98 21.973-12.827 14.002-31.715 20.581-10.065 30.643-41.066 20.039-27.768 21.698-9.9592-93.707-52.189-23.821 17.16-12.365 14.398-29.505 43.242-32.852 8.7778-23.448 31.353-39.697 15.797 105.34 60.621z" fill="#75938d"/>
     <path id="path6345" d="m1005.1 606.12 39.697-15.797 108.74 57.831-21.973 12.827-21.121 5.7598z" fill="#586e69"/>
     <path id="path6347" d="m1044.8 590.32 23.448-31.353 99.289 57.469-14.002 31.715z" fill="#617c75"/>
     <path id="path6349" d="m1068.3 558.97 99.289 57.469 20.581-10.065-87.018-56.182z" fill="#6b8981"/>
     <path id="path6351" d="m1166.8 475.39-23.821 17.16 95.83 44.988 21.698-9.9592z" fill="#91a9a4"/>
    </g>
    <path id="path6353" d="m1110.5 690.99-105.31-60.704-0.025-24.165 105.31 60.704 0.025 24.165" fill="#6f6148" fill-opacity=".92549"/>
    <g>
     <path id="path6355" d="m1005.1 630.28 105.31 60.704-49.876 34.406-21.156 18.744-29.388 11.121-38.671 19.205-105.34-60.621 57.455-24.24 33.85-24.327z" fill="#c1b5a2"/>
     <path id="path6357" d="m1110.5 666.74-139.35 80.451 0.25332 27.273 38.671-19.205 29.388-11.121 21.156-18.744 49.876-34.406v-24.248" fill="#7593ce" opacity=".6784"/>
     <path id="path6359" d="m866.03 713.84 105.34 60.621-0.25332-27.273-105.29-60.788z" fill="#3f66b1" opacity=".6784"/>
     <path id="path6361" d="m1005.1 606.12-139.32 80.368 105.31 60.704 139.32-80.368z" fill="#6385c7" opacity=".84934"/>
    </g>
    <path id="path6363" d="m1198.1 491.92c-16.206 30.339-11.02 41.356-21.517 50.428-13.638 11.788-29.644-12.017-45.511 5.6889-13.038 14.549 16.681 41.551 0.5629 52.162-14.94 9.8352-33.694-9.0872-46.488 1.199-17.984 14.458 15.326 22.739-37.195 46.713" fill-opacity="0" stroke="#6480b5" stroke-width="23.301"/>
   </g>
  </g>
  <g id="g6375" transform="matrix(.63492 0 0 .63492 2.1826 246.67)" fill="#cde9f1" fill-opacity=".75879" opacity=".82769">
   <path id="path6369" d="m605.26 290.21a32.058 26.923 0 0 0-27.135 12.621 32.058 26.923 0 0 0-13.996-2.709 32.058 26.923 0 0 0-32.057 26.922 32.058 26.923 0 0 0 32.057 26.924 32.058 26.923 0 0 0 12.332-2.125 32.058 26.923 0 0 0 30.822 19.582 32.058 26.923 0 0 0 23.266-8.4824 17.232 14.471 0 0 0 7.6641 1.5391 17.232 14.471 0 0 0 16.838-11.576 32.058 26.923 0 0 0 16.006-23.234 32.058 26.923 0 0 0-32.059-26.924 32.058 26.923 0 0 0-6.2285 0.57812 32.058 26.923 0 0 0-27.51-13.115z"/>
   <ellipse id="ellipse6371" cx="692.2" cy="352.38" rx="17.232" ry="14.471"/>
   <ellipse id="ellipse6373" cx="525.38" cy="297.93" rx="11.082" ry="9.3069"/>
  </g>
  <g id="g6383" transform="matrix(.54095 0 0 .27951 87.714 433.28)" fill="#040c0e" fill-opacity=".75879">
   <path id="path6377" d="m601.36 282.22c-11.028 7e-3 -17.373 12.767-23.231 20.613-4.3614-1.7804-9.1468-2.7066-13.996-2.709-17.704 5.9e-4 -32.056 12.054-32.057 26.922-6.8e-4 14.869 14.352 26.923 32.057 26.924 4.2375-0.0169 8.429-0.73913 12.332-2.125 3.9075 11.579 14.947 19.108 29.278 19.115 11.985-11.087 4.6168-22.822 14.123-34.999 9.5059-12.177 25.777 2.8468 28.795 0.15016 2.3788 1.0033 6.5466 1.9966 9.2086 2.0056 8.1708-0.0181 15.925-24.565 19.369-28.143 6.1545-6.8303 15.976-13.649 16.006-23.234 6.8e-4 -14.87-19.653-26.34-37.358-26.34-2.0937 0.0214-6.2285 0.57812-6.2285 0.57812-9.4971 2.3299-37.018 21.245-48.297 21.241z" opacity=".2272"/>
   <ellipse id="ellipse6379" cx="692.2" cy="352.38" rx="17.232" ry="14.471" opacity=".2272"/>
   <ellipse id="ellipse6381" cx="525.38" cy="297.93" rx="11.082" ry="9.3069" opacity=".2272"/>
  </g>
 </g>
 <g id="vert2" transform="translate(-175.21 -390.31)">
  <g id="g5084" transform="translate(-690.58 -85.081)">
   <path id="path5056" d="m1260.5 527.58v101.8l-150.06 85.859-139.09 80.305v-21.076l38.671-19.205 29.388-11.121 21.156-18.744 21.353-15.019 28.524-19.387-0.025-24.165 21.147-5.843 21.973-12.827 14.002-31.715 20.581-10.065 50.683-68.834z" fill="#968263"/>
   <path id="path5058" d="m971.36 795.54-105.34-60.621v-21.076l105.34 60.621z" fill="#6f6149" fill-opacity=".92549"/>
   <g id="g5082" transform="translate(4e-4)">
    <g>
     <path id="path5060" d="m1131.6 660.98 21.973-12.827 14.002-31.715 20.581-10.065 30.643-41.066 20.039-27.768 21.698-9.9592-93.707-52.189-23.821 17.16-12.365 14.398-29.505 43.242-32.852 8.7778-23.448 31.353-39.697 15.797 105.34 60.621z" fill="#75938d"/>
     <path id="path5062" d="m1005.1 606.12 39.697-15.797 108.74 57.831-21.973 12.827-21.121 5.7598z" fill="#586e69"/>
     <path id="path5064" d="m1044.8 590.32 23.448-31.353 99.289 57.469-14.002 31.715z" fill="#617c75"/>
     <path id="path5066" d="m1068.3 558.97 99.289 57.469 20.581-10.065-87.018-56.182z" fill="#6b8981"/>
     <path id="path5068" d="m1166.8 475.39-23.821 17.16 95.83 44.988 21.698-9.9592z" fill="#91a9a4"/>
    </g>
    <path id="path5070" d="m1110.5 690.99-105.31-60.704-0.025-24.165 105.31 60.704 0.025 24.165" fill="#6f6148" fill-opacity=".92549"/>
    <g>
     <path id="path5072" d="m1005.1 630.28 105.31 60.704-49.876 34.406-21.156 18.744-29.388 11.121-38.671 19.205-105.34-60.621 57.455-24.24 33.85-24.327z" fill="#c1b5a2"/>
     <path id="path5074" d="m1110.5 666.74-139.35 80.451 0.25332 27.273 38.671-19.205 29.388-11.121 21.156-18.744 49.876-34.406v-24.248" fill="#7593ce" opacity=".6784"/>
     <path id="path5076" d="m866.03 713.84 105.34 60.621-0.25332-27.273-105.29-60.788z" fill="#3f66b1" opacity=".6784"/>
     <path id="path5078" d="m1005.1 606.12-139.32 80.368 105.31 60.704 139.32-80.368z" fill="#6385c7" opacity=".84934"/>
    </g>
    <path id="path5080" d="m1198.1 491.92c-16.206 30.339-11.02 41.356-21.517 50.428-13.638 11.788-29.644-12.017-45.511 5.6889-13.038 14.549 16.681 41.551 0.5629 52.162-14.94 9.8352-33.694-9.0872-46.488 1.199-17.984 14.458 15.326 22.739-37.195 46.713" fill-opacity="0" stroke="#6480b5" stroke-width="23.301"/>
   </g>
  </g>
  <g id="g5092" transform="matrix(.63492 0 0 .63492 2.1826 246.67)" fill="#cde9f1" fill-opacity=".75879" opacity=".82769">
   <path id="path5086" d="m605.26 290.21a32.058 26.923 0 0 0-27.135 12.621 32.058 26.923 0 0 0-13.996-2.709 32.058 26.923 0 0 0-32.057 26.922 32.058 26.923 0 0 0 32.057 26.924 32.058 26.923 0 0 0 12.332-2.125 32.058 26.923 0 0 0 30.822 19.582 32.058 26.923 0 0 0 23.266-8.4824 17.232 14.471 0 0 0 7.6641 1.5391 17.232 14.471 0 0 0 16.838-11.576 32.058 26.923 0 0 0 16.006-23.234 32.058 26.923 0 0 0-32.059-26.924 32.058 26.923 0 0 0-6.2285 0.57812 32.058 26.923 0 0 0-27.51-13.115z"/>
   <ellipse id="ellipse5088" cx="692.2" cy="352.38" rx="17.232" ry="14.471"/>
   <ellipse id="ellipse5090" cx="525.38" cy="297.93" rx="11.082" ry="9.3069"/>
  </g>
  <g id="g5100" transform="matrix(.54095 0 0 .27951 87.714 433.28)" fill="#040c0e" fill-opacity=".75879">
   <path id="path5094" d="m601.36 282.22c-11.028 7e-3 -17.373 12.767-23.231 20.613-4.3614-1.7804-9.1468-2.7066-13.996-2.709-17.704 5.9e-4 -32.056 12.054-32.057 26.922-6.8e-4 14.869 14.352 26.923 32.057 26.924 4.2375-0.0169 8.429-0.73913 12.332-2.125 3.9075 11.579 14.947 19.108 29.278 19.115 11.985-11.087 4.6168-22.822 14.123-34.999 9.5059-12.177 25.777 2.8468 28.795 0.15016 2.3788 1.0033 6.5466 1.9966 9.2086 2.0056 8.1708-0.0181 15.925-24.565 19.369-28.143 6.1545-6.8303 15.976-13.649 16.006-23.234 6.8e-4 -14.87-19.653-26.34-37.358-26.34-2.0937 0.0214-6.2285 0.57812-6.2285 0.57812-9.4971 2.3299-37.018 21.245-48.297 21.241z" opacity=".2272"/>
   <ellipse id="ellipse5096" cx="692.2" cy="352.38" rx="17.232" ry="14.471" opacity=".2272"/>
   <ellipse id="ellipse5098" cx="525.38" cy="297.93" rx="11.082" ry="9.3069" opacity=".2272"/>
  </g>
  <path id="path5102" d="m175.44 649.84 105.34 60.621-0.25332-5.2729-105.29-60.788z" fill="#3f66b1" opacity=".6784"/>
  <path id="path5104" d="m569.67 539.02 0.25219 5.273-289.15 166.16-0.25219-5.273 289.15-166.16" fill="#8d9ec0"/>
  <g fill="#90a2c5">
   <ellipse id="path66265" transform="rotate(-2.5441)" cx="512.18" cy="508.77" rx="1.1866" ry="1.5656"/>
   <ellipse id="path66265-6" transform="rotate(-2.5441)" cx="528.49" cy="503.33" rx="1.1866" ry="1.5656"/>
   <ellipse id="path66265-4" transform="rotate(-2.5441)" cx="497.61" cy="526.47" rx="1.1866" ry="1.5656"/>
   <ellipse id="path66265-3" transform="rotate(-2.5441)" cx="503.34" cy="534.68" rx="1.1866" ry="1.5656"/>
   <ellipse id="path66265-3-7" transform="rotate(-2.5441)" cx="514.78" cy="530.15" rx="1.1866" ry="1.5656"/>
   <ellipse id="path66265-3-6" transform="rotate(-2.5441)" cx="524.74" cy="529.28" rx="1.1866" ry="1.5656"/>
   <ellipse id="path66265-3-73" transform="rotate(-2.5441)" cx="530.62" cy="520.59" rx="1.1866" ry="1.5656"/>
   <ellipse id="path66265-3-65" transform="rotate(-2.5441)" cx="542.94" cy="510.23" rx="1.1866" ry="1.5656"/>
   <ellipse id="path66265-1" transform="rotate(-2.5441)" cx="515.26" cy="504.12" rx=".8443" ry="1.1139"/>
   <ellipse id="path66265-1-5" transform="rotate(-2.5441)" cx="509.55" cy="505.18" rx=".8443" ry="1.1139"/>
   <ellipse id="path66265-1-54" transform="rotate(-2.5441)" cx="505.39" cy="510.91" rx=".8443" ry="1.1139"/>
   <ellipse id="path66265-1-7" transform="rotate(-2.5441)" cx="511.88" cy="515.74" rx=".8443" ry="1.1139"/>
   <ellipse id="path66265-1-6" transform="rotate(-2.5441)" cx="520.19" cy="512.5" rx=".8443" ry="1.1139"/>
   <ellipse id="path66265-1-6-9" transform="rotate(-2.5441)" cx="530.86" cy="513.01" rx=".8443" ry="1.1139"/>
   <ellipse id="path66265-1-6-4" transform="rotate(-2.5441)" cx="538.58" cy="513.57" rx=".8443" ry="1.1139"/>
   <ellipse id="path66265-1-6-81" transform="rotate(-2.5441)" cx="537.54" cy="521.57" rx=".8443" ry="1.1139"/>
   <ellipse id="path66265-1-6-2" transform="rotate(-2.5441)" cx="533.03" cy="527.85" rx=".8443" ry="1.1139"/>
   <ellipse id="path66265-1-6-88" transform="rotate(-2.5441)" cx="506.52" cy="542.74" rx=".8443" ry="1.1139"/>
   <ellipse id="path66265-1-6-5" transform="rotate(-2.5441)" cx="508.67" cy="537.27" rx=".8443" ry="1.1139"/>
   <ellipse id="path66265-1-6-0" transform="rotate(-2.5441)" cx="514.51" cy="535.25" rx=".8443" ry="1.1139"/>
   <ellipse id="path66265-1-6-96" transform="rotate(-2.5441)" cx="520.09" cy="535.23" rx=".8443" ry="1.1139"/>
   <ellipse id="path66265-1-6-3" transform="rotate(-2.5441)" cx="521.04" cy="528.93" rx=".8443" ry="1.1139"/>
   <ellipse id="path66265-1-6-85" transform="rotate(-2.5441)" cx="502.25" cy="544.38" rx=".8443" ry="1.1139"/>
   <ellipse id="path66265-1-6-6" transform="rotate(-2.5441)" cx="499.56" cy="548.42" rx=".8443" ry="1.1139"/>
   <ellipse id="path66265-1-6-1" transform="rotate(-2.5441)" cx="523.22" cy="534.62" rx=".8443" ry="1.1139"/>
   <ellipse id="path66265-1-56" transform="rotate(-2.5441)" cx="522.16" cy="502.87" rx=".8443" ry="1.1139"/>
   <ellipse id="path66265-1-56-6" transform="rotate(-2.5441)" cx="519.31" cy="501.17" rx=".8443" ry="1.1139"/>
   <ellipse id="path66265-1-56-6-4" transform="rotate(-2.5441)" cx="523.22" cy="498.63" rx=".51788" ry=".68327"/>
   <ellipse id="path66265-1-9" transform="rotate(-2.5441)" cx="515.53" cy="511.28" rx=".8443" ry="1.1139"/>
   <ellipse id="path66265-1-3" transform="rotate(-2.5441)" cx="518.96" cy="506.1" rx=".8443" ry="1.1139"/>
   <ellipse id="path66265-1-74" transform="rotate(-2.5441)" cx="507.08" cy="515.72" rx=".8443" ry="1.1139"/>
   <ellipse id="path66265-1-52" transform="rotate(-2.5441)" cx="500.57" cy="517.24" rx=".8443" ry="1.1139"/>
   <ellipse id="path66265-1-547" transform="rotate(-2.5441)" cx="501.79" cy="526.53" rx=".8443" ry="1.1139"/>
   <ellipse id="path66265-1-547-4" transform="rotate(-2.5441)" cx="499.94" cy="530.85" rx=".8443" ry="1.1139"/>
   <ellipse id="path66265-1-547-9" transform="rotate(-2.5441)" cx="510.34" cy="530.46" rx=".8443" ry="1.1139"/>
   <ellipse id="path66265-1-547-2" transform="rotate(-2.5441)" cx="510.57" cy="524.66" rx=".8443" ry="1.1139"/>
   <ellipse id="path66265-1-547-0" transform="rotate(-2.5441)" cx="505.8" cy="529.92" rx=".8443" ry="1.1139"/>
   <ellipse id="path66265-1-547-6" transform="rotate(-2.5441)" cx="519.61" cy="522.19" rx=".8443" ry="1.1139"/>
   <ellipse id="path66265-1-547-8" transform="rotate(-2.5441)" cx="522.84" cy="516.62" rx=".8443" ry="1.1139"/>
   <ellipse id="path66265-1-547-92" transform="rotate(-2.5441)" cx="524.56" cy="509.19" rx=".8443" ry="1.1139"/>
   <ellipse id="path66265-1-4" transform="rotate(-2.5441)" cx="505.56" cy="524.09" rx=".8443" ry="1.1139"/>
   <ellipse id="path66265-1-43" transform="rotate(-2.5441)" cx="502.92" cy="521.16" rx=".8443" ry="1.1139"/>
   <ellipse id="path66265-1-0" transform="rotate(-2.5441)" cx="509.05" cy="519.55" rx=".8443" ry="1.1139"/>
   <ellipse id="path66265-1-78" transform="rotate(-2.5441)" cx="513.42" cy="520.47" rx=".8443" ry="1.1139"/>
   <ellipse id="path66265-1-68" transform="rotate(-2.5441)" cx="515.79" cy="516.72" rx=".8443" ry="1.1139"/>
   <ellipse id="path66265-1-8" transform="rotate(-2.5441)" cx="509.2" cy="512.27" rx=".8443" ry="1.1139"/>
   <ellipse id="path66265-1-547-92-1" transform="rotate(-2.5441)" cx="497.72" cy="540.11" rx=".8443" ry="1.1139"/>
   <ellipse id="path66265-1-6-15" transform="rotate(-2.5441)" cx="514.38" cy="540.67" rx=".8443" ry="1.1139"/>
   <ellipse id="path66265-1-6-93" transform="rotate(-2.5441)" cx="484.95" cy="584.27" rx=".8443" ry="1.1139"/>
   <ellipse id="path66265-1-6-90" transform="rotate(-2.5441)" cx="480.81" cy="589.33" rx=".8443" ry="1.1139"/>
   <ellipse id="path66265-1-547-1" transform="rotate(-2.5441)" cx="485.72" cy="573.93" rx=".8443" ry="1.1139"/>
   <ellipse id="path66265-9" transform="rotate(-2.5441)" cx="470.32" cy="580.84" rx="1.1866" ry="1.5656"/>
   <ellipse id="path66265-3-5" transform="rotate(-2.5441)" cx="459.63" cy="604.24" rx="1.1866" ry="1.5656"/>
   <ellipse id="path66265-1-54-0" transform="rotate(-2.5441)" cx="454.61" cy="590.81" rx=".8443" ry="1.1139"/>
   <ellipse id="path66265-1-54-0-71" transform="rotate(-2.5441)" cx="451.25" cy="603.39" rx=".8443" ry="1.1139"/>
   <ellipse id="path66265-1-54-0-15" transform="rotate(-2.5441)" cx="450.82" cy="596.9" rx=".8443" ry="1.1139"/>
   <ellipse id="path66265-1-7-4" transform="rotate(-2.5441)" cx="479.82" cy="580.42" rx=".8443" ry="1.1139"/>
   <ellipse id="path66265-1-6-8" transform="rotate(-2.5441)" cx="479.87" cy="576.19" rx=".8443" ry="1.1139"/>
   <ellipse id="path66265-1-9-7" transform="rotate(-2.5441)" cx="474.61" cy="579.7" rx=".8443" ry="1.1139"/>
   <ellipse id="path66265-1-74-1" transform="rotate(-2.5441)" cx="463.36" cy="585.28" rx=".8443" ry="1.1139"/>
   <ellipse id="path66265-1-52-7" transform="rotate(-2.5441)" cx="456.85" cy="586.8" rx=".8443" ry="1.1139"/>
   <ellipse id="path66265-1-547-27" transform="rotate(-2.5441)" cx="458.07" cy="596.08" rx=".8443" ry="1.1139"/>
   <ellipse id="path66265-1-547-4-2" transform="rotate(-2.5441)" cx="456.22" cy="600.41" rx=".8443" ry="1.1139"/>
   <ellipse id="path66265-1-547-9-2" transform="rotate(-2.5441)" cx="466.63" cy="600.02" rx=".8443" ry="1.1139"/>
   <ellipse id="path66265-1-547-2-6" transform="rotate(-2.5441)" cx="466.85" cy="594.22" rx=".8443" ry="1.1139"/>
   <ellipse id="path66265-1-547-0-1" transform="rotate(-2.5441)" cx="462.08" cy="599.47" rx=".8443" ry="1.1139"/>
   <ellipse id="path66265-1-547-6-0" transform="rotate(-2.5441)" cx="475.89" cy="591.74" rx=".8443" ry="1.1139"/>
   <ellipse id="path66265-1-547-8-6" transform="rotate(-2.5441)" cx="479.13" cy="586.18" rx=".8443" ry="1.1139"/>
   <ellipse id="path66265-1-4-5" transform="rotate(-2.5441)" cx="461.84" cy="593.65" rx=".8443" ry="1.1139"/>
   <ellipse id="path66265-1-43-9" transform="rotate(-2.5441)" cx="459.21" cy="590.72" rx=".8443" ry="1.1139"/>
   <ellipse id="path66265-1-0-4" transform="rotate(-2.5441)" cx="465.34" cy="589.1" rx=".8443" ry="1.1139"/>
   <ellipse id="path66265-1-78-9" transform="rotate(-2.5441)" cx="469.7" cy="590.03" rx=".8443" ry="1.1139"/>
   <ellipse id="path66265-1-68-0" transform="rotate(-2.5441)" cx="472.07" cy="586.27" rx=".8443" ry="1.1139"/>
   <ellipse id="path66265-1-8-9" transform="rotate(-2.5441)" cx="465.48" cy="581.82" rx=".8443" ry="1.1139"/>
  </g>
 </g>
 <g id="vert1" transform="translate(-175.21 -390.31)">
  <g id="g4776" transform="translate(-690.58 -85.081)">
   <path id="path4748" d="m1260.5 527.58v101.8l-150.06 85.859-139.09 80.305v-21.076l38.671-19.205 29.388-11.121 21.156-18.744 21.353-15.019 28.524-19.387-0.025-24.165 21.147-5.843 21.973-12.827 14.002-31.715 20.581-10.065 50.683-68.834z" fill="#968263"/>
   <path id="path4750" d="m971.36 795.54-105.34-60.621v-21.076l105.34 60.621z" fill="#6f6149" fill-opacity=".92549"/>
   <g id="g4774" transform="translate(4e-4)">
    <g>
     <path id="path4752" d="m1131.6 660.98 21.973-12.827 14.002-31.715 20.581-10.065 30.643-41.066 20.039-27.768 21.698-9.9592-93.707-52.189-23.821 17.16-12.365 14.398-29.505 43.242-32.852 8.7778-23.448 31.353-39.697 15.797 105.34 60.621z" fill="#75938d"/>
     <path id="path4754" d="m1005.1 606.12 39.697-15.797 108.74 57.831-21.973 12.827-21.121 5.7598z" fill="#586e69"/>
     <path id="path4756" d="m1044.8 590.32 23.448-31.353 99.289 57.469-14.002 31.715z" fill="#617c75"/>
     <path id="path4758" d="m1068.3 558.97 99.289 57.469 20.581-10.065-87.018-56.182z" fill="#6b8981"/>
     <path id="path4760" d="m1166.8 475.39-23.821 17.16 95.83 44.988 21.698-9.9592z" fill="#91a9a4"/>
    </g>
    <path id="path4762" d="m1110.5 690.99-105.31-60.704-0.025-24.165 105.31 60.704 0.025 24.165" fill="#6f6148" fill-opacity=".92549"/>
    <g>
     <path id="path4764" d="m1005.1 630.28 105.31 60.704-49.876 34.406-21.156 18.744-29.388 11.121-38.671 19.205-105.34-60.621 57.455-24.24 33.85-24.327z" fill="#c1b5a2"/>
     <path id="path4766" d="m1110.5 666.74-139.35 80.451 0.25332 27.273 38.671-19.205 29.388-11.121 21.156-18.744 49.876-34.406v-24.248" fill="#7593ce" opacity=".6784"/>
     <path id="path4768" d="m866.03 713.84 105.34 60.621-0.25332-27.273-105.29-60.788z" fill="#3f66b1" opacity=".6784"/>
     <path id="path4770" d="m1005.1 606.12-139.32 80.368 105.31 60.704 139.32-80.368z" fill="#6385c7" opacity=".84934"/>
    </g>
    <path id="path4772" d="m1198.1 491.92c-16.206 30.339-11.02 41.356-21.517 50.428-13.638 11.788-29.644-12.017-45.511 5.6889-13.038 14.549 16.681 41.551 0.5629 52.162-14.94 9.8352-33.694-9.0872-46.488 1.199-17.984 14.458 15.326 22.739-37.195 46.713" fill-opacity="0" stroke="#6480b5" stroke-width="23.301"/>
   </g>
  </g>
  <g id="g4784" transform="matrix(.63492 0 0 .63492 2.1826 246.67)" fill="#cde9f1" fill-opacity=".75879" opacity=".82769">
   <path id="path4778" d="m605.26 290.21a32.058 26.923 0 0 0-27.135 12.621 32.058 26.923 0 0 0-13.996-2.709 32.058 26.923 0 0 0-32.057 26.922 32.058 26.923 0 0 0 32.057 26.924 32.058 26.923 0 0 0 12.332-2.125 32.058 26.923 0 0 0 30.822 19.582 32.058 26.923 0 0 0 23.266-8.4824 17.232 14.471 0 0 0 7.6641 1.5391 17.232 14.471 0 0 0 16.838-11.576 32.058 26.923 0 0 0 16.006-23.234 32.058 26.923 0 0 0-32.059-26.924 32.058 26.923 0 0 0-6.2285 0.57812 32.058 26.923 0 0 0-27.51-13.115z"/>
   <ellipse id="ellipse4780" cx="692.2" cy="352.38" rx="17.232" ry="14.471"/>
   <ellipse id="ellipse4782" cx="525.38" cy="297.93" rx="11.082" ry="9.3069"/>
  </g>
  <g id="g4792" transform="matrix(.54095 0 0 .27951 87.714 433.28)" fill="#040c0e" fill-opacity=".75879">
   <path id="path4786" d="m601.36 282.22c-11.028 7e-3 -17.373 12.767-23.231 20.613-4.3614-1.7804-9.1468-2.7066-13.996-2.709-17.704 5.9e-4 -32.056 12.054-32.057 26.922-6.8e-4 14.869 14.352 26.923 32.057 26.924 4.2375-0.0169 8.429-0.73913 12.332-2.125 3.9075 11.579 14.947 19.108 29.278 19.115 11.985-11.087 4.6168-22.822 14.123-34.999 9.5059-12.177 25.777 2.8468 28.795 0.15016 2.3788 1.0033 6.5466 1.9966 9.2086 2.0056 8.1708-0.0181 15.925-24.565 19.369-28.143 6.1545-6.8303 15.976-13.649 16.006-23.234 6.8e-4 -14.87-19.653-26.34-37.358-26.34-2.0937 0.0214-6.2285 0.57812-6.2285 0.57812-9.4971 2.3299-37.018 21.245-48.297 21.241z" opacity=".2272"/>
   <ellipse id="ellipse4788" cx="692.2" cy="352.38" rx="17.232" ry="14.471" opacity=".2272"/>
   <ellipse id="ellipse4790" cx="525.38" cy="297.93" rx="11.082" ry="9.3069" opacity=".2272"/>
  </g>
  <path id="path4457-5-9" d="m175.44 649.84 105.34 60.621-0.25332-5.2729-105.29-60.788z" fill="#3f66b1" opacity=".6784"/>
  <path id="path98526-7" d="m569.67 539.02 0.25219 5.273-289.15 166.16-0.25219-5.273 289.15-166.16" fill="#8d9ec0"/>
  <g fill="#90a2c5">
   <ellipse id="path66265-1-6-93-4" transform="rotate(-2.5441)" cx="484.13" cy="556.91" rx=".8443" ry="1.1139"/>
   <ellipse id="path66265-1-6-90-8" transform="rotate(-2.5441)" cx="479.99" cy="561.97" rx=".8443" ry="1.1139"/>
   <ellipse id="path66265-1-547-1-1" transform="rotate(-2.5441)" cx="484.9" cy="546.57" rx=".8443" ry="1.1139"/>
   <ellipse id="path66265-9-2" transform="rotate(-2.5441)" cx="469.5" cy="553.48" rx="1.1866" ry="1.5656"/>
   <ellipse id="path66265-3-5-9" transform="rotate(-2.5441)" cx="458.81" cy="576.87" rx="1.1866" ry="1.5656"/>
   <ellipse id="path66265-1-54-0-3" transform="rotate(-2.5441)" cx="453.79" cy="563.45" rx=".8443" ry="1.1139"/>
   <ellipse id="path66265-1-54-0-71-9" transform="rotate(-2.5441)" cx="450.43" cy="576.02" rx=".8443" ry="1.1139"/>
   <ellipse id="path66265-1-54-0-15-0" transform="rotate(-2.5441)" cx="450" cy="569.53" rx=".8443" ry="1.1139"/>
   <ellipse id="path66265-1-7-4-8" transform="rotate(-2.5441)" cx="479" cy="553.06" rx=".8443" ry="1.1139"/>
   <ellipse id="path66265-1-6-8-8" transform="rotate(-2.5441)" cx="479.05" cy="548.82" rx=".8443" ry="1.1139"/>
   <ellipse id="path66265-1-9-7-5" transform="rotate(-2.5441)" cx="473.79" cy="552.33" rx=".8443" ry="1.1139"/>
   <ellipse id="path66265-1-74-1-0" transform="rotate(-2.5441)" cx="462.54" cy="557.91" rx=".8443" ry="1.1139"/>
   <ellipse id="path66265-1-52-7-9" transform="rotate(-2.5441)" cx="456.03" cy="559.44" rx=".8443" ry="1.1139"/>
   <ellipse id="path66265-1-547-27-6" transform="rotate(-2.5441)" cx="457.25" cy="568.72" rx=".8443" ry="1.1139"/>
   <ellipse id="path66265-1-547-4-2-3" transform="rotate(-2.5441)" cx="455.4" cy="573.04" rx=".8443" ry="1.1139"/>
   <ellipse id="path66265-1-547-9-2-8" transform="rotate(-2.5441)" cx="465.81" cy="572.65" rx=".8443" ry="1.1139"/>
   <ellipse id="path66265-1-547-2-6-5" transform="rotate(-2.5441)" cx="466.03" cy="566.85" rx=".8443" ry="1.1139"/>
   <ellipse id="path66265-1-547-0-1-6" transform="rotate(-2.5441)" cx="461.26" cy="572.11" rx=".8443" ry="1.1139"/>
   <ellipse id="path66265-1-547-6-0-1" transform="rotate(-2.5441)" cx="475.07" cy="564.38" rx=".8443" ry="1.1139"/>
   <ellipse id="path66265-1-547-8-6-1" transform="rotate(-2.5441)" cx="478.31" cy="558.81" rx=".8443" ry="1.1139"/>
   <ellipse id="path66265-1-4-5-5" transform="rotate(-2.5441)" cx="461.02" cy="566.28" rx=".8443" ry="1.1139"/>
   <ellipse id="path66265-1-43-9-9" transform="rotate(-2.5441)" cx="458.39" cy="563.36" rx=".8443" ry="1.1139"/>
   <ellipse id="path66265-1-0-4-8" transform="rotate(-2.5441)" cx="464.52" cy="561.74" rx=".8443" ry="1.1139"/>
   <ellipse id="path66265-1-78-9-4" transform="rotate(-2.5441)" cx="468.88" cy="562.66" rx=".8443" ry="1.1139"/>
   <ellipse id="path66265-1-68-0-8" transform="rotate(-2.5441)" cx="471.25" cy="558.91" rx=".8443" ry="1.1139"/>
   <ellipse id="path66265-1-8-9-1" transform="rotate(-2.5441)" cx="464.66" cy="554.46" rx=".8443" ry="1.1139"/>
   <ellipse id="path66265-0" transform="rotate(-2.5441)" cx="511.66" cy="541.76" rx="1.1866" ry="1.5656"/>
   <ellipse id="path66265-6-3" transform="rotate(-2.5441)" cx="527.97" cy="536.32" rx="1.1866" ry="1.5656"/>
   <ellipse id="path66265-4-0" transform="rotate(-2.5441)" cx="497.08" cy="559.46" rx="1.1866" ry="1.5656"/>
   <ellipse id="path66265-3-4" transform="rotate(-2.5441)" cx="502.82" cy="567.67" rx="1.1866" ry="1.5656"/>
   <ellipse id="path66265-3-7-4" transform="rotate(-2.5441)" cx="514.25" cy="563.14" rx="1.1866" ry="1.5656"/>
   <ellipse id="path66265-3-6-4" transform="rotate(-2.5441)" cx="524.22" cy="562.27" rx="1.1866" ry="1.5656"/>
   <ellipse id="path66265-3-73-4" transform="rotate(-2.5441)" cx="530.09" cy="553.58" rx="1.1866" ry="1.5656"/>
   <ellipse id="path66265-3-65-7" transform="rotate(-2.5441)" cx="542.41" cy="543.22" rx="1.1866" ry="1.5656"/>
   <ellipse id="path66265-1-63" transform="rotate(-2.5441)" cx="514.74" cy="537.11" rx=".8443" ry="1.1139"/>
   <ellipse id="path66265-1-5-1" transform="rotate(-2.5441)" cx="509.03" cy="538.17" rx=".8443" ry="1.1139"/>
   <ellipse id="path66265-1-54-7" transform="rotate(-2.5441)" cx="504.87" cy="543.9" rx=".8443" ry="1.1139"/>
   <ellipse id="path66265-1-7-5" transform="rotate(-2.5441)" cx="511.36" cy="548.73" rx=".8443" ry="1.1139"/>
   <ellipse id="path66265-1-6-962" transform="rotate(-2.5441)" cx="519.67" cy="545.49" rx=".8443" ry="1.1139"/>
   <ellipse id="path66265-1-6-9-1" transform="rotate(-2.5441)" cx="530.34" cy="546" rx=".8443" ry="1.1139"/>
   <ellipse id="path66265-1-6-4-7" transform="rotate(-2.5441)" cx="538.06" cy="546.56" rx=".8443" ry="1.1139"/>
   <ellipse id="path66265-1-6-81-8" transform="rotate(-2.5441)" cx="537.02" cy="554.56" rx=".8443" ry="1.1139"/>
   <ellipse id="path66265-1-6-2-5" transform="rotate(-2.5441)" cx="532.51" cy="560.84" rx=".8443" ry="1.1139"/>
   <ellipse id="path66265-1-6-88-7" transform="rotate(-2.5441)" cx="506" cy="575.73" rx=".8443" ry="1.1139"/>
   <ellipse id="path66265-1-6-5-4" transform="rotate(-2.5441)" cx="508.15" cy="570.26" rx=".8443" ry="1.1139"/>
   <ellipse id="path66265-1-6-0-1" transform="rotate(-2.5441)" cx="513.99" cy="568.24" rx=".8443" ry="1.1139"/>
   <ellipse id="path66265-1-6-96-8" transform="rotate(-2.5441)" cx="519.57" cy="568.22" rx=".8443" ry="1.1139"/>
   <ellipse id="path66265-1-6-3-5" transform="rotate(-2.5441)" cx="520.52" cy="561.92" rx=".8443" ry="1.1139"/>
   <ellipse id="path66265-1-6-85-9" transform="rotate(-2.5441)" cx="501.73" cy="577.37" rx=".8443" ry="1.1139"/>
   <ellipse id="path66265-1-6-6-7" transform="rotate(-2.5441)" cx="499.04" cy="581.41" rx=".8443" ry="1.1139"/>
   <ellipse id="path66265-1-6-1-5" transform="rotate(-2.5441)" cx="522.7" cy="567.61" rx=".8443" ry="1.1139"/>
   <ellipse id="path66265-1-56-3" transform="rotate(-2.5441)" cx="521.64" cy="535.86" rx=".8443" ry="1.1139"/>
   <ellipse id="path66265-1-56-6-8" transform="rotate(-2.5441)" cx="518.78" cy="534.16" rx=".8443" ry="1.1139"/>
   <ellipse id="path66265-1-56-6-4-8" transform="rotate(-2.5441)" cx="522.7" cy="531.62" rx=".51788" ry=".68327"/>
   <ellipse id="path66265-1-9-3" transform="rotate(-2.5441)" cx="515" cy="544.27" rx=".8443" ry="1.1139"/>
   <ellipse id="path66265-1-3-1" transform="rotate(-2.5441)" cx="518.44" cy="539.09" rx=".8443" ry="1.1139"/>
   <ellipse id="path66265-1-74-8" transform="rotate(-2.5441)" cx="506.56" cy="548.71" rx=".8443" ry="1.1139"/>
   <ellipse id="path66265-1-52-9" transform="rotate(-2.5441)" cx="500.04" cy="550.23" rx=".8443" ry="1.1139"/>
   <ellipse id="path66265-1-547-64" transform="rotate(-2.5441)" cx="501.27" cy="559.52" rx=".8443" ry="1.1139"/>
   <ellipse id="path66265-1-547-4-3" transform="rotate(-2.5441)" cx="499.41" cy="563.84" rx=".8443" ry="1.1139"/>
   <ellipse id="path66265-1-547-9-3" transform="rotate(-2.5441)" cx="509.82" cy="563.45" rx=".8443" ry="1.1139"/>
   <ellipse id="path66265-1-547-2-3" transform="rotate(-2.5441)" cx="510.04" cy="557.65" rx=".8443" ry="1.1139"/>
   <ellipse id="path66265-1-547-0-8" transform="rotate(-2.5441)" cx="505.27" cy="562.91" rx=".8443" ry="1.1139"/>
   <ellipse id="path66265-1-547-6-6" transform="rotate(-2.5441)" cx="519.08" cy="555.18" rx=".8443" ry="1.1139"/>
   <ellipse id="path66265-1-547-8-0" transform="rotate(-2.5441)" cx="522.32" cy="549.61" rx=".8443" ry="1.1139"/>
   <ellipse id="path66265-1-547-92-4" transform="rotate(-2.5441)" cx="524.04" cy="542.18" rx=".8443" ry="1.1139"/>
   <ellipse id="path66265-1-4-8" transform="rotate(-2.5441)" cx="505.04" cy="557.08" rx=".8443" ry="1.1139"/>
   <ellipse id="path66265-1-43-8" transform="rotate(-2.5441)" cx="502.4" cy="554.15" rx=".8443" ry="1.1139"/>
   <ellipse id="path66265-1-0-8" transform="rotate(-2.5441)" cx="508.53" cy="552.54" rx=".8443" ry="1.1139"/>
   <ellipse id="path66265-1-78-97" transform="rotate(-2.5441)" cx="512.9" cy="553.46" rx=".8443" ry="1.1139"/>
   <ellipse id="path66265-1-68-7" transform="rotate(-2.5441)" cx="515.26" cy="549.71" rx=".8443" ry="1.1139"/>
   <ellipse id="path66265-1-8-6" transform="rotate(-2.5441)" cx="508.67" cy="545.26" rx=".8443" ry="1.1139"/>
   <ellipse id="path66265-1-547-92-1-4" transform="rotate(-2.5441)" cx="497.2" cy="573.1" rx=".8443" ry="1.1139"/>
   <ellipse id="path66265-1-6-15-3" transform="rotate(-2.5441)" cx="513.86" cy="573.66" rx=".8443" ry="1.1139"/>
  </g>
 </g>
 <g id="lat2">
  <g id="g179950" transform="translate(-865.77 -475.47)">
   <g id="g158152">
    <path id="path17469-0-9" d="m1260.5 527.58v101.8l-150.06 85.859-139.09 80.305v-21.076l38.671-19.205 29.388-11.121 21.156-18.744 21.353-15.019 28.524-19.387-0.025-24.165 21.147-5.843 21.973-12.827 14.002-31.715 20.581-10.065 50.683-68.834z" fill="#968263"/>
    <path id="path913-6-4-5" d="m971.36 795.54-105.34-60.621v-21.076l105.34 60.621z" fill="#6f6149" fill-opacity=".92549"/>
    <g id="g158136" transform="translate(4e-4)">
     <g>
      <path id="path17467-4-7" d="m1131.6 660.98 21.973-12.827 14.002-31.715 20.581-10.065 30.643-41.066 20.039-27.768 21.698-9.9592-93.707-52.189-23.821 17.16-12.365 14.398-29.505 43.242-32.852 8.7778-23.448 31.353-39.697 15.797 105.34 60.621z" fill="#75938d"/>
      <path id="path45136-4-3" d="m1005.1 606.12 39.697-15.797 108.74 57.831-21.973 12.827-21.121 5.7598z" fill="#586e69"/>
      <path id="path58389-4-8" d="m1044.8 590.32 23.448-31.353 99.289 57.469-14.002 31.715z" fill="#617c75"/>
      <path id="path74952-7-8" d="m1068.3 558.97 99.289 57.469 20.581-10.065-87.018-56.182z" fill="#6b8981"/>
      <path id="path84576-6-3" d="m1166.8 475.39-23.821 17.16 95.83 44.988 21.698-9.9592z" fill="#91a9a4"/>
     </g>
     <path id="path95729-1-3-1" d="m1110.5 690.99-105.31-60.704-0.025-24.165 105.31 60.704 0.025 24.165" fill="#6f6148" fill-opacity=".92549"/>
     <g>
      <path id="path102139-1-8" d="m1005.1 630.28 105.31 60.704-49.876 34.406-21.156 18.744-29.388 11.121-38.671 19.205-105.34-60.621 57.455-24.24 33.85-24.327z" fill="#c1b5a2"/>
      <path id="path4323-7-9" d="m1110.5 666.74-139.35 80.451 0.25332 27.273 38.671-19.205 29.388-11.121 21.156-18.744 49.876-34.406v-24.248" fill="#7593ce" opacity=".6784"/>
      <path id="path4457-5-6" d="m866.03 713.84 105.34 60.621-0.25332-27.273-105.29-60.788z" fill="#3f66b1" opacity=".6784"/>
      <path id="path4525-8-9-4" d="m1005.1 606.12-139.32 80.368 105.31 60.704 139.32-80.368z" fill="#6385c7" opacity=".84934"/>
     </g>
     <g id="path4837-6-3">
      <path id="path181677" d="m1198.1 491.92c-16.206 30.339-11.02 41.356-21.517 50.428-13.638 11.788-29.644-12.017-45.511 5.6889-13.038 14.549 16.681 41.551 0.5629 52.162-14.94 9.8352-33.694-9.0872-46.488 1.199-17.984 14.458 15.326 22.739-37.195 46.713" color="#000000" fill-opacity="0" stroke-width="18.765"/>
      <path id="path181679" d="m1171.8 477.5c-8.5211 15.953 6.3533 37.514 4.3105 45.199-2.0427 7.6857-22.054-2.2547-25.303 0.55296-1.5405 1.3315 17.836 13.274 15.877 13.115-1.9585-0.15886-5.2547-1.1754-9.3946-2.3945s-23.62-9.6255-29.723-8.9412c-6.1022 0.68432 1.6814 10.955-3.5059 16.744-5.4045 6.0308 17.626 14.104 18.561 20.43 0.9347 6.3258-13.382 4.7315-11.509 9.6286 1.8732 4.8971 19.861 16.326 20.021 18.479s-23.285 1.1292-24.682 2.0488c-3.6557 2.4066-8.2858 1.4252-16.43-0.78711-4.0719-1.1062-33.326-12.077-33.326-12.077-4.1694 3.2603 7.7144 10.434 2.5486 14.587-5.9392 4.7748-27.927 0.45179-28.301 5.7028-0.3741 5.251 17.152 13.744 14.806 15.936-1.9965 1.8652-19.076-15.681-32.124-6.4287-5.3361 3.6157-5.9564 7.5975-18.56 13.351l7.793 17.07c13.657-6.2339 20.037-16.242 28.051-17.156 9.2455-1.0542 44.576 22.833 62.972 17.334 17.388-5.1981-25.492-26.684-25.412-27.801 0.08-1.1172-0.5196-0.92656 2.5332-3.3809 1.2315-0.99006 1.9575-1.1892 4.252-1.084 2.2944 0.10519 5.7643 0.94739 9.8476 2.0566 8.1666 2.2185 32.863 14.15 44.147 6.7218 3.3311-2.1929-4.5818-11.022-2.1447-14.26s15.224-0.88437 14.988-4.0591c-0.4717-6.3494 14.82-17.825 12.908-22.824s13.712 0.27331 13.245-2.8872c-0.4671-3.1605-51.325-16.833-50.21-18.076 2.7461-3.0644 4.1576-3.4382 5.9453-3.6387 1.7878-0.20048 4.458 0.26716 8.0078 1.3125s7.8055 2.6637 13.18 3.0996c5.3743 0.43593 12.249-1.0627 17.527-5.625 7.2481-6.2646 9.5088-14.252 11.549-21.928 2.04-7.6753-13.577-26.793-5.8926-41.18z" color="#000000" fill="#6480b5"/>
     </g>
    </g>
   </g>
   <g id="g151741-5-0" transform="matrix(.63492 0 0 .63492 692.77 331.75)" fill="#cde9f1" fill-opacity=".75879" opacity=".82769">
    <g id="g190916" fill="#cde9f1" fill-opacity=".75879">
     <path id="path93689-7-4" d="m605.26 290.21a32.058 26.923 0 0 0-27.135 12.621 32.058 26.923 0 0 0-13.996-2.709 32.058 26.923 0 0 0-32.057 26.922 32.058 26.923 0 0 0 32.057 26.924 32.058 26.923 0 0 0 12.332-2.125 32.058 26.923 0 0 0 30.822 19.582 32.058 26.923 0 0 0 23.266-8.4824 17.232 14.471 0 0 0 7.6641 1.5391 17.232 14.471 0 0 0 16.838-11.576 32.058 26.923 0 0 0 16.006-23.234 32.058 26.923 0 0 0-32.059-26.924 32.058 26.923 0 0 0-6.2285 0.57812 32.058 26.923 0 0 0-27.51-13.115z"/>
     <ellipse id="path93689-5-5-9-4-8" cx="692.2" cy="352.38" rx="17.232" ry="14.471"/>
     <ellipse id="path93689-5-5-8-1-8" cx="525.38" cy="297.93" rx="11.082" ry="9.3069"/>
    </g>
   </g>
   <g id="g151741-4-2-3" transform="matrix(.54095 0 0 .27951 778.3 518.36)" fill="#040c0e" fill-opacity=".75879">
    <path id="path93689-8-1-3" d="m601.36 282.22c-11.028 7e-3 -17.373 12.767-23.231 20.613-4.3614-1.7804-9.1468-2.7066-13.996-2.709-17.704 5.9e-4 -32.056 12.054-32.057 26.922-6.8e-4 14.869 14.352 26.923 32.057 26.924 4.2375-0.0169 8.429-0.73913 12.332-2.125 3.9075 11.579 14.947 19.108 29.278 19.115 11.985-11.087 4.6168-22.822 14.123-34.999 9.5059-12.177 25.777 2.8468 28.795 0.15016 2.3788 1.0033 6.5466 1.9966 9.2086 2.0056 8.1708-0.0181 15.925-24.565 19.369-28.143 6.1545-6.8303 15.976-13.649 16.006-23.234 6.8e-4 -14.87-19.653-26.34-37.358-26.34-2.0937 0.0214-6.2285 0.57812-6.2285 0.57812-9.4971 2.3299-37.018 21.245-48.297 21.241z" opacity=".2272"/>
    <ellipse id="path93689-5-5-9-1-7-8" cx="692.2" cy="352.38" rx="17.232" ry="14.471" opacity=".2272"/>
    <ellipse id="path93689-5-5-8-0-8-6" cx="525.38" cy="297.93" rx="11.082" ry="9.3069" opacity=".2272"/>
   </g>
  </g>
 </g>
 <g id="lat1" transform="translate(-175.21 -390.31)">
  <g id="g6291" transform="translate(-690.58 -85.081)">
   <path id="path6263" d="m1260.5 527.58v101.8l-150.06 85.859-139.09 80.305v-21.076l38.671-19.205 29.388-11.121 21.156-18.744 21.353-15.019 28.524-19.387-0.025-24.165 21.147-5.843 21.973-12.827 14.002-31.715 20.581-10.065 50.683-68.834z" fill="#968263"/>
   <path id="path6265" d="m971.36 795.54-105.34-60.621v-21.076l105.34 60.621z" fill="#6f6149" fill-opacity=".92549"/>
   <g id="g6289" transform="translate(4e-4)">
    <g>
     <path id="path6267" d="m1131.6 660.98 21.973-12.827 14.002-31.715 20.581-10.065 30.643-41.066 20.039-27.768 21.698-9.9592-93.707-52.189-23.821 17.16-12.365 14.398-29.505 43.242-32.852 8.7778-23.448 31.353-39.697 15.797 105.34 60.621z" fill="#75938d"/>
     <path id="path6269" d="m1005.1 606.12 39.697-15.797 108.74 57.831-21.973 12.827-21.121 5.7598z" fill="#586e69"/>
     <path id="path6271" d="m1044.8 590.32 23.448-31.353 99.289 57.469-14.002 31.715z" fill="#617c75"/>
     <path id="path6273" d="m1068.3 558.97 99.289 57.469 20.581-10.065-87.018-56.182z" fill="#6b8981"/>
     <path id="path6275" d="m1166.8 475.39-23.821 17.16 95.83 44.988 21.698-9.9592z" fill="#91a9a4"/>
    </g>
    <path id="path6277" d="m1110.5 690.99-105.31-60.704-0.025-24.165 105.31 60.704 0.025 24.165" fill="#6f6148" fill-opacity=".92549"/>
    <g>
     <path id="path6279" d="m1005.1 630.28 105.31 60.704-49.876 34.406-21.156 18.744-29.388 11.121-38.671 19.205-105.34-60.621 57.455-24.24 33.85-24.327z" fill="#c1b5a2"/>
     <path id="path6281" d="m1110.5 666.74-139.35 80.451 0.25332 27.273 38.671-19.205 29.388-11.121 21.156-18.744 49.876-34.406v-24.248" fill="#7593ce" opacity=".6784"/>
     <path id="path6283" d="m866.03 713.84 105.34 60.621-0.25332-27.273-105.29-60.788z" fill="#3f66b1" opacity=".6784"/>
     <path id="path6285" d="m1005.1 606.12-139.32 80.368 105.31 60.704 139.32-80.368z" fill="#6385c7" opacity=".84934"/>
    </g>
    <path id="path6287" d="m1198.1 491.92c-16.206 30.339-11.02 41.356-21.517 50.428-13.638 11.788-29.644-12.017-45.511 5.6889-13.038 14.549 16.681 41.551 0.5629 52.162-14.94 9.8352-33.694-9.0872-46.488 1.199-17.984 14.458 15.326 22.739-37.195 46.713" fill-opacity="0" stroke="#6480b5" stroke-width="23.301"/>
   </g>
  </g>
  <g id="g6299" transform="matrix(.63492 0 0 .63492 2.1826 246.67)" fill="#cde9f1" fill-opacity=".75879" opacity=".82769">
   <path id="path6293" d="m605.26 290.21a32.058 26.923 0 0 0-27.135 12.621 32.058 26.923 0 0 0-13.996-2.709 32.058 26.923 0 0 0-32.057 26.922 32.058 26.923 0 0 0 32.057 26.924 32.058 26.923 0 0 0 12.332-2.125 32.058 26.923 0 0 0 30.822 19.582 32.058 26.923 0 0 0 23.266-8.4824 17.232 14.471 0 0 0 7.6641 1.5391 17.232 14.471 0 0 0 16.838-11.576 32.058 26.923 0 0 0 16.006-23.234 32.058 26.923 0 0 0-32.059-26.924 32.058 26.923 0 0 0-6.2285 0.57812 32.058 26.923 0 0 0-27.51-13.115z"/>
   <ellipse id="ellipse6295" cx="692.2" cy="352.38" rx="17.232" ry="14.471"/>
   <ellipse id="ellipse6297" cx="525.38" cy="297.93" rx="11.082" ry="9.3069"/>
  </g>
  <g id="g6307" transform="matrix(.54095 0 0 .27951 87.714 433.28)" fill="#040c0e" fill-opacity=".75879">
   <path id="path6301" d="m601.36 282.22c-11.028 7e-3 -17.373 12.767-23.231 20.613-4.3614-1.7804-9.1468-2.7066-13.996-2.709-17.704 5.9e-4 -32.056 12.054-32.057 26.922-6.8e-4 14.869 14.352 26.923 32.057 26.924 4.2375-0.0169 8.429-0.73913 12.332-2.125 3.9075 11.579 14.947 19.108 29.278 19.115 11.985-11.087 4.6168-22.822 14.123-34.999 9.5059-12.177 25.777 2.8468 28.795 0.15016 2.3788 1.0033 6.5466 1.9966 9.2086 2.0056 8.1708-0.0181 15.925-24.565 19.369-28.143 6.1545-6.8303 15.976-13.649 16.006-23.234 6.8e-4 -14.87-19.653-26.34-37.358-26.34-2.0937 0.0214-6.2285 0.57812-6.2285 0.57812-9.4971 2.3299-37.018 21.245-48.297 21.241z" opacity=".2272"/>
   <ellipse id="ellipse6303" cx="692.2" cy="352.38" rx="17.232" ry="14.471" opacity=".2272"/>
   <ellipse id="ellipse6305" cx="525.38" cy="297.93" rx="11.082" ry="9.3069" opacity=".2272"/>
  </g>
 </g>
 <g id="long2" transform="translate(-175.21 -390.31)">
  <path id="path31950" d="m569.93 442.5v101.8l-150.06 85.859-139.09 80.305v-21.076l38.671-19.205 29.388-11.121 21.156-18.744 21.353-15.019 28.524-19.387-0.025-24.165 21.147-5.843 21.973-12.827 14.002-31.715 20.581-10.065 50.683-68.834z" fill="#968263"/>
  <path id="path31952" d="m280.78 710.46-105.34-60.621v-21.076l105.34 60.621z" fill="#6f6149" fill-opacity=".92549"/>
  <g id="g31976" transform="translate(-690.58 -85.081)">
   <g>
    <path id="path31954" d="m1131.6 660.98 21.973-12.827 14.002-31.715 20.581-10.065 30.643-41.066 20.039-27.768 21.698-9.9592-93.707-52.189-23.821 17.16-12.365 14.398-29.505 43.242-32.852 8.7778-23.448 31.353-39.697 15.797 105.34 60.621z" fill="#75938d"/>
    <path id="path31956" d="m1005.1 606.12 39.697-15.797 108.74 57.831-21.973 12.827-21.121 5.7598z" fill="#586e69"/>
    <path id="path31958" d="m1044.8 590.32 23.448-31.353 99.289 57.469-14.002 31.715z" fill="#617c75"/>
    <path id="path31960" d="m1068.3 558.97 99.289 57.469 20.581-10.065-87.018-56.182z" fill="#6b8981"/>
    <path id="path31962" d="m1166.8 475.39-23.821 17.16 95.83 44.988 21.698-9.9592z" fill="#91a9a4"/>
   </g>
   <path id="path31964" d="m1110.5 690.99-105.31-60.704-0.025-24.165 105.31 60.704 0.025 24.165" fill="#6f6148" fill-opacity=".92549"/>
   <g>
    <path id="path31966" d="m1005.1 630.28 105.31 60.704-49.876 34.406-21.156 18.744-29.388 11.121-38.671 19.205-105.34-60.621 57.455-24.24 33.85-24.327z" fill="#c1b5a2"/>
    <path id="path31968" d="m1110.5 666.74-139.35 80.451 0.25332 27.273 38.671-19.205 29.388-11.121 21.156-18.744 49.876-34.406v-24.248" fill="#7593ce" opacity=".6784"/>
    <path id="path31970" d="m866.03 713.84 105.34 60.621-0.25332-27.273-105.29-60.788z" fill="#3f66b1" opacity=".6784"/>
    <path id="path31972" d="m1005.1 606.12-139.32 80.368 105.31 60.704 139.32-80.368z" fill="#6385c7" opacity=".84934"/>
   </g>
   <path id="path31974" d="m1198.1 491.92c-16.206 30.339-11.02 41.356-21.517 50.428-13.638 11.788-29.644-12.017-45.511 5.6889-13.038 14.549 16.681 41.551 0.5629 52.162-14.94 9.8352-33.694-9.0872-46.488 1.199-17.984 14.458 15.326 22.739-37.195 46.713" fill-opacity="0" stroke="#6480b5" stroke-width="23.301"/>
  </g>
  <g fill="#4c4232">
   <ellipse id="ellipse31994" transform="rotate(-22.685)" cx="97.104" cy="673.04" rx="9.3605" ry="5.6396" opacity=".50938"/>
   <ellipse id="ellipse31996" transform="rotate(-28.172)" cx="49.872" cy="664.08" rx="4.2174" ry="2.5409" opacity=".50938"/>
   <ellipse id="ellipse31998" transform="rotate(-28.172)" cx="100.53" cy="643.54" rx="4.8256" ry="2.9074" opacity=".57376"/>
   <ellipse id="ellipse32000" transform="rotate(-28.172)" cx="90.085" cy="649.79" rx="4.8256" ry="2.9074" opacity=".57376"/>
   <ellipse id="ellipse32002" transform="rotate(-28.172)" cx="118.61" cy="652.34" rx="4.8256" ry="2.9074" opacity=".57376"/>
   <circle id="circle32004" cx="367.45" cy="564.83" r="2.2759" opacity=".50938"/>
   <circle id="circle32006" cx="350.84" cy="570.88" r="2.2759" opacity=".50938"/>
   <circle id="circle32008" cx="369.62" cy="553.09" r="2.2759" opacity=".50938"/>
   <circle id="circle32010" cx="436.62" cy="493.52" r="2.2759" opacity=".51467"/>
   <circle id="circle32012" cx="450.45" cy="512.07" r="2.2759" opacity=".51467"/>
   <circle id="circle32014" cx="431.9" cy="520.84" r="2.2759" opacity=".51467"/>
   <circle id="circle32016" cx="420.76" cy="512.07" r="2.2759" opacity=".51467"/>
   <circle id="circle32018" cx="389.73" cy="539.06" r="2.2759" opacity=".51467"/>
   <circle id="circle32020" cx="311.83" cy="570.98" r="2.2759" opacity=".51467"/>
   <circle id="circle32022" cx="380.92" cy="541.36" r="2.2759" opacity=".51467"/>
   <circle id="circle32024" cx="444.3" cy="520.49" r="1.1536" opacity=".51467"/>
   <circle id="circle32026" cx="440.5" cy="495.71" r="1.1536" opacity=".51467"/>
   <circle id="circle32070" cx="378.06" cy="550.94" r="1.1536" opacity=".51467"/>
  </g>
  <g fill="#d87870">
   <g id="g33482" transform="matrix(.50301 0 0 .50301 263.55 294.62)" stroke-width=".99934">
    <path id="path33478" d="m245.39 504.96c3.7449-2.1621 5.3821-0.58764 5.3821 1.589 0 1.9436-1.5553 5.3668-5.3821 7.5762-3.8268 2.2094-6.6167 0.0915-8.6798 1.3341-2.2304 1.3433-4.6835 6.0996-6.4965 7.9127-0.90651 0.9065 2.6624-4.8458 2.4569-7.1214-0.24701-2.7352-2.4569-6.5123-2.4569-6.5123s4.5881 4.6164 6.4965 3.193c2.2971-1.7133 3.8512-5.1834 8.6798-7.9712z"/>
    <ellipse id="ellipse33480" cx="248.21" cy="506.85" rx=".24267" ry=".56722" opacity=".50938"/>
   </g>
   <g id="g33488" transform="matrix(.29491 0 0 .29491 324.17 379.01)">
    <path id="path33484" d="m245.39 504.96c3.7449-2.1621 5.3821-0.58764 5.3821 1.589 0 1.9436-1.5553 5.3668-5.3821 7.5762-3.8268 2.2094-6.6167 0.0915-8.6798 1.3341-2.2304 1.3433-4.6835 6.0996-6.4965 7.9127-0.90651 0.9065 2.6624-4.8458 2.4569-7.1214-0.24701-2.7352-2.4569-6.5123-2.4569-6.5123s4.5881 4.6164 6.4965 3.193c2.2971-1.7133 3.8512-5.1834 8.6798-7.9712z"/>
    <ellipse id="ellipse33486" cx="248.21" cy="506.85" rx=".24267" ry=".56722" opacity=".50938"/>
   </g>
   <g id="g33494" transform="matrix(-.29491 0 0 -.29491 475.28 667.31)">
    <path id="path33490" d="m245.39 504.96c3.7449-2.1621 5.3821-0.58764 5.3821 1.589 0 1.9436-1.5553 5.3668-5.3821 7.5762-3.8268 2.2094-6.6167 0.0915-8.6798 1.3341-2.2304 1.3433-4.6835 6.0996-6.4965 7.9127-0.90651 0.9065 2.6624-4.8458 2.4569-7.1214-0.24701-2.7352-2.4569-6.5123-2.4569-6.5123s4.5881 4.6164 6.4965 3.193c2.2971-1.7133 3.8512-5.1834 8.6798-7.9712z"/>
    <ellipse id="ellipse33492" cx="248.21" cy="506.85" rx=".24267" ry=".56722" opacity=".50938"/>
   </g>
   <g id="g33500" transform="matrix(.50301 0 0 .50301 373.04 196.01)">
    <path id="path33496" d="m245.39 504.96c3.7449-2.1621 5.3821-0.58764 5.3821 1.589 0 1.9436-1.5553 5.3668-5.3821 7.5762-3.8268 2.2094-6.6167 0.0915-8.6798 1.3341-2.2304 1.3433-4.6835 6.0996-6.4965 7.9127-0.90651 0.9065 2.6624-4.8458 2.4569-7.1214-0.24701-2.7352-2.4569-6.5123-2.4569-6.5123s4.5881 4.6164 6.4965 3.193c2.2971-1.7133 3.8512-5.1834 8.6798-7.9712z"/>
    <ellipse id="ellipse33498" cx="248.21" cy="506.85" rx=".24267" ry=".56722" opacity=".50938"/>
   </g>
  </g>
  <g id="g33506" transform="matrix(-.37057 0 0 -.37057 522.48 661.18)">
   <path id="path33502" d="m245.39 504.96c3.7449-2.1621 5.3821-0.58764 5.3821 1.589 0 1.9436-1.5553 5.3668-5.3821 7.5762-3.8268 2.2094-6.6167 0.0915-8.6798 1.3341-2.2304 1.3433-4.6835 6.0996-6.4965 7.9127-0.90651 0.9065 2.6624-4.8458 2.4569-7.1214-0.24701-2.7352-2.4569-6.5123-2.4569-6.5123s4.5881 4.6164 6.4965 3.193c2.2971-1.7133 3.8512-5.1834 8.6798-7.9712z" fill="#d87870"/>
   <ellipse id="ellipse33504" cx="248.21" cy="506.85" rx=".24267" ry=".56722" opacity=".50938"/>
  </g>
  <g id="g33512" transform="matrix(-.37057 0 0 -.37057 476.77 704.79)" fill="#d87870">
   <path id="path33508" d="m245.39 504.96c3.7449-2.1621 5.3821-0.58764 5.3821 1.589 0 1.9436-1.5553 5.3668-5.3821 7.5762-3.8268 2.2094-6.6167 0.0915-8.6798 1.3341-2.2304 1.3433-4.6835 6.0996-6.4965 7.9127-0.90651 0.9065 2.6624-4.8458 2.4569-7.1214-0.24701-2.7352-2.4569-6.5123-2.4569-6.5123s4.5881 4.6164 6.4965 3.193c2.2971-1.7133 3.8512-5.1834 8.6798-7.9712z"/>
   <ellipse id="ellipse33510" cx="248.21" cy="506.85" rx=".24267" ry=".56722" opacity=".50938"/>
  </g>
  <g id="g33518" transform="matrix(-.61226 0 0 -.61226 572.87 834.51)" fill="#d87870">
   <path id="path33514" d="m245.39 504.96c3.7449-2.1621 5.3821-0.58764 5.3821 1.589 0 1.9436-1.5553 5.3668-5.3821 7.5762-3.8268 2.2094-6.6167 0.0915-8.6798 1.3341-2.2304 1.3433-4.6835 6.0996-6.4965 7.9127-0.90651 0.9065 2.6624-4.8458 2.4569-7.1214-0.24701-2.7352-2.4569-6.5123-2.4569-6.5123s4.5881 4.6164 6.4965 3.193c2.2971-1.7133 3.8512-5.1834 8.6798-7.9712z"/>
   <ellipse id="ellipse33516" cx="248.21" cy="506.85" rx=".24267" ry=".56722" opacity=".50938"/>
  </g>
  <g id="g31992" transform="matrix(.54095 0 0 .27951 87.714 433.28)" fill="#040c0e" fill-opacity=".75879">
   <path id="path31986" d="m601.36 282.22c-11.028 7e-3 -17.373 12.767-23.231 20.613-4.3614-1.7804-9.1468-2.7066-13.996-2.709-17.704 5.9e-4 -32.056 12.054-32.057 26.922-6.8e-4 14.869 14.352 26.923 32.057 26.924 4.2375-0.0169 8.429-0.73913 12.332-2.125 3.9075 11.579 14.947 19.108 29.278 19.115 11.985-11.087 4.6168-22.822 14.123-34.999 9.5059-12.177 25.777 2.8468 28.795 0.15016 2.3788 1.0033 6.5466 1.9966 9.2086 2.0056 8.1708-0.0181 15.925-24.565 19.369-28.143 6.1545-6.8303 15.976-13.649 16.006-23.234 6.8e-4 -14.87-19.653-26.34-37.358-26.34-2.0937 0.0214-6.2285 0.57812-6.2285 0.57812-9.4971 2.3299-37.018 21.245-48.297 21.241z" opacity=".2272"/>
   <ellipse id="ellipse31988" cx="692.2" cy="352.38" rx="17.232" ry="14.471" opacity=".2272"/>
   <ellipse id="ellipse31990" cx="525.38" cy="297.93" rx="11.082" ry="9.3069" opacity=".2272"/>
  </g>
  <g id="g31984" transform="matrix(.63492 0 0 .63492 2.1826 246.67)" fill="#cde9f1" fill-opacity=".75879" opacity=".82769">
   <path id="path31978" d="m605.26 290.21a32.058 26.923 0 0 0-27.135 12.621 32.058 26.923 0 0 0-13.996-2.709 32.058 26.923 0 0 0-32.057 26.922 32.058 26.923 0 0 0 32.057 26.924 32.058 26.923 0 0 0 12.332-2.125 32.058 26.923 0 0 0 30.822 19.582 32.058 26.923 0 0 0 23.266-8.4824 17.232 14.471 0 0 0 7.6641 1.5391 17.232 14.471 0 0 0 16.838-11.576 32.058 26.923 0 0 0 16.006-23.234 32.058 26.923 0 0 0-32.059-26.924 32.058 26.923 0 0 0-6.2285 0.57812 32.058 26.923 0 0 0-27.51-13.115z"/>
   <ellipse id="ellipse31980" cx="692.2" cy="352.38" rx="17.232" ry="14.471"/>
   <ellipse id="ellipse31982" cx="525.38" cy="297.93" rx="11.082" ry="9.3069"/>
  </g>
 </g>
 <g id="long1" transform="translate(-175.21 -390.31)">
  <path id="path32634" d="m569.93 442.5v101.8l-150.06 85.859-139.09 80.305v-21.076l38.671-19.205 29.388-11.121 21.156-18.744 21.353-15.019 28.524-19.387-0.025-24.165 21.147-5.843 21.973-12.827 14.002-31.715 20.581-10.065 50.683-68.834z" fill="#968263"/>
  <path id="path32636" d="m280.78 710.46-105.34-60.621v-21.076l105.34 60.621z" fill="#6f6149" fill-opacity=".92549"/>
  <g id="g32660" transform="translate(-690.58 -85.081)">
   <g>
    <path id="path32638" d="m1131.6 660.98 21.973-12.827 14.002-31.715 20.581-10.065 30.643-41.066 20.039-27.768 21.698-9.9592-93.707-52.189-23.821 17.16-12.365 14.398-29.505 43.242-32.852 8.7778-23.448 31.353-39.697 15.797 105.34 60.621z" fill="#75938d"/>
    <path id="path32640" d="m1005.1 606.12 39.697-15.797 108.74 57.831-21.973 12.827-21.121 5.7598z" fill="#586e69"/>
    <path id="path32642" d="m1044.8 590.32 23.448-31.353 99.289 57.469-14.002 31.715z" fill="#617c75"/>
    <path id="path32644" d="m1068.3 558.97 99.289 57.469 20.581-10.065-87.018-56.182z" fill="#6b8981"/>
    <path id="path32646" d="m1166.8 475.39-23.821 17.16 95.83 44.988 21.698-9.9592z" fill="#91a9a4"/>
   </g>
   <path id="path32648" d="m1110.5 690.99-105.31-60.704-0.025-24.165 105.31 60.704 0.025 24.165" fill="#6f6148" fill-opacity=".92549"/>
   <g>
    <path id="path32650" d="m1005.1 630.28 105.31 60.704-49.876 34.406-21.156 18.744-29.388 11.121-38.671 19.205-105.34-60.621 57.455-24.24 33.85-24.327z" fill="#c1b5a2"/>
    <path id="path32652" d="m1110.5 666.74-139.35 80.451 0.25332 27.273 38.671-19.205 29.388-11.121 21.156-18.744 49.876-34.406v-24.248" fill="#7593ce" opacity=".6784"/>
    <path id="path32654" d="m866.03 713.84 105.34 60.621-0.25332-27.273-105.29-60.788z" fill="#3f66b1" opacity=".6784"/>
    <path id="path32656" d="m1005.1 606.12-139.32 80.368 105.31 60.704 139.32-80.368z" fill="#6385c7" opacity=".84934"/>
   </g>
   <path id="path32658" d="m1198.1 491.92c-16.206 30.339-11.02 41.356-21.517 50.428-13.638 11.788-29.644-12.017-45.511 5.6889-13.038 14.549 16.681 41.551 0.5629 52.162-14.94 9.8352-33.694-9.0872-46.488 1.199-17.984 14.458 15.326 22.739-37.195 46.713" fill-opacity="0" stroke="#6480b5" stroke-width="23.301"/>
  </g>
  <g id="g32668" transform="matrix(.63492 0 0 .63492 2.1826 246.67)" fill="#cde9f1" fill-opacity=".75879" opacity=".82769">
   <path id="path32662" d="m605.26 290.21a32.058 26.923 0 0 0-27.135 12.621 32.058 26.923 0 0 0-13.996-2.709 32.058 26.923 0 0 0-32.057 26.922 32.058 26.923 0 0 0 32.057 26.924 32.058 26.923 0 0 0 12.332-2.125 32.058 26.923 0 0 0 30.822 19.582 32.058 26.923 0 0 0 23.266-8.4824 17.232 14.471 0 0 0 7.6641 1.5391 17.232 14.471 0 0 0 16.838-11.576 32.058 26.923 0 0 0 16.006-23.234 32.058 26.923 0 0 0-32.059-26.924 32.058 26.923 0 0 0-6.2285 0.57812 32.058 26.923 0 0 0-27.51-13.115z"/>
   <ellipse id="ellipse32664" cx="692.2" cy="352.38" rx="17.232" ry="14.471"/>
   <ellipse id="ellipse32666" cx="525.38" cy="297.93" rx="11.082" ry="9.3069"/>
  </g>
  <g id="g32752" transform="matrix(-.61226 0 0 -.61226 584.87 824.51)" fill="#d87870">
   <path id="path32748" d="m245.39 504.96c3.7449-2.1621 5.3821-0.58764 5.3821 1.589 0 1.9436-1.5553 5.3668-5.3821 7.5762-3.8268 2.2094-6.6167 0.0915-8.6798 1.3341-2.2304 1.3433-4.6835 6.0996-6.4965 7.9127-0.90651 0.9065 2.6624-4.8458 2.4569-7.1214-0.24701-2.7352-2.4569-6.5123-2.4569-6.5123s4.5881 4.6164 6.4965 3.193c2.2971-1.7133 3.8512-5.1834 8.6798-7.9712z"/>
   <ellipse id="ellipse32750" cx="248.21" cy="506.85" rx=".24267" ry=".56722" opacity=".50938"/>
  </g>
  <g id="g32676" transform="matrix(.54095 0 0 .27951 87.714 433.28)" fill="#040c0e" fill-opacity=".75879">
   <path id="path32670" d="m601.36 282.22c-11.028 7e-3 -17.373 12.767-23.231 20.613-4.3614-1.7804-9.1468-2.7066-13.996-2.709-17.704 5.9e-4 -32.056 12.054-32.057 26.922-6.8e-4 14.869 14.352 26.923 32.057 26.924 4.2375-0.0169 8.429-0.73913 12.332-2.125 3.9075 11.579 14.947 19.108 29.278 19.115 11.985-11.087 4.6168-22.822 14.123-34.999 9.5059-12.177 25.777 2.8468 28.795 0.15016 2.3788 1.0033 6.5466 1.9966 9.2086 2.0056 8.1708-0.0181 15.925-24.565 19.369-28.143 6.1545-6.8303 15.976-13.649 16.006-23.234 6.8e-4 -14.87-19.653-26.34-37.358-26.34-2.0937 0.0214-6.2285 0.57812-6.2285 0.57812-9.4971 2.3299-37.018 21.245-48.297 21.241z" opacity=".2272"/>
   <ellipse id="ellipse32672" cx="692.2" cy="352.38" rx="17.232" ry="14.471" opacity=".2272"/>
   <ellipse id="ellipse32674" cx="525.38" cy="297.93" rx="11.082" ry="9.3069" opacity=".2272"/>
  </g>
  <g fill="#4c4232">
   <ellipse id="ellipse32678" transform="rotate(-22.685)" cx="284.6" cy="598.65" rx="9.3605" ry="5.6396" opacity=".50938"/>
   <ellipse id="ellipse32680" transform="rotate(-28.172)" cx="240.63" cy="605.11" rx="4.2174" ry="2.5409" opacity=".50938"/>
   <ellipse id="ellipse32682" transform="rotate(-28.172)" cx="160.1" cy="650.3" rx="4.8256" ry="2.9074" opacity=".57376"/>
   <ellipse id="ellipse32684" transform="rotate(-28.172)" cx="179.82" cy="612.69" rx="4.8256" ry="2.9074" opacity=".57376"/>
   <ellipse id="ellipse32686" transform="rotate(-28.172)" cx="195.79" cy="625.67" rx="4.8256" ry="2.9074" opacity=".57376"/>
   <circle id="circle32692" cx="445.21" cy="487.95" r="2.2759" opacity=".50938"/>
   <circle id="circle32694" cx="436.62" cy="493.52" r="2.2759" opacity=".51467"/>
   <circle id="circle32696" cx="450.45" cy="512.07" r="2.2759" opacity=".51467"/>
   <circle id="circle32698" cx="431.9" cy="520.84" r="2.2759" opacity=".51467"/>
   <circle id="circle32700" cx="435.37" cy="482.77" r="2.2759" opacity=".51467"/>
   <circle id="circle32702" cx="424.08" cy="513.84" r="2.2759" opacity=".51467"/>
   <circle id="circle32704" cx="500.7" cy="430.11" r="2.2759" opacity=".51467"/>
   <circle id="circle32706" cx="489.24" cy="456.42" r="2.2759" opacity=".51467"/>
   <circle id="circle32708" cx="474.99" cy="460.46" r="1.1536" opacity=".51467"/>
   <circle id="circle32710" cx="440.5" cy="495.71" r="1.1536" opacity=".51467"/>
  </g>
  <g fill="#d87870">
   <g id="g32716" transform="matrix(.50301 0 0 .50301 241.55 306.62)">
    <path id="path32712" d="m245.39 504.96c3.7449-2.1621 5.3821-0.58764 5.3821 1.589 0 1.9436-1.5553 5.3668-5.3821 7.5762-3.8268 2.2094-6.6167 0.0915-8.6798 1.3341-2.2304 1.3433-4.6835 6.0996-6.4965 7.9127-0.90651 0.9065 2.6624-4.8458 2.4569-7.1214-0.24701-2.7352-2.4569-6.5123-2.4569-6.5123s4.5881 4.6164 6.4965 3.193c2.2971-1.7133 3.8512-5.1834 8.6798-7.9712z"/>
    <ellipse id="ellipse32714" cx="248.21" cy="506.85" rx=".24267" ry=".56722" opacity=".50938"/>
   </g>
   <g id="g32722" transform="matrix(.29491 0 0 .29491 318.17 395.01)">
    <path id="path32718" d="m245.39 504.96c3.7449-2.1621 5.3821-0.58764 5.3821 1.589 0 1.9436-1.5553 5.3668-5.3821 7.5762-3.8268 2.2094-6.6167 0.0915-8.6798 1.3341-2.2304 1.3433-4.6835 6.0996-6.4965 7.9127-0.90651 0.9065 2.6624-4.8458 2.4569-7.1214-0.24701-2.7352-2.4569-6.5123-2.4569-6.5123s4.5881 4.6164 6.4965 3.193c2.2971-1.7133 3.8512-5.1834 8.6798-7.9712z"/>
    <ellipse id="ellipse32720" cx="248.21" cy="506.85" rx=".24267" ry=".56722" opacity=".50938"/>
   </g>
   <g id="g32728" transform="matrix(-.29491 0 0 -.29491 475.28 661.31)">
    <path id="path32724" d="m245.39 504.96c3.7449-2.1621 5.3821-0.58764 5.3821 1.589 0 1.9436-1.5553 5.3668-5.3821 7.5762-3.8268 2.2094-6.6167 0.0915-8.6798 1.3341-2.2304 1.3433-4.6835 6.0996-6.4965 7.9127-0.90651 0.9065 2.6624-4.8458 2.4569-7.1214-0.24701-2.7352-2.4569-6.5123-2.4569-6.5123s4.5881 4.6164 6.4965 3.193c2.2971-1.7133 3.8512-5.1834 8.6798-7.9712z"/>
    <ellipse id="ellipse32726" cx="248.21" cy="506.85" rx=".24267" ry=".56722" opacity=".50938"/>
   </g>
   <g id="g32734" transform="matrix(.50301 0 0 .50301 361.04 206.01)">
    <path id="path32730" d="m245.39 504.96c3.7449-2.1621 5.3821-0.58764 5.3821 1.589 0 1.9436-1.5553 5.3668-5.3821 7.5762-3.8268 2.2094-6.6167 0.0915-8.6798 1.3341-2.2304 1.3433-4.6835 6.0996-6.4965 7.9127-0.90651 0.9065 2.6624-4.8458 2.4569-7.1214-0.24701-2.7352-2.4569-6.5123-2.4569-6.5123s4.5881 4.6164 6.4965 3.193c2.2971-1.7133 3.8512-5.1834 8.6798-7.9712z"/>
    <ellipse id="ellipse32732" cx="248.21" cy="506.85" rx=".24267" ry=".56722" opacity=".50938"/>
   </g>
   <g id="g32740" transform="matrix(-.37057 0 0 -.37057 526.48 647.18)">
    <path id="path32736" d="m245.39 504.96c3.7449-2.1621 5.3821-0.58764 5.3821 1.589 0 1.9436-1.5553 5.3668-5.3821 7.5762-3.8268 2.2094-6.6167 0.0915-8.6798 1.3341-2.2304 1.3433-4.6835 6.0996-6.4965 7.9127-0.90651 0.9065 2.6624-4.8458 2.4569-7.1214-0.24701-2.7352-2.4569-6.5123-2.4569-6.5123s4.5881 4.6164 6.4965 3.193c2.2971-1.7133 3.8512-5.1834 8.6798-7.9712z"/>
    <ellipse id="ellipse32738" cx="248.21" cy="506.85" rx=".24267" ry=".56722" opacity=".50938"/>
   </g>
   <g id="g32746" transform="matrix(-.37057 0 0 -.37057 484.77 698.79)">
    <path id="path32742" d="m245.39 504.96c3.7449-2.1621 5.3821-0.58764 5.3821 1.589 0 1.9436-1.5553 5.3668-5.3821 7.5762-3.8268 2.2094-6.6167 0.0915-8.6798 1.3341-2.2304 1.3433-4.6835 6.0996-6.4965 7.9127-0.90651 0.9065 2.6624-4.8458 2.4569-7.1214-0.24701-2.7352-2.4569-6.5123-2.4569-6.5123s4.5881 4.6164 6.4965 3.193c2.2971-1.7133 3.8512-5.1834 8.6798-7.9712z"/>
    <ellipse id="ellipse32744" cx="248.21" cy="506.85" rx=".24267" ry=".56722" opacity=".50938"/>
   </g>
  </g>
  <circle id="circle32754" cx="419.21" cy="508.54" r="1.1536" fill="#4c4232" opacity=".51467"/>
 </g>
 <g id="base" transform="translate(-175.21 -390.31)">
  <g id="g898" transform="translate(-690.58 -85.081)">
   <path id="path870" d="m1260.5 527.58v101.8l-150.06 85.859-139.09 80.305v-21.076l38.671-19.205 29.388-11.121 21.156-18.744 21.353-15.019 28.524-19.387-0.025-24.165 21.147-5.843 21.973-12.827 14.002-31.715 20.581-10.065 50.683-68.834z" fill="#968263"/>
   <path id="path872" d="m971.36 795.54-105.34-60.621v-21.076l105.34 60.621z" fill="#6f6149" fill-opacity=".92549"/>
   <g id="g896" transform="translate(4e-4)">
    <g>
     <path id="path874" d="m1131.6 660.98 21.973-12.827 14.002-31.715 20.581-10.065 30.643-41.066 20.039-27.768 21.698-9.9592-93.707-52.189-23.821 17.16-12.365 14.398-29.505 43.242-32.852 8.7778-23.448 31.353-39.697 15.797 105.34 60.621z" fill="#75938d"/>
     <path id="path876" d="m1005.1 606.12 39.697-15.797 108.74 57.831-21.973 12.827-21.121 5.7598z" fill="#586e69"/>
     <path id="path878" d="m1044.8 590.32 23.448-31.353 99.289 57.469-14.002 31.715z" fill="#617c75"/>
     <path id="path880" d="m1068.3 558.97 99.289 57.469 20.581-10.065-87.018-56.182z" fill="#6b8981"/>
     <path id="path882" d="m1166.8 475.39-23.821 17.16 95.83 44.988 21.698-9.9592z" fill="#91a9a4"/>
    </g>
    <path id="path884" d="m1110.5 690.99-105.31-60.704-0.025-24.165 105.31 60.704 0.025 24.165" fill="#6f6148" fill-opacity=".92549"/>
    <g>
     <path id="path886" d="m1005.1 630.28 105.31 60.704-49.876 34.406-21.156 18.744-29.388 11.121-38.671 19.205-105.34-60.621 57.455-24.24 33.85-24.327z" fill="#c1b5a2"/>
     <path id="path888" d="m1110.5 666.74-139.35 80.451 0.25332 27.273 38.671-19.205 29.388-11.121 21.156-18.744 49.876-34.406v-24.248" fill="#7593ce" opacity=".6784"/>
     <path id="path890" d="m866.03 713.84 105.34 60.621-0.25332-27.273-105.29-60.788z" fill="#3f66b1" opacity=".6784"/>
     <path id="path892" d="m1005.1 606.12-139.32 80.368 105.31 60.704 139.32-80.368z" fill="#6385c7" opacity=".84934"/>
    </g>
    <path id="path894" d="m1198.1 491.92c-16.206 30.339-11.02 41.356-21.517 50.428-13.638 11.788-29.644-12.017-45.511 5.6889-13.038 14.549 16.681 41.551 0.5629 52.162-14.94 9.8352-33.694-9.0872-46.488 1.199-17.984 14.458 15.326 22.739-37.195 46.713" fill-opacity="0" stroke="#6480b5" stroke-width="23.301"/>
   </g>
  </g>
  <g id="g906" transform="matrix(.63492 0 0 .63492 2.1826 246.67)" fill="#cde9f1" fill-opacity=".75879" opacity=".82769">
   <path id="path900" d="m605.26 290.21a32.058 26.923 0 0 0-27.135 12.621 32.058 26.923 0 0 0-13.996-2.709 32.058 26.923 0 0 0-32.057 26.922 32.058 26.923 0 0 0 32.057 26.924 32.058 26.923 0 0 0 12.332-2.125 32.058 26.923 0 0 0 30.822 19.582 32.058 26.923 0 0 0 23.266-8.4824 17.232 14.471 0 0 0 7.6641 1.5391 17.232 14.471 0 0 0 16.838-11.576 32.058 26.923 0 0 0 16.006-23.234 32.058 26.923 0 0 0-32.059-26.924 32.058 26.923 0 0 0-6.2285 0.57812 32.058 26.923 0 0 0-27.51-13.115z"/>
   <ellipse id="ellipse902" cx="692.2" cy="352.38" rx="17.232" ry="14.471"/>
   <ellipse id="ellipse904" cx="525.38" cy="297.93" rx="11.082" ry="9.3069"/>
  </g>
  <g id="g916" transform="matrix(.54095 0 0 .27951 87.714 433.28)" fill="#040c0e" fill-opacity=".75879">
   <path id="path910" d="m601.36 282.22c-11.028 7e-3 -17.373 12.767-23.231 20.613-4.3614-1.7804-9.1468-2.7066-13.996-2.709-17.704 5.9e-4 -32.056 12.054-32.057 26.922-6.8e-4 14.869 14.352 26.923 32.057 26.924 4.2375-0.0169 8.429-0.73913 12.332-2.125 3.9075 11.579 14.947 19.108 29.278 19.115 11.985-11.087 4.6168-22.822 14.123-34.999 9.5059-12.177 25.777 2.8468 28.795 0.15016 2.3788 1.0033 6.5466 1.9966 9.2086 2.0056 8.1708-0.0181 15.925-24.565 19.369-28.143 6.1545-6.8303 15.976-13.649 16.006-23.234 6.8e-4 -14.87-19.653-26.34-37.358-26.34-2.0937 0.0214-6.2285 0.57812-6.2285 0.57812-9.4971 2.3299-37.018 21.245-48.297 21.241z" opacity=".2272"/>
   <ellipse id="ellipse912" cx="692.2" cy="352.38" rx="17.232" ry="14.471" opacity=".2272"/>
   <ellipse id="ellipse914" cx="525.38" cy="297.93" rx="11.082" ry="9.3069" opacity=".2272"/>
  </g>
 </g>
</svg>
