<?xml version="1.0" encoding="UTF-8" standalone="no"?>
<svg
   xmlns:dc="http://purl.org/dc/elements/1.1/"
   xmlns:cc="http://creativecommons.org/ns#"
   xmlns:rdf="http://www.w3.org/1999/02/22-rdf-syntax-ns#"
   xmlns:svg="http://www.w3.org/2000/svg"
   xmlns="http://www.w3.org/2000/svg"
   xmlns:sodipodi="http://sodipodi.sourceforge.net/DTD/sodipodi-0.dtd"
   xmlns:inkscape="http://www.inkscape.org/namespaces/inkscape"
   sodipodi:docname="longitudinal.svg"
   inkscape:version="1.0beta2 (2b71d25, 2019-12-03)"
   id="svg5"
   version="1.1"
   viewBox="0 0 394.71591 320.14965"
   height="84.706261mm"
   width="104.43525mm">
  <metadata
     id="metadata886">
    <rdf:RDF>
      <cc:Work
         rdf:about="">
        <dc:format>image/svg+xml</dc:format>
        <dc:type
           rdf:resource="http://purl.org/dc/dcmitype/StillImage" />
        <dc:title></dc:title>
      </cc:Work>
    </rdf:RDF>
  </metadata>
  <sodipodi:namedview
     inkscape:document-rotation="0"
     fit-margin-bottom="0"
     fit-margin-right="0"
     fit-margin-left="0"
     fit-margin-top="0"
     inkscape:current-layer="layer2"
     inkscape:window-maximized="1"
     inkscape:window-y="25"
     inkscape:window-x="0"
     inkscape:window-height="777"
     inkscape:window-width="1440"
     inkscape:cy="130.70019"
     inkscape:cx="519.9387"
     inkscape:zoom="0.52410025"
     showgrid="false"
     inkscape:document-units="mm"
     inkscape:pagecheckerboard="0"
     inkscape:pageopacity="0"
     inkscape:pageshadow="0"
     borderopacity="1"
     bordercolor="#eeeeee"
     pagecolor="#ffffff"
     id="namedview7" />
  <defs
     id="defs2" />
  <g
     transform="translate(-175.21346,-390.30887)"
     style="display:inline"
     id="layer1"
     inkscape:groupmode="layer"
     inkscape:label="Layer 1">
    <g
       id="g180957">
      <g
         transform="translate(-140.14464,-324.94002)"
         id="g180237">
        <path
           sodipodi:nodetypes="cccccccccc"
           id="path17469-0"
           d="m 710.07401,767.43821 v 101.7965 l -150.05804,85.859 -139.09204,80.30479 v -21.0763 l 38.67146,-19.20521 29.38846,-11.12129 21.15567,-18.7437 21.3529,-15.01862 28.52355,-19.38742 -0.0254,-24.1646 21.14667,-5.84299 21.97334,-12.82726 14.00189,-31.71529 20.58121,-10.06454 50.68262,-68.83384 z"
           style="fill:#968263;fill-opacity:1;stroke:none;stroke-width:0.650686px;stroke-linecap:butt;stroke-linejoin:miter;stroke-opacity:1" />
        <path
           sodipodi:nodetypes="cccccccccccccccc"
           id="path17467-4"
           d="m 581.13728,900.83837 21.97334,-12.82726 14.00189,-31.71529 20.58121,-10.06454 30.6433,-41.06593 20.03932,-27.76791 21.69767,-9.95923 -93.70725,-52.18932 -23.82088,17.16023 -12.36527,14.39816 -29.50524,43.24188 -32.85189,8.77777 -23.44823,31.35327 -39.69715,15.79674 105.33787,60.62127 z"
           style="fill:#75938d;fill-opacity:1;stroke:none;stroke-width:0.650686px;stroke-linecap:butt;stroke-linejoin:miter;stroke-opacity:1" />
        <path
           sodipodi:nodetypes="cccc"
           id="path913-6-4"
           d="M 420.92393,1035.3985 315.58606,974.77727 v -21.07636 l 105.33787,60.62129 z"
           style="fill:#6f6149;fill-opacity:0.92549;stroke:none;stroke-width:0.650686px;stroke-linecap:butt;stroke-linejoin:miter;stroke-opacity:1" />
        <path
           id="path45136-4"
           d="m 454.6781,845.97694 39.69715,-15.79674 108.73533,57.83091 -21.9733,12.82726 -21.12131,5.75984 z"
           style="fill:#586e69;fill-opacity:1;stroke:none;stroke-width:1px;stroke-linecap:butt;stroke-linejoin:miter;stroke-opacity:1" />
        <path
           id="path58389-4"
           d="m 494.37525,830.1802 23.44823,-31.35327 99.28903,57.46889 -14.00189,31.71529 z"
           style="fill:#617c75;fill-opacity:1;stroke:none;stroke-width:1px;stroke-linecap:butt;stroke-linejoin:miter;stroke-opacity:1" />
        <path
           id="path74952-7"
           d="m 517.82348,798.82693 99.28903,57.46889 20.58121,-10.06454 -87.01835,-56.18212 z"
           style="fill:#6b8981;fill-opacity:1;stroke:none;stroke-width:1px;stroke-linecap:butt;stroke-linejoin:miter;stroke-opacity:1" />
        <path
           id="path84576-6"
           d="m 616.36676,715.24889 -23.82088,17.16023 95.83046,44.98832 21.69767,-9.95923 z"
           style="fill:#91a9a4;fill-opacity:1;stroke:none;stroke-width:1px;stroke-linecap:butt;stroke-linejoin:miter;stroke-opacity:1" />
        <path
           sodipodi:nodetypes="ccccc"
           id="path95729-1-3"
           d="m 560.01597,930.84596 -105.31247,-60.70442 -0.0254,-24.1646 105.31247,60.70442 0.0254,24.1646"
           style="fill:#6f6148;fill-opacity:0.92549;stroke:none;stroke-width:1px;stroke-linecap:butt;stroke-linejoin:miter;stroke-opacity:1" />
        <path
           id="path102139-1"
           d="m 454.7035,870.14154 105.31247,60.70442 -49.87645,34.40604 -21.15567,18.7437 -29.38846,11.12129 -38.67146,19.20521 -105.33787,-60.62129 57.45484,-24.24017 33.85036,-24.3273 z"
           style="fill:#c1b5a2;fill-opacity:1;stroke:none;stroke-width:1px;stroke-linecap:butt;stroke-linejoin:miter;stroke-opacity:1" />
        <path
           sodipodi:nodetypes="cccccccc"
           id="path4323-7"
           d="m 560.01597,906.59821 -139.34536,80.45108 0.25332,27.27291 38.67146,-19.20521 29.38846,-11.12129 21.15567,-18.7437 49.87645,-34.40604 v -24.24775"
           style="opacity:0.678403;fill:#7593ce;fill-opacity:1;stroke:none;stroke-width:1px;stroke-linecap:butt;stroke-linejoin:miter;stroke-opacity:1" />
        <path
           sodipodi:nodetypes="ccccc"
           id="path4457-5"
           d="m 315.58606,953.70091 105.33787,60.62129 -0.25332,-27.27291 -105.28715,-60.78757 z"
           style="opacity:0.678403;fill:#3f66b1;fill-opacity:1;stroke:none;stroke-width:1px;stroke-linecap:butt;stroke-linejoin:miter;stroke-opacity:1" />
        <path
           sodipodi:nodetypes="ccccc"
           id="path4525-8-9"
           d="m 454.6781,845.97694 -139.32,80.36793 105.31251,60.70442 139.32,-80.36793 z"
           style="opacity:0.84934;fill:#6385c7;fill-opacity:1;stroke:none;stroke-width:1px;stroke-linecap:butt;stroke-linejoin:miter;stroke-opacity:1" />
        <path
           sodipodi:nodetypes="cssssc"
           id="path4837-6"
           d="m 647.64202,731.77495 c -16.20556,30.33914 -11.02,41.3555 -21.51651,50.42785 -13.63798,11.7876 -29.6444,-12.01701 -45.51138,5.68894 -13.03783,14.54891 16.68128,41.55088 0.56295,52.16168 -14.94009,9.83516 -33.69365,-9.08716 -46.4883,1.19902 -17.98415,14.45824 15.32639,22.73872 -37.19488,46.7132"
           style="fill:#000000;fill-opacity:0;stroke:#6480b5;stroke-width:18.7654;stroke-linecap:butt;stroke-linejoin:miter;stroke-miterlimit:4;stroke-dasharray:none;stroke-opacity:1" />
        <path
           sodipodi:nodetypes="cccccccccc"
           id="path4837-8"
           d="m 639.85452,750.16497 c -1.95677,5.44098 -3.15586,9.94583 -4.17655,13.7861 m -8.61736,17.23888 c -6.81899,5.8938 -14.23009,2.88954 -21.91982,0.62509 m -23.59156,5.06385 c -6.51892,7.27445 -2.3486,17.66217 1.43666,27.55763 m -0.87371,24.60405 c -7.47005,4.91758 -15.89346,2.64579 -24.04869,0.43038 m -22.43961,0.76864 c -8.99207,7.22912 -5.16048,12.9138 -5.64602,19.78801"
           style="fill:#000000;fill-opacity:0;stroke:#d0d8e9;stroke-width:7.42677;stroke-linecap:round;stroke-linejoin:miter;stroke-miterlimit:4;stroke-dasharray:none;stroke-opacity:1" />
      </g>
      <path
         d="m 386.47463,430.92986 a 20.354211,17.093815 0 0 0 -17.22841,8.01338 20.354211,17.093815 0 0 0 -8.8864,-1.71999 20.354211,17.093815 0 0 0 -20.35341,17.09325 20.354211,17.093815 0 0 0 20.35341,17.09447 20.354211,17.093815 0 0 0 7.82985,-1.3492 20.354211,17.093815 0 0 0 19.56967,12.43302 20.354211,17.093815 0 0 0 14.77182,-5.38566 10.94074,9.1882201 0 0 0 4.86606,0.97719 10.94074,9.1882201 0 0 0 10.69072,-7.34995 20.354211,17.093815 0 0 0 10.16244,-14.75197 20.354211,17.093815 0 0 0 -20.35464,-17.09448 20.354211,17.093815 0 0 0 -3.95461,0.36706 20.354211,17.093815 0 0 0 -17.4665,-8.32712 z"
         style="display:inline;opacity:0.827691;fill:#cde9f1;fill-opacity:0.758791;stroke:none;stroke-width:14.0541;stroke-miterlimit:4;stroke-dasharray:none;stroke-opacity:1"
         id="path180376" />
      <ellipse
         ry="9.18822"
         rx="10.94074"
         cy="470.40045"
         cx="441.67593"
         id="ellipse180378"
         style="display:inline;opacity:0.827691;fill:#cde9f1;fill-opacity:0.758791;stroke:none;stroke-width:7.55434;stroke-miterlimit:4;stroke-dasharray:none;stroke-opacity:1" />
      <ellipse
         ry="5.9091234"
         rx="7.0362024"
         cy="435.83188"
         cx="335.755"
         id="ellipse180380"
         style="display:inline;opacity:0.827691;fill:#cde9f1;fill-opacity:0.758791;stroke:none;stroke-width:4.85835;stroke-miterlimit:4;stroke-dasharray:none;stroke-opacity:1" />
      <path
         sodipodi:nodetypes="cccscccsccccccc"
         d="m 413.01715,512.16071 c -5.96541,0.002 -9.39781,3.56839 -12.56671,5.76155 -2.35927,-0.49763 -4.94795,-0.75652 -7.57116,-0.75718 -9.57704,1.6e-4 -17.34066,3.36907 -17.34098,7.52486 -3.7e-4,4.15601 7.76345,7.52524 17.34098,7.52541 2.29227,-0.005 4.55965,-0.20659 6.67099,-0.59396 2.11373,3.23652 8.08545,5.34072 15.83774,5.34293 6.48329,-3.09889 2.49746,-6.37889 7.63964,-9.78244 5.14217,-3.40355 13.944,0.79569 15.57685,0.042 1.28682,0.28043 3.54138,0.55807 4.98136,0.56058 4.42,-0.005 8.61475,-6.86597 10.47743,-7.86606 3.32925,-1.90911 8.64222,-3.81496 8.65834,-6.49418 3.7e-4,-4.15618 -10.63103,-7.36228 -20.20897,-7.36219 -1.13257,0.006 -3.3693,0.16159 -3.3693,0.16159 -5.13743,0.65122 -20.02506,5.93803 -26.12621,5.93712 z"
         style="display:inline;opacity:0.227198;fill:#040c0e;fill-opacity:0.758791;stroke:none;stroke-width:8.60716;stroke-miterlimit:4;stroke-dasharray:none;stroke-opacity:1"
         id="path180382" />
      <ellipse
         ry="4.0448794"
         rx="9.3214445"
         cy="531.77051"
         cx="462.16013"
         id="ellipse180384"
         style="display:inline;opacity:0.227198;fill:#040c0e;fill-opacity:0.758791;stroke:none;stroke-width:4.62649;stroke-miterlimit:4;stroke-dasharray:none;stroke-opacity:1" />
      <ellipse
         ry="2.6013408"
         rx="5.994802"
         cy="516.55255"
         cx="371.91611"
         id="ellipse180386"
         style="display:inline;opacity:0.227198;fill:#040c0e;fill-opacity:0.758791;stroke:none;stroke-width:2.97539;stroke-miterlimit:4;stroke-dasharray:none;stroke-opacity:1" />
    </g>
  </g>
  <g
     transform="translate(-175.21346,-390.30887)"
     style="display:inline"
     inkscape:label="Layer 2"
     id="layer2"
     inkscape:groupmode="layer">
    <g
       transform="translate(-690.58467,-85.08119)"
       id="g179950">
      <g
         id="g158152">
        <path
           sodipodi:nodetypes="cccccccccc"
           id="path17469-0-9"
           d="m 1260.5136,527.57938 v 101.7965 l -150.058,85.859 -139.09204,80.30483 v -21.07636 l 38.67144,-19.20519 29.3885,-11.12129 21.1557,-18.7437 21.3528,-15.01862 28.5236,-19.38742 -0.025,-24.1646 21.1467,-5.84299 21.9733,-12.82726 14.0019,-31.71529 20.5812,-10.06454 50.6826,-68.83384 z"
           style="fill:#968263;fill-opacity:1;stroke:none;stroke-width:0.650686px;stroke-linecap:butt;stroke-linejoin:miter;stroke-opacity:1" />
        <path
           sodipodi:nodetypes="cccc"
           id="path913-6-4-5"
           d="M 971.36356,795.53971 866.02569,734.91844 v -21.07636 l 105.33787,60.62127 z"
           style="fill:#6f6149;fill-opacity:0.92549;stroke:none;stroke-width:0.650686px;stroke-linecap:butt;stroke-linejoin:miter;stroke-opacity:1" />
        <g
           transform="translate(4e-4)"
           id="g158136">
          <path
             sodipodi:nodetypes="cccccccccccccccc"
             id="path17467-4-7"
             d="m 1131.5769,660.97954 21.9734,-12.82726 14.0018,-31.71529 20.5813,-10.06454 30.6433,-41.06593 20.0393,-27.76791 21.6976,-9.95923 -93.7072,-52.18932 -23.8209,17.16023 -12.3653,14.39816 -29.5052,43.24188 -32.8519,8.77777 -23.4482,31.35327 -39.6972,15.79674 105.3379,60.62127 z"
             style="fill:#75938d;fill-opacity:1;stroke:none;stroke-width:0.650686px;stroke-linecap:butt;stroke-linejoin:miter;stroke-opacity:1" />
          <path
             id="path45136-4-3"
             d="m 1005.1177,606.11811 39.6972,-15.79674 108.7353,57.83091 -21.9733,12.82726 -21.1213,5.75984 z"
             style="fill:#586e69;fill-opacity:1;stroke:none;stroke-width:1px;stroke-linecap:butt;stroke-linejoin:miter;stroke-opacity:1" />
          <path
             id="path58389-4-8"
             d="m 1044.8149,590.32137 23.4482,-31.35327 99.289,57.46889 -14.0018,31.71529 z"
             style="fill:#617c75;fill-opacity:1;stroke:none;stroke-width:1px;stroke-linecap:butt;stroke-linejoin:miter;stroke-opacity:1" />
          <path
             id="path74952-7-8"
             d="m 1068.2631,558.9681 99.289,57.46889 20.5813,-10.06454 -87.0184,-56.18212 z"
             style="fill:#6b8981;fill-opacity:1;stroke:none;stroke-width:1px;stroke-linecap:butt;stroke-linejoin:miter;stroke-opacity:1" />
          <path
             id="path84576-6-3"
             d="m 1166.8064,475.39006 -23.8209,17.16023 95.8305,44.98832 21.6976,-9.95923 z"
             style="fill:#91a9a4;fill-opacity:1;stroke:none;stroke-width:1px;stroke-linecap:butt;stroke-linejoin:miter;stroke-opacity:1" />
          <path
             sodipodi:nodetypes="ccccc"
             id="path95729-1-3-1"
             d="m 1110.4556,690.98713 -105.3125,-60.70442 -0.025,-24.1646 105.3125,60.70442 0.025,24.1646"
             style="fill:#6f6148;fill-opacity:0.92549;stroke:none;stroke-width:1px;stroke-linecap:butt;stroke-linejoin:miter;stroke-opacity:1" />
          <path
             id="path102139-1-8"
             d="m 1005.1431,630.28271 105.3125,60.70442 -49.8764,34.40604 -21.1557,18.7437 -29.3885,11.12129 -38.67144,19.20519 -105.33787,-60.62127 57.45484,-24.24017 33.85036,-24.3273 z"
             style="fill:#c1b5a2;fill-opacity:1;stroke:none;stroke-width:1px;stroke-linecap:butt;stroke-linejoin:miter;stroke-opacity:1" />
          <path
             sodipodi:nodetypes="cccccccc"
             id="path4323-7-9"
             d="m 1110.4556,666.73938 -139.34536,80.45108 0.25332,27.27289 38.67144,-19.20519 29.3885,-11.12129 21.1557,-18.7437 49.8764,-34.40604 v -24.24775"
             style="opacity:0.678403;fill:#7593ce;fill-opacity:1;stroke:none;stroke-width:1px;stroke-linecap:butt;stroke-linejoin:miter;stroke-opacity:1" />
          <path
             sodipodi:nodetypes="ccccc"
             id="path4457-5-6"
             d="m 866.02569,713.84208 105.33787,60.62127 -0.25332,-27.27289 -105.28715,-60.78757 z"
             style="opacity:0.678403;fill:#3f66b1;fill-opacity:1;stroke:none;stroke-width:1px;stroke-linecap:butt;stroke-linejoin:miter;stroke-opacity:1" />
          <path
             sodipodi:nodetypes="ccccc"
             id="path4525-8-9-4"
             d="m 1005.1177,606.11811 -139.31997,80.36793 105.31251,60.70442 139.31996,-80.36793 z"
             style="opacity:0.84934;fill:#6385c7;fill-opacity:1;stroke:none;stroke-width:1px;stroke-linecap:butt;stroke-linejoin:miter;stroke-opacity:1" />
          <path
             sodipodi:nodetypes="cssssc"
             id="path4837-6-3"
             d="m 1198.0817,491.91612 c -16.2056,30.33914 -11.02,41.3555 -21.5166,50.42785 -13.6379,11.7876 -29.6444,-12.01701 -45.5113,5.68894 -13.0379,14.54891 16.6812,41.55088 0.5629,52.16168 -14.9401,9.83516 -33.6936,-9.08716 -46.4883,1.19902 -17.9841,14.45824 15.3264,22.73872 -37.1949,46.7132"
             style="fill:#000000;fill-opacity:0;stroke:#6480b5;stroke-width:18.7654;stroke-linecap:butt;stroke-linejoin:miter;stroke-miterlimit:4;stroke-dasharray:none;stroke-opacity:1" />
        </g>
      </g>
      <g
         style="opacity:0.827691;fill:#cde9f1;fill-opacity:0.758791"
         transform="matrix(0.6349201,0,0,0.6349201,692.76727,331.74906)"
         id="g151741-5-0">
        <path
           d="m 605.25977,290.21289 a 32.05791,26.922782 0 0 0 -27.13477,12.62109 32.05791,26.922782 0 0 0 -13.99609,-2.70898 32.05791,26.922782 0 0 0 -32.05664,26.92188 32.05791,26.922782 0 0 0 32.05664,26.92382 32.05791,26.922782 0 0 0 12.33203,-2.125 32.05791,26.922782 0 0 0 30.82226,19.58203 32.05791,26.922782 0 0 0 23.26563,-8.48242 17.23168,14.471459 0 0 0 7.66406,1.53907 17.23168,14.471459 0 0 0 16.83789,-11.57618 32.05791,26.922782 0 0 0 16.00586,-23.23437 32.05791,26.922782 0 0 0 -32.05859,-26.92383 32.05791,26.922782 0 0 0 -6.22852,0.57812 32.05791,26.922782 0 0 0 -27.50976,-13.11523 z"
           style="fill:#cde9f1;fill-opacity:0.758791;stroke:none;stroke-width:22.1353;stroke-miterlimit:4;stroke-dasharray:none;stroke-opacity:1"
           id="path93689-7-4" />
        <ellipse
           ry="14.471459"
           rx="17.23168"
           cy="352.37912"
           cx="692.2019"
           id="path93689-5-5-9-4-8"
           style="fill:#cde9f1;fill-opacity:0.758791;stroke:none;stroke-width:11.8981;stroke-miterlimit:4;stroke-dasharray:none;stroke-opacity:1" />
        <ellipse
           ry="9.3068771"
           rx="11.082028"
           cy="297.93359"
           cx="525.37628"
           id="path93689-5-5-8-1-8"
           style="fill:#cde9f1;fill-opacity:0.758791;stroke:none;stroke-width:7.6519;stroke-miterlimit:4;stroke-dasharray:none;stroke-opacity:1" />
      </g>
      <path
         sodipodi:nodetypes="csccccccccc"
         id="path155805"
         d="m 1189.3924,511.93594 c -1.9566,5.44098 -3.1558,9.94584 -4.1765,13.7861 -2.0414,7.68053 -3.369,12.7027 -8.6174,17.23888 m -21.9198,0.62509 c -7.6896,-2.26446 -15.6581,-3.78913 -23.5916,5.06385 m 1.4367,27.55763 c 3.7853,9.89546 7.1855,19.29865 -0.8737,24.60405 m -24.0487,0.43038 c -8.1552,-2.21542 -16.0423,-4.37445 -22.4396,0.76864 m -5.646,19.78801 c -0.2428,3.43711 -1.5648,7.17159 -6.1088,11.54521"
         style="fill:#000000;fill-opacity:0;stroke:#bcc9df;stroke-width:7.42677;stroke-linecap:round;stroke-linejoin:miter;stroke-miterlimit:4;stroke-dasharray:none;stroke-opacity:1" />
      <g
         style="fill:#cde9f1;fill-opacity:0.758791"
         transform="matrix(0.54094809,0,0,0.27950737,778.29907,518.35914)"
         id="g151741-4-2-3">
        <path
           sodipodi:nodetypes="cccscccsccccccc"
           d="m 601.35591,282.22074 c -11.02771,0.007 -17.37286,12.76673 -23.23091,20.61324 -4.36135,-1.78038 -9.14681,-2.70661 -13.99609,-2.70898 -17.70418,5.9e-4 -32.05605,12.05361 -32.05664,26.92188 -6.8e-4,14.86903 14.35156,26.92323 32.05664,26.92382 4.23751,-0.0169 8.42899,-0.73913 12.33203,-2.125 3.90746,11.57934 14.94682,19.10761 29.27774,19.11549 11.98505,-11.08695 4.61683,-22.82189 14.12269,-34.99885 9.50586,-12.17695 25.77697,2.84678 28.79546,0.15016 2.37884,1.00329 6.54663,1.99663 9.20858,2.00561 8.17084,-0.0181 15.92529,-24.56456 19.36865,-28.14259 6.15446,-6.83029 15.97606,-13.64889 16.00586,-23.23437 6.8e-4,-14.86967 -19.65259,-26.34021 -37.35843,-26.3399 -2.09368,0.0214 -6.22852,0.57812 -6.22852,0.57812 -9.49708,2.32988 -37.01845,21.24465 -48.29706,21.24137 z"
           style="opacity:0.227198;fill:#040c0e;fill-opacity:0.758791;stroke:none;stroke-width:22.1353;stroke-miterlimit:4;stroke-dasharray:none;stroke-opacity:1"
           id="path93689-8-1-3" />
        <ellipse
           ry="14.471459"
           rx="17.23168"
           cy="352.37912"
           cx="692.2019"
           id="path93689-5-5-9-1-7-8"
           style="opacity:0.227198;fill:#040c0e;fill-opacity:0.758791;stroke:none;stroke-width:11.8981;stroke-miterlimit:4;stroke-dasharray:none;stroke-opacity:1" />
        <ellipse
           ry="9.3068771"
           rx="11.082028"
           cy="297.93359"
           cx="525.37628"
           id="path93689-5-5-8-0-8-6"
           style="opacity:0.227198;fill:#040c0e;fill-opacity:0.758791;stroke:none;stroke-width:7.6519;stroke-miterlimit:4;stroke-dasharray:none;stroke-opacity:1" />
      </g>
      <path
         id="path167972"
         d="m 1037.406,638.54761 33.5717,19.38258 h -45.6004 z"
         style="fill:#bcc9df;fill-opacity:1;stroke:none;stroke-width:1px;stroke-linecap:butt;stroke-linejoin:miter;stroke-opacity:1" />
    </g>
  </g>
</svg>
