<?xml version="1.0" encoding="UTF-8" standalone="no"?>
<!-- Created with Inkscape (http://www.inkscape.org/) -->

<svg
   width="104.43525mm"
   height="84.706261mm"
   viewBox="0 0 394.71591 320.14965"
   version="1.1"
   id="svg5"
   inkscape:version="1.1.2 (0a00cf5339, 2022-02-04)"
   sodipodi:docname="straripare.svg"
   xmlns:inkscape="http://www.inkscape.org/namespaces/inkscape"
   xmlns:sodipodi="http://sodipodi.sourceforge.net/DTD/sodipodi-0.dtd"
   xmlns="http://www.w3.org/2000/svg"
   xmlns:svg="http://www.w3.org/2000/svg">
  <sodipodi:namedview
     id="namedview7"
     pagecolor="#505050"
     bordercolor="#eeeeee"
     borderopacity="1"
     inkscape:pageshadow="0"
     inkscape:pageopacity="0"
     inkscape:pagecheckerboard="0"
     inkscape:document-units="mm"
     showgrid="false"
     inkscape:zoom="1.0482005"
     inkscape:cx="342.01472"
     inkscape:cy="131.17719"
     inkscape:window-width="1920"
     inkscape:window-height="1017"
     inkscape:window-x="0"
     inkscape:window-y="0"
     inkscape:window-maximized="1"
     inkscape:current-layer="layer2"
     fit-margin-top="0"
     fit-margin-left="0"
     fit-margin-right="0"
     fit-margin-bottom="0" />
  <defs
     id="defs2" />
  <g
     inkscape:label="Layer 1"
     inkscape:groupmode="layer"
     id="layer1"
     style="display:inline"
     transform="translate(-175.21346,-390.30887)">
    <g
       id="g180957">
      <g
         id="g180237"
         transform="translate(-140.14464,-324.94002)">
        <path
           style="fill:#968263;fill-opacity:1;stroke:none;stroke-width:0.650686px;stroke-linecap:butt;stroke-linejoin:miter;stroke-opacity:1"
           d="m 710.07401,767.43821 v 101.7965 l -150.05804,85.859 -139.09204,80.30479 v -21.0763 l 38.67146,-19.20521 29.38846,-11.12129 21.15567,-18.7437 21.3529,-15.01862 28.52355,-19.38742 -0.0254,-24.1646 21.14667,-5.84299 21.97334,-12.82726 14.00189,-31.71529 20.58121,-10.06454 50.68262,-68.83384 z"
           id="path17469-0"
           sodipodi:nodetypes="cccccccccc" />
        <path
           style="fill:#75938d;fill-opacity:1;stroke:none;stroke-width:0.650686px;stroke-linecap:butt;stroke-linejoin:miter;stroke-opacity:1"
           d="m 581.13728,900.83837 21.97334,-12.82726 14.00189,-31.71529 20.58121,-10.06454 30.6433,-41.06593 20.03932,-27.76791 21.69767,-9.95923 -93.70725,-52.18932 -23.82088,17.16023 -12.36527,14.39816 -29.50524,43.24188 -32.85189,8.77777 -23.44823,31.35327 -39.69715,15.79674 105.33787,60.62127 z"
           id="path17467-4"
           sodipodi:nodetypes="cccccccccccccccc" />
        <path
           style="fill:#6f6149;fill-opacity:0.92549;stroke:none;stroke-width:0.650686px;stroke-linecap:butt;stroke-linejoin:miter;stroke-opacity:1"
           d="M 420.92393,1035.3985 315.58606,974.77727 v -21.07636 l 105.33787,60.62129 z"
           id="path913-6-4"
           sodipodi:nodetypes="cccc" />
        <path
           style="fill:#586e69;fill-opacity:1;stroke:none;stroke-width:1px;stroke-linecap:butt;stroke-linejoin:miter;stroke-opacity:1"
           d="m 454.6781,845.97694 39.69715,-15.79674 108.73533,57.83091 -21.9733,12.82726 -21.12131,5.75984 z"
           id="path45136-4" />
        <path
           style="fill:#617c75;fill-opacity:1;stroke:none;stroke-width:1px;stroke-linecap:butt;stroke-linejoin:miter;stroke-opacity:1"
           d="m 494.37525,830.1802 23.44823,-31.35327 99.28903,57.46889 -14.00189,31.71529 z"
           id="path58389-4" />
        <path
           style="fill:#6b8981;fill-opacity:1;stroke:none;stroke-width:1px;stroke-linecap:butt;stroke-linejoin:miter;stroke-opacity:1"
           d="m 517.82348,798.82693 99.28903,57.46889 20.58121,-10.06454 -87.01835,-56.18212 z"
           id="path74952-7" />
        <path
           style="fill:#91a9a4;fill-opacity:1;stroke:none;stroke-width:1px;stroke-linecap:butt;stroke-linejoin:miter;stroke-opacity:1"
           d="m 616.36676,715.24889 -23.82088,17.16023 95.83046,44.98832 21.69767,-9.95923 z"
           id="path84576-6" />
        <path
           style="fill:#6f6148;fill-opacity:0.92549;stroke:none;stroke-width:1px;stroke-linecap:butt;stroke-linejoin:miter;stroke-opacity:1"
           d="m 560.01597,930.84596 -105.31247,-60.70442 -0.0254,-24.1646 105.31247,60.70442 0.0254,24.1646"
           id="path95729-1-3"
           sodipodi:nodetypes="ccccc" />
        <path
           style="fill:#c1b5a2;fill-opacity:1;stroke:none;stroke-width:1px;stroke-linecap:butt;stroke-linejoin:miter;stroke-opacity:1"
           d="m 454.7035,870.14154 105.31247,60.70442 -49.87645,34.40604 -21.15567,18.7437 -29.38846,11.12129 -38.67146,19.20521 -105.33787,-60.62129 57.45484,-24.24017 33.85036,-24.3273 z"
           id="path102139-1" />
        <path
           style="opacity:0.678403;fill:#7593ce;fill-opacity:1;stroke:none;stroke-width:1px;stroke-linecap:butt;stroke-linejoin:miter;stroke-opacity:1"
           d="m 560.01597,906.59821 -139.34536,80.45108 0.25332,27.27291 38.67146,-19.20521 29.38846,-11.12129 21.15567,-18.7437 49.87645,-34.40604 v -24.24775"
           id="path4323-7"
           sodipodi:nodetypes="cccccccc" />
        <path
           style="opacity:0.678403;fill:#3f66b1;fill-opacity:1;stroke:none;stroke-width:1px;stroke-linecap:butt;stroke-linejoin:miter;stroke-opacity:1"
           d="m 315.58606,953.70091 105.33787,60.62129 -0.25332,-27.27291 -105.28715,-60.78757 z"
           id="path4457-5"
           sodipodi:nodetypes="ccccc" />
        <path
           style="opacity:0.84934;fill:#6385c7;fill-opacity:1;stroke:none;stroke-width:1px;stroke-linecap:butt;stroke-linejoin:miter;stroke-opacity:1"
           d="m 454.6781,845.97694 -139.32,80.36793 105.31251,60.70442 139.32,-80.36793 z"
           id="path4525-8-9"
           sodipodi:nodetypes="ccccc" />
        <path
           style="fill:#000000;fill-opacity:0;stroke:#6480b5;stroke-width:18.7654;stroke-linecap:butt;stroke-linejoin:miter;stroke-miterlimit:4;stroke-dasharray:none;stroke-opacity:1"
           d="m 647.64202,731.77495 c -16.20556,30.33914 -11.02,41.3555 -21.51651,50.42785 -13.63798,11.7876 -29.6444,-12.01701 -45.51138,5.68894 -13.03783,14.54891 16.68128,41.55088 0.56295,52.16168 -14.94009,9.83516 -33.69365,-9.08716 -46.4883,1.19902 -17.98415,14.45824 15.32639,22.73872 -37.19488,46.7132"
           id="path4837-6"
           sodipodi:nodetypes="cssssc" />
      </g>
      <path
         id="path180376"
         style="display:inline;opacity:0.827691;fill:#cde9f1;fill-opacity:0.758791;stroke:none;stroke-width:14.0541;stroke-miterlimit:4;stroke-dasharray:none;stroke-opacity:1"
         d="m 386.47463,430.92986 a 20.354211,17.093815 0 0 0 -17.22841,8.01338 20.354211,17.093815 0 0 0 -8.8864,-1.71999 20.354211,17.093815 0 0 0 -20.35341,17.09325 20.354211,17.093815 0 0 0 20.35341,17.09447 20.354211,17.093815 0 0 0 7.82985,-1.3492 20.354211,17.093815 0 0 0 19.56967,12.43302 20.354211,17.093815 0 0 0 14.77182,-5.38566 10.94074,9.1882201 0 0 0 4.86606,0.97719 10.94074,9.1882201 0 0 0 10.69072,-7.34995 20.354211,17.093815 0 0 0 10.16244,-14.75197 20.354211,17.093815 0 0 0 -20.35464,-17.09448 20.354211,17.093815 0 0 0 -3.95461,0.36706 20.354211,17.093815 0 0 0 -17.4665,-8.32712 z" />
      <ellipse
         style="display:inline;opacity:0.827691;fill:#cde9f1;fill-opacity:0.758791;stroke:none;stroke-width:7.55434;stroke-miterlimit:4;stroke-dasharray:none;stroke-opacity:1"
         id="ellipse180378"
         cx="441.67593"
         cy="470.40045"
         rx="10.94074"
         ry="9.18822" />
      <ellipse
         style="display:inline;opacity:0.827691;fill:#cde9f1;fill-opacity:0.758791;stroke:none;stroke-width:4.85835;stroke-miterlimit:4;stroke-dasharray:none;stroke-opacity:1"
         id="ellipse180380"
         cx="335.755"
         cy="435.83188"
         rx="7.0362024"
         ry="5.9091234" />
      <path
         id="path180382"
         style="display:inline;opacity:0.227198;fill:#040c0e;fill-opacity:0.758791;stroke:none;stroke-width:8.60716;stroke-miterlimit:4;stroke-dasharray:none;stroke-opacity:1"
         d="m 413.01715,512.16071 c -5.96541,0.002 -9.39781,3.56839 -12.56671,5.76155 -2.35927,-0.49763 -4.94795,-0.75652 -7.57116,-0.75718 -9.57704,1.6e-4 -17.34066,3.36907 -17.34098,7.52486 -3.7e-4,4.15601 7.76345,7.52524 17.34098,7.52541 2.29227,-0.005 4.55965,-0.20659 6.67099,-0.59396 2.11373,3.23652 8.08545,5.34072 15.83774,5.34293 6.48329,-3.09889 2.49746,-6.37889 7.63964,-9.78244 5.14217,-3.40355 13.944,0.79569 15.57685,0.042 1.28682,0.28043 3.54138,0.55807 4.98136,0.56058 4.42,-0.005 8.61475,-6.86597 10.47743,-7.86606 3.32925,-1.90911 8.64222,-3.81496 8.65834,-6.49418 3.7e-4,-4.15618 -10.63103,-7.36228 -20.20897,-7.36219 -1.13257,0.006 -3.3693,0.16159 -3.3693,0.16159 -5.13743,0.65122 -20.02506,5.93803 -26.12621,5.93712 z"
         sodipodi:nodetypes="cccscccsccccccc" />
      <ellipse
         style="display:inline;opacity:0.227198;fill:#040c0e;fill-opacity:0.758791;stroke:none;stroke-width:4.62649;stroke-miterlimit:4;stroke-dasharray:none;stroke-opacity:1"
         id="ellipse180384"
         cx="462.16013"
         cy="531.77051"
         rx="9.3214445"
         ry="4.0448794" />
      <ellipse
         style="display:inline;opacity:0.227198;fill:#040c0e;fill-opacity:0.758791;stroke:none;stroke-width:2.97539;stroke-miterlimit:4;stroke-dasharray:none;stroke-opacity:1"
         id="ellipse180386"
         cx="371.91611"
         cy="516.55255"
         rx="5.994802"
         ry="2.6013408" />
    </g>
  </g>
  <g
     inkscape:groupmode="layer"
     id="layer2"
     inkscape:label="Layer 2"
     style="display:inline"
     transform="translate(-175.21346,-390.30887)">
    <g
       id="g179950"
       transform="translate(-690.58462,-85.08119)">
      <g
         id="g158152">
        <path
           style="fill:#968263;fill-opacity:1;stroke:none;stroke-width:0.650686px;stroke-linecap:butt;stroke-linejoin:miter;stroke-opacity:1"
           d="m 1260.5136,527.57938 v 101.7965 l -150.058,85.859 -139.09204,80.30483 v -21.07636 l 38.67144,-19.20519 29.3885,-11.12129 21.1557,-18.7437 21.3528,-15.01862 28.5236,-19.38742 -0.025,-24.1646 21.1467,-5.84299 21.9733,-12.82726 14.0019,-31.71529 20.5812,-10.06454 50.6826,-68.83384 z"
           id="path17469-0-9"
           sodipodi:nodetypes="cccccccccc" />
        <path
           style="fill:#6f6149;fill-opacity:0.92549;stroke:none;stroke-width:0.650686px;stroke-linecap:butt;stroke-linejoin:miter;stroke-opacity:1"
           d="M 971.36356,795.53971 866.02569,734.91844 v -21.07636 l 105.33787,60.62127 z"
           id="path913-6-4-5"
           sodipodi:nodetypes="cccc" />
        <g
           id="g158136"
           transform="translate(4e-4)">
          <path
             style="fill:#75938d;fill-opacity:1;stroke:none;stroke-width:0.650686px;stroke-linecap:butt;stroke-linejoin:miter;stroke-opacity:1"
             d="m 1131.5769,660.97954 21.9734,-12.82726 14.0018,-31.71529 20.5813,-10.06454 30.6433,-41.06593 20.0393,-27.76791 21.6976,-9.95923 -93.7072,-52.18932 -23.8209,17.16023 -12.3653,14.39816 -29.5052,43.24188 -32.8519,8.77777 -23.4482,31.35327 -39.6972,15.79674 105.3379,60.62127 z"
             id="path17467-4-7"
             sodipodi:nodetypes="cccccccccccccccc" />
          <path
             style="fill:#586e69;fill-opacity:1;stroke:none;stroke-width:1px;stroke-linecap:butt;stroke-linejoin:miter;stroke-opacity:1"
             d="m 1005.1177,606.11811 39.6972,-15.79674 108.7353,57.83091 -21.9733,12.82726 -21.1213,5.75984 z"
             id="path45136-4-3" />
          <path
             style="fill:#617c75;fill-opacity:1;stroke:none;stroke-width:1px;stroke-linecap:butt;stroke-linejoin:miter;stroke-opacity:1"
             d="m 1044.8149,590.32137 23.4482,-31.35327 99.289,57.46889 -14.0018,31.71529 z"
             id="path58389-4-8" />
          <path
             style="fill:#6b8981;fill-opacity:1;stroke:none;stroke-width:1px;stroke-linecap:butt;stroke-linejoin:miter;stroke-opacity:1"
             d="m 1068.2631,558.9681 99.289,57.46889 20.5813,-10.06454 -87.0184,-56.18212 z"
             id="path74952-7-8" />
          <path
             style="fill:#91a9a4;fill-opacity:1;stroke:none;stroke-width:1px;stroke-linecap:butt;stroke-linejoin:miter;stroke-opacity:1"
             d="m 1166.8064,475.39006 -23.8209,17.16023 95.8305,44.98832 21.6976,-9.95923 z"
             id="path84576-6-3" />
          <path
             style="fill:#6f6148;fill-opacity:0.92549;stroke:none;stroke-width:1px;stroke-linecap:butt;stroke-linejoin:miter;stroke-opacity:1"
             d="m 1110.4556,690.98713 -105.3125,-60.70442 -0.025,-24.1646 105.3125,60.70442 0.025,24.1646"
             id="path95729-1-3-1"
             sodipodi:nodetypes="ccccc" />
          <path
             style="fill:#c1b5a2;fill-opacity:1;stroke:none;stroke-width:1px;stroke-linecap:butt;stroke-linejoin:miter;stroke-opacity:1"
             d="m 1005.1431,630.28271 105.3125,60.70442 -49.8764,34.40604 -21.1557,18.7437 -29.3885,11.12129 -38.67144,19.20519 -105.33787,-60.62127 57.45484,-24.24017 33.85036,-24.3273 z"
             id="path102139-1-8" />
          <path
             style="opacity:0.678403;fill:#7593ce;fill-opacity:1;stroke:none;stroke-width:1px;stroke-linecap:butt;stroke-linejoin:miter;stroke-opacity:1"
             d="m 1110.4556,666.73938 -139.34536,80.45108 0.25332,27.27289 38.67144,-19.20519 29.3885,-11.12129 21.1557,-18.7437 49.8764,-34.40604 v -24.24775"
             id="path4323-7-9"
             sodipodi:nodetypes="cccccccc" />
          <path
             style="opacity:0.678403;fill:#3f66b1;fill-opacity:1;stroke:none;stroke-width:1px;stroke-linecap:butt;stroke-linejoin:miter;stroke-opacity:1"
             d="m 866.02569,713.84208 105.33787,60.62127 -0.25332,-27.27289 -105.28715,-60.78757 z"
             id="path4457-5-6"
             sodipodi:nodetypes="ccccc" />
          <path
             style="opacity:0.84934;fill:#6385c7;fill-opacity:1;stroke:none;stroke-width:1px;stroke-linecap:butt;stroke-linejoin:miter;stroke-opacity:1"
             d="m 1005.1177,606.11811 -139.31997,80.36793 105.31251,60.70442 139.31996,-80.36793 z"
             id="path4525-8-9-4"
             sodipodi:nodetypes="ccccc" />
          <g
             id="path4837-6-3">
            <path
               style="color:#000000;fill:#000000;fill-opacity:0;stroke-width:18.7654;-inkscape-stroke:none"
               d="m 1198.0817,491.91612 c -16.2056,30.33914 -11.02,41.3555 -21.5166,50.42785 -13.6379,11.7876 -29.6444,-12.01701 -45.5113,5.68894 -13.0379,14.54891 16.6812,41.55088 0.5629,52.16168 -14.9401,9.83516 -33.6936,-9.08716 -46.4883,1.19902 -17.9841,14.45824 15.3264,22.73872 -37.1949,46.7132"
               id="path181677" />
            <path
               style="color:#000000;fill:#6480b5;-inkscape-stroke:none"
               d="m 1189.8047,487.49609 c -8.5211,15.95269 -11.6467,27.5135 -13.6895,35.19922 -2.0427,7.68572 -22.0545,-2.25474 -25.303,0.55296 -1.5405,1.33147 17.8357,13.27387 15.8773,13.11501 -1.9585,-0.15886 -5.2547,-1.17541 -9.3946,-2.39453 -4.1399,-1.21912 -23.6204,-9.62549 -29.7226,-8.94118 -6.1022,0.68432 1.6814,10.95536 -3.5059,16.74391 -5.4045,6.03082 -6.3742,14.10388 -5.4394,20.42969 0.9347,6.32581 -13.3823,4.73151 -11.509,9.62857 1.8732,4.89706 19.8608,16.32643 20.0207,18.47885 0.1599,2.15242 0.7153,1.12922 -0.6817,2.04883 -3.6557,2.4066 -8.2858,1.42522 -16.4297,-0.78711 -4.0719,-1.10616 -33.3259,-12.07684 -33.3259,-12.07684 -4.1694,3.26028 7.7144,10.43358 2.5486,14.58661 -5.9392,4.77481 -27.9267,0.45179 -28.3007,5.70279 -0.3741,5.251 19.2815,19.21314 19.1737,20.73861 -0.1077,1.52548 0.021,2.29172 -3.2558,5.44532 -3.2764,3.1536 -10.2262,7.85216 -22.8301,13.60547 l 7.793,17.07031 c 13.6567,-6.23392 22.2393,-11.56263 28.0508,-17.15625 5.8114,-5.59363 21.0418,5.95879 34.0057,0.40226 16.6809,-7.14968 -25.4916,-26.68353 -25.412,-27.8007 0.08,-1.11717 -0.5196,-0.92656 2.5332,-3.38086 1.2315,-0.99006 1.9575,-1.18918 4.252,-1.08398 2.2944,0.10519 5.7643,0.94739 9.8476,2.05664 8.1666,2.21849 32.8631,14.15044 44.1474,6.72185 3.3311,-2.19289 -4.5818,-11.02249 -2.1447,-14.26048 2.4371,-3.23799 15.2242,-0.88437 14.9883,-4.05906 -0.4717,-6.34938 -9.1799,-17.82513 -11.0919,-22.82352 -1.912,-4.99839 13.7118,0.27331 13.2448,-2.88721 -0.4671,-3.16052 -27.3248,-16.83271 -26.2103,-18.07635 2.7461,-3.06441 4.1576,-3.43819 5.9453,-3.63867 1.7878,-0.20048 4.458,0.26716 8.0078,1.3125 3.5498,1.04534 7.8055,2.66368 13.1797,3.09961 5.3743,0.43593 12.2489,-1.06267 17.5274,-5.625 7.2481,-6.26464 9.5088,-14.25242 11.5488,-21.92774 2.04,-7.67531 4.4229,-16.79326 12.1074,-31.17968 z"
               id="path181679"
               sodipodi:nodetypes="cssssssssssssssscccsscsssssssssssssscc" />
          </g>
        </g>
      </g>
      <g
         id="g151741-5-0"
         transform="matrix(0.6349201,0,0,0.6349201,692.76727,331.74906)"
         style="opacity:0.827691;fill:#cde9f1;fill-opacity:0.758791">
        <g
           id="g190916">
          <path
             id="path93689-7-4"
             style="fill:#cde9f1;fill-opacity:0.758791;stroke:none;stroke-width:22.1353;stroke-miterlimit:4;stroke-dasharray:none;stroke-opacity:1"
             d="m 605.25977,290.21289 a 32.05791,26.922782 0 0 0 -27.13477,12.62109 32.05791,26.922782 0 0 0 -13.99609,-2.70898 32.05791,26.922782 0 0 0 -32.05664,26.92188 32.05791,26.922782 0 0 0 32.05664,26.92382 32.05791,26.922782 0 0 0 12.33203,-2.125 32.05791,26.922782 0 0 0 30.82226,19.58203 32.05791,26.922782 0 0 0 23.26563,-8.48242 17.23168,14.471459 0 0 0 7.66406,1.53907 17.23168,14.471459 0 0 0 16.83789,-11.57618 32.05791,26.922782 0 0 0 16.00586,-23.23437 32.05791,26.922782 0 0 0 -32.05859,-26.92383 32.05791,26.922782 0 0 0 -6.22852,0.57812 32.05791,26.922782 0 0 0 -27.50976,-13.11523 z" />
          <ellipse
             style="fill:#cde9f1;fill-opacity:0.758791;stroke:none;stroke-width:11.8981;stroke-miterlimit:4;stroke-dasharray:none;stroke-opacity:1"
             id="path93689-5-5-9-4-8"
             cx="692.2019"
             cy="352.37912"
             rx="17.23168"
             ry="14.471459" />
          <ellipse
             style="fill:#cde9f1;fill-opacity:0.758791;stroke:none;stroke-width:7.6519;stroke-miterlimit:4;stroke-dasharray:none;stroke-opacity:1"
             id="path93689-5-5-8-1-8"
             cx="525.37628"
             cy="297.93359"
             rx="11.082028"
             ry="9.3068771" />
        </g>
      </g>
      <g
         id="g151741-4-2-3"
         transform="matrix(0.54094809,0,0,0.27950737,778.29907,518.35914)"
         style="fill:#cde9f1;fill-opacity:0.758791">
        <path
           id="path93689-8-1-3"
           style="opacity:0.227198;fill:#040c0e;fill-opacity:0.758791;stroke:none;stroke-width:22.1353;stroke-miterlimit:4;stroke-dasharray:none;stroke-opacity:1"
           d="m 601.35591,282.22074 c -11.02771,0.007 -17.37286,12.76673 -23.23091,20.61324 -4.36135,-1.78038 -9.14681,-2.70661 -13.99609,-2.70898 -17.70418,5.9e-4 -32.05605,12.05361 -32.05664,26.92188 -6.8e-4,14.86903 14.35156,26.92323 32.05664,26.92382 4.23751,-0.0169 8.42899,-0.73913 12.33203,-2.125 3.90746,11.57934 14.94682,19.10761 29.27774,19.11549 11.98505,-11.08695 4.61683,-22.82189 14.12269,-34.99885 9.50586,-12.17695 25.77697,2.84678 28.79546,0.15016 2.37884,1.00329 6.54663,1.99663 9.20858,2.00561 8.17084,-0.0181 15.92529,-24.56456 19.36865,-28.14259 6.15446,-6.83029 15.97606,-13.64889 16.00586,-23.23437 6.8e-4,-14.86967 -19.65259,-26.34021 -37.35843,-26.3399 -2.09368,0.0214 -6.22852,0.57812 -6.22852,0.57812 -9.49708,2.32988 -37.01845,21.24465 -48.29706,21.24137 z"
           sodipodi:nodetypes="cccscccsccccccc" />
        <ellipse
           style="opacity:0.227198;fill:#040c0e;fill-opacity:0.758791;stroke:none;stroke-width:11.8981;stroke-miterlimit:4;stroke-dasharray:none;stroke-opacity:1"
           id="path93689-5-5-9-1-7-8"
           cx="692.2019"
           cy="352.37912"
           rx="17.23168"
           ry="14.471459" />
        <ellipse
           style="opacity:0.227198;fill:#040c0e;fill-opacity:0.758791;stroke:none;stroke-width:7.6519;stroke-miterlimit:4;stroke-dasharray:none;stroke-opacity:1"
           id="path93689-5-5-8-0-8-6"
           cx="525.37628"
           cy="297.93359"
           rx="11.082028"
           ry="9.3068771" />
      </g>
    </g>
  </g>
</svg>
