<?xml version="1.0" encoding="UTF-8" standalone="no"?>
<svg
   sodipodi:docname="longitudinal.svg"
   inkscape:version="1.1 (c4e8f9e, 2021-05-24)"
   id="svg5"
   version="1.1"
   viewBox="0 0 394.71591 320.14965"
   height="84.706261mm"
   width="104.43525mm"
   xmlns:inkscape="http://www.inkscape.org/namespaces/inkscape"
   xmlns:sodipodi="http://sodipodi.sourceforge.net/DTD/sodipodi-0.dtd"
   xmlns="http://www.w3.org/2000/svg"
   xmlns:svg="http://www.w3.org/2000/svg"
   xmlns:rdf="http://www.w3.org/1999/02/22-rdf-syntax-ns#"
   xmlns:cc="http://creativecommons.org/ns#"
   xmlns:dc="http://purl.org/dc/elements/1.1/">
  <metadata
     id="metadata886">
    <rdf:RDF>
      <cc:Work
         rdf:about="">
        <dc:format>image/svg+xml</dc:format>
        <dc:type
           rdf:resource="http://purl.org/dc/dcmitype/StillImage" />
      </cc:Work>
    </rdf:RDF>
  </metadata>
  <sodipodi:namedview
     inkscape:document-rotation="0"
     fit-margin-bottom="0"
     fit-margin-right="0"
     fit-margin-left="0"
     fit-margin-top="0"
     inkscape:current-layer="g5661"
     inkscape:window-maximized="0"
     inkscape:window-y="23"
     inkscape:window-x="29"
     inkscape:window-height="697"
     inkscape:window-width="1293"
     inkscape:cy="176.06829"
     inkscape:cx="189.56011"
     inkscape:zoom="1.4823794"
     showgrid="false"
     inkscape:document-units="mm"
     inkscape:pagecheckerboard="0"
     inkscape:pageopacity="0"
     inkscape:pageshadow="0"
     borderopacity="1"
     bordercolor="#eeeeee"
     pagecolor="#ffffff"
     id="namedview7" />
  <defs
     id="defs2" />
  <g
     transform="translate(-175.21346,-390.30887)"
     style="display:inline"
     id="g1167"
     inkscape:groupmode="layer"
     inkscape:label="sfondo"
     sodipodi:insensitive="true">
    <g
       id="g1165">
      <g
         transform="translate(-140.14464,-324.94002)"
         id="g1151">
        <path
           sodipodi:nodetypes="cccccccccc"
           id="path1123"
           d="m 710.07401,767.43821 v 101.7965 l -150.05804,85.859 -139.09204,80.30479 v -21.0763 l 38.67146,-19.20521 29.38846,-11.12129 21.15567,-18.7437 21.3529,-15.01862 28.52355,-19.38742 -0.0254,-24.1646 21.14667,-5.84299 21.97334,-12.82726 14.00189,-31.71529 20.58121,-10.06454 50.68262,-68.83384 z"
           style="fill:#968263;fill-opacity:1;stroke:none;stroke-width:0.650686px;stroke-linecap:butt;stroke-linejoin:miter;stroke-opacity:1" />
        <path
           sodipodi:nodetypes="cccccccccccccccc"
           id="path1125"
           d="m 581.13728,900.83837 21.97334,-12.82726 14.00189,-31.71529 20.58121,-10.06454 30.6433,-41.06593 20.03932,-27.76791 21.69767,-9.95923 -93.70725,-52.18932 -23.82088,17.16023 -12.36527,14.39816 -29.50524,43.24188 -32.85189,8.77777 -23.44823,31.35327 -39.69715,15.79674 105.33787,60.62127 z"
           style="fill:#75938d;fill-opacity:1;stroke:none;stroke-width:0.650686px;stroke-linecap:butt;stroke-linejoin:miter;stroke-opacity:1" />
        <path
           sodipodi:nodetypes="cccc"
           id="path1127"
           d="M 420.92393,1035.3985 315.58606,974.77727 v -21.07636 l 105.33787,60.62129 z"
           style="fill:#6f6149;fill-opacity:0.92549;stroke:none;stroke-width:0.650686px;stroke-linecap:butt;stroke-linejoin:miter;stroke-opacity:1" />
        <path
           id="path1129"
           d="m 454.6781,845.97694 39.69715,-15.79674 108.73533,57.83091 -21.9733,12.82726 -21.12131,5.75984 z"
           style="fill:#586e69;fill-opacity:1;stroke:none;stroke-width:1px;stroke-linecap:butt;stroke-linejoin:miter;stroke-opacity:1" />
        <path
           id="path1131"
           d="m 494.37525,830.1802 23.44823,-31.35327 99.28903,57.46889 -14.00189,31.71529 z"
           style="fill:#617c75;fill-opacity:1;stroke:none;stroke-width:1px;stroke-linecap:butt;stroke-linejoin:miter;stroke-opacity:1" />
        <path
           id="path1133"
           d="m 517.82348,798.82693 99.28903,57.46889 20.58121,-10.06454 -87.01835,-56.18212 z"
           style="fill:#6b8981;fill-opacity:1;stroke:none;stroke-width:1px;stroke-linecap:butt;stroke-linejoin:miter;stroke-opacity:1" />
        <path
           id="path1135"
           d="m 616.36676,715.24889 -23.82088,17.16023 95.83046,44.98832 21.69767,-9.95923 z"
           style="fill:#91a9a4;fill-opacity:1;stroke:none;stroke-width:1px;stroke-linecap:butt;stroke-linejoin:miter;stroke-opacity:1" />
        <path
           sodipodi:nodetypes="ccccc"
           id="path1137"
           d="m 560.01597,930.84596 -105.31247,-60.70442 -0.0254,-24.1646 105.31247,60.70442 0.0254,24.1646"
           style="fill:#6f6148;fill-opacity:0.92549;stroke:none;stroke-width:1px;stroke-linecap:butt;stroke-linejoin:miter;stroke-opacity:1" />
        <path
           id="path1139"
           d="m 454.7035,870.14154 105.31247,60.70442 -49.87645,34.40604 -21.15567,18.7437 -29.38846,11.12129 -38.67146,19.20521 -105.33787,-60.62129 57.45484,-24.24017 33.85036,-24.3273 z"
           style="fill:#c1b5a2;fill-opacity:1;stroke:none;stroke-width:1px;stroke-linecap:butt;stroke-linejoin:miter;stroke-opacity:1" />
        <path
           sodipodi:nodetypes="cccccccc"
           id="path1141"
           d="m 560.01597,906.59821 -139.34536,80.45108 0.25332,27.27291 38.67146,-19.20521 29.38846,-11.12129 21.15567,-18.7437 49.87645,-34.40604 v -24.24775"
           style="opacity:0.678403;fill:#7593ce;fill-opacity:1;stroke:none;stroke-width:1px;stroke-linecap:butt;stroke-linejoin:miter;stroke-opacity:1" />
        <path
           sodipodi:nodetypes="ccccc"
           id="path1143"
           d="m 315.58606,953.70091 105.33787,60.62129 -0.25332,-27.27291 -105.28715,-60.78757 z"
           style="opacity:0.678403;fill:#3f66b1;fill-opacity:1;stroke:none;stroke-width:1px;stroke-linecap:butt;stroke-linejoin:miter;stroke-opacity:1" />
        <path
           sodipodi:nodetypes="ccccc"
           id="path1145"
           d="m 454.6781,845.97694 -139.32,80.36793 105.31251,60.70442 139.32,-80.36793 z"
           style="opacity:0.84934;fill:#6385c7;fill-opacity:1;stroke:none;stroke-width:1px;stroke-linecap:butt;stroke-linejoin:miter;stroke-opacity:1" />
        <path
           sodipodi:nodetypes="cssssc"
           id="path1147"
           d="m 647.64202,731.77495 c -16.20556,30.33914 -11.02,41.3555 -21.51651,50.42785 -13.63798,11.7876 -29.6444,-12.01701 -45.51138,5.68894 -13.03783,14.54891 16.68128,41.55088 0.56295,52.16168 -14.94009,9.83516 -33.69365,-9.08716 -46.4883,1.19902 -17.98415,14.45824 15.32639,22.73872 -37.19488,46.7132"
           style="fill:#000000;fill-opacity:0;stroke:#6480b5;stroke-width:18.7654;stroke-linecap:butt;stroke-linejoin:miter;stroke-miterlimit:4;stroke-dasharray:none;stroke-opacity:1" />
      </g>
      <path
         d="m 386.47463,430.92986 a 20.354211,17.093815 0 0 0 -17.22841,8.01338 20.354211,17.093815 0 0 0 -8.8864,-1.71999 20.354211,17.093815 0 0 0 -20.35341,17.09325 20.354211,17.093815 0 0 0 20.35341,17.09447 20.354211,17.093815 0 0 0 7.82985,-1.3492 20.354211,17.093815 0 0 0 19.56967,12.43302 20.354211,17.093815 0 0 0 14.77182,-5.38566 10.94074,9.1882201 0 0 0 4.86606,0.97719 10.94074,9.1882201 0 0 0 10.69072,-7.34995 20.354211,17.093815 0 0 0 10.16244,-14.75197 20.354211,17.093815 0 0 0 -20.35464,-17.09448 20.354211,17.093815 0 0 0 -3.95461,0.36706 20.354211,17.093815 0 0 0 -17.4665,-8.32712 z"
         style="display:inline;opacity:0.827691;fill:#cde9f1;fill-opacity:0.758791;stroke:none;stroke-width:14.0541;stroke-miterlimit:4;stroke-dasharray:none;stroke-opacity:1"
         id="path1153" />
      <ellipse
         ry="9.18822"
         rx="10.94074"
         cy="470.40045"
         cx="441.67593"
         id="ellipse1155"
         style="display:inline;opacity:0.827691;fill:#cde9f1;fill-opacity:0.758791;stroke:none;stroke-width:7.55434;stroke-miterlimit:4;stroke-dasharray:none;stroke-opacity:1" />
      <ellipse
         ry="5.9091234"
         rx="7.0362024"
         cy="435.83188"
         cx="335.755"
         id="ellipse1157"
         style="display:inline;opacity:0.827691;fill:#cde9f1;fill-opacity:0.758791;stroke:none;stroke-width:4.85835;stroke-miterlimit:4;stroke-dasharray:none;stroke-opacity:1" />
      <path
         sodipodi:nodetypes="cccscccsccccccc"
         d="m 413.01715,512.16071 c -5.96541,0.002 -9.39781,3.56839 -12.56671,5.76155 -2.35927,-0.49763 -4.94795,-0.75652 -7.57116,-0.75718 -9.57704,1.6e-4 -17.34066,3.36907 -17.34098,7.52486 -3.7e-4,4.15601 7.76345,7.52524 17.34098,7.52541 2.29227,-0.005 4.55965,-0.20659 6.67099,-0.59396 2.11373,3.23652 8.08545,5.34072 15.83774,5.34293 6.48329,-3.09889 2.49746,-6.37889 7.63964,-9.78244 5.14217,-3.40355 13.944,0.79569 15.57685,0.042 1.28682,0.28043 3.54138,0.55807 4.98136,0.56058 4.42,-0.005 8.61475,-6.86597 10.47743,-7.86606 3.32925,-1.90911 8.64222,-3.81496 8.65834,-6.49418 3.7e-4,-4.15618 -10.63103,-7.36228 -20.20897,-7.36219 -1.13257,0.006 -3.3693,0.16159 -3.3693,0.16159 -5.13743,0.65122 -20.02506,5.93803 -26.12621,5.93712 z"
         style="display:inline;opacity:0.227198;fill:#040c0e;fill-opacity:0.758791;stroke:none;stroke-width:8.60716;stroke-miterlimit:4;stroke-dasharray:none;stroke-opacity:1"
         id="path1159" />
      <ellipse
         ry="4.0448794"
         rx="9.3214445"
         cy="531.77051"
         cx="462.16013"
         id="ellipse1161"
         style="display:inline;opacity:0.227198;fill:#040c0e;fill-opacity:0.758791;stroke:none;stroke-width:4.62649;stroke-miterlimit:4;stroke-dasharray:none;stroke-opacity:1" />
      <ellipse
         ry="2.6013408"
         rx="5.994802"
         cy="516.55255"
         cx="371.91611"
         id="ellipse1163"
         style="display:inline;opacity:0.227198;fill:#040c0e;fill-opacity:0.758791;stroke:none;stroke-width:2.97539;stroke-miterlimit:4;stroke-dasharray:none;stroke-opacity:1" />
    </g>
  </g>
  <g
     transform="translate(-175.21346,-390.30887)"
     style="display:inline"
     id="layer1"
     inkscape:groupmode="layer"
     inkscape:label="freccia_1"
     sodipodi:insensitive="true">
    <g
       id="g180957">
      <g
         transform="translate(-140.14464,-324.94002)"
         id="g180237">
        <path
           sodipodi:nodetypes="cccccccccc"
           id="path4837-8"
           d="m 639.85452,750.16497 c -1.95677,5.44098 -3.15586,9.94583 -4.17655,13.7861 m -8.61736,17.23888 c -6.81899,5.8938 -14.23009,2.88954 -21.91982,0.62509 m -23.59156,5.06385 c -6.51892,7.27445 -2.3486,17.66217 1.43666,27.55763 m -0.87371,24.60405 c -7.47005,4.91758 -15.89346,2.64579 -24.04869,0.43038 m -22.43961,0.76864 c -8.99207,7.22912 -5.16048,12.9138 -5.64602,19.78801"
           style="fill:#000000;fill-opacity:0;stroke:#d0d8e9;stroke-width:7.42677;stroke-linecap:round;stroke-linejoin:miter;stroke-miterlimit:4;stroke-dasharray:none;stroke-opacity:1" />
      </g>
    </g>
  </g>
  <g
     transform="translate(-175.21346,-390.30887)"
     style="display:inline"
     inkscape:label="freccia_2"
     id="layer2"
     inkscape:groupmode="layer"
     sodipodi:insensitive="true">
    <path
       sodipodi:nodetypes="csccccccccc"
       id="path155805"
       d="m 498.80773,426.85475 c -1.9566,5.44098 -3.1558,9.94584 -4.1765,13.7861 -2.0414,7.68053 -3.369,12.7027 -8.6174,17.23888 m -21.9198,0.62509 c -7.6896,-2.26446 -15.6581,-3.78913 -23.5916,5.06385 m 1.4367,27.55763 c 3.7853,9.89546 7.1855,19.29865 -0.8737,24.60405 m -24.0487,0.43038 c -8.1552,-2.21542 -16.0423,-4.37445 -22.4396,0.76864 m -5.646,19.78801 c -0.2428,3.43711 -1.5648,7.17159 -6.1088,11.54521"
       style="fill:#000000;fill-opacity:0;stroke:#bcc9df;stroke-width:7.42677;stroke-linecap:round;stroke-linejoin:miter;stroke-miterlimit:4;stroke-dasharray:none;stroke-opacity:1" />
    <path
       id="path167972"
       d="m 346.82133,553.46642 33.5717,19.38258 h -45.6004 z"
       style="fill:#bcc9df;fill-opacity:1;stroke:none;stroke-width:1px;stroke-linecap:butt;stroke-linejoin:miter;stroke-opacity:1" />
  </g>
  <g
     transform="translate(-175.21346,-390.30887)"
     style="display:inline"
     id="g5661"
     inkscape:groupmode="layer"
     inkscape:label="nuvoletta">
    <path
       d="m 386.47463,430.92986 a 20.354211,17.093815 0 0 0 -17.22841,8.01338 20.354211,17.093815 0 0 0 -8.8864,-1.71999 20.354211,17.093815 0 0 0 -20.35341,17.09325 20.354211,17.093815 0 0 0 20.35341,17.09447 20.354211,17.093815 0 0 0 7.82985,-1.3492 20.354211,17.093815 0 0 0 19.56967,12.43302 20.354211,17.093815 0 0 0 14.77182,-5.38566 10.94074,9.1882201 0 0 0 4.86606,0.97719 10.94074,9.1882201 0 0 0 10.69072,-7.34995 20.354211,17.093815 0 0 0 10.16244,-14.75197 20.354211,17.093815 0 0 0 -20.35464,-17.09448 20.354211,17.093815 0 0 0 -3.95461,0.36706 20.354211,17.093815 0 0 0 -17.4665,-8.32712 z"
       style="display:inline;opacity:0.827691;fill:#cde9f1;fill-opacity:0.758791;stroke:none;stroke-width:14.0541;stroke-miterlimit:4;stroke-dasharray:none;stroke-opacity:1"
       id="path5647" />
    <ellipse
       ry="9.18822"
       rx="10.94074"
       cy="470.40045"
       cx="441.67593"
       id="ellipse5649"
       style="display:inline;opacity:0.827691;fill:#cde9f1;fill-opacity:0.758791;stroke:none;stroke-width:7.55434;stroke-miterlimit:4;stroke-dasharray:none;stroke-opacity:1" />
    <ellipse
       ry="5.9091234"
       rx="7.0362024"
       cy="435.83188"
       cx="335.755"
       id="ellipse5651"
       style="display:inline;opacity:0.827691;fill:#cde9f1;fill-opacity:0.758791;stroke:none;stroke-width:4.85835;stroke-miterlimit:4;stroke-dasharray:none;stroke-opacity:1" />
    <path
       sodipodi:nodetypes="cccscccsccccccc"
       d="m 413.01715,512.16071 c -5.96541,0.002 -9.39781,3.56839 -12.56671,5.76155 -2.35927,-0.49763 -4.94795,-0.75652 -7.57116,-0.75718 -9.57704,1.6e-4 -17.34066,3.36907 -17.34098,7.52486 -3.7e-4,4.15601 7.76345,7.52524 17.34098,7.52541 2.29227,-0.005 4.55965,-0.20659 6.67099,-0.59396 2.11373,3.23652 8.08545,5.34072 15.83774,5.34293 6.48329,-3.09889 2.49746,-6.37889 7.63964,-9.78244 5.14217,-3.40355 13.944,0.79569 15.57685,0.042 1.28682,0.28043 3.54138,0.55807 4.98136,0.56058 4.42,-0.005 8.61475,-6.86597 10.47743,-7.86606 3.32925,-1.90911 8.64222,-3.81496 8.65834,-6.49418 3.7e-4,-4.15618 -10.63103,-7.36228 -20.20897,-7.36219 -1.13257,0.006 -3.3693,0.16159 -3.3693,0.16159 -5.13743,0.65122 -20.02506,5.93803 -26.12621,5.93712 z"
       style="display:inline;opacity:0.227198;fill:#040c0e;fill-opacity:0.758791;stroke:none;stroke-width:8.60716;stroke-miterlimit:4;stroke-dasharray:none;stroke-opacity:1"
       id="path5653" />
    <ellipse
       ry="4.0448794"
       rx="9.3214445"
       cy="531.77051"
       cx="462.16013"
       id="ellipse5655"
       style="display:inline;opacity:0.227198;fill:#040c0e;fill-opacity:0.758791;stroke:none;stroke-width:4.62649;stroke-miterlimit:4;stroke-dasharray:none;stroke-opacity:1" />
    <ellipse
       ry="2.6013408"
       rx="5.994802"
       cy="516.55255"
       cx="371.91611"
       id="ellipse5657"
       style="display:inline;opacity:0.227198;fill:#040c0e;fill-opacity:0.758791;stroke:none;stroke-width:2.97539;stroke-miterlimit:4;stroke-dasharray:none;stroke-opacity:1" />
  </g>
</svg>
