<?xml version="1.0" encoding="UTF-8" standalone="no"?>
<svg
   inkscape:export-ydpi="100"
   inkscape:export-xdpi="100"
   inkscape:export-filename="/Users/alicecorona/Desktop/global_nffr_ffr.png"
   inkscape:version="1.1 (c4e8f9e, 2021-05-24)"
   sodipodi:docname="1.map_global_rivers_land.svg"
   id="svg557566"
   height="auto"
   width="auto"
   viewBox="0 0 2491.1282 1315.1177"
   version="1.2"
   xmlns:inkscape="http://www.inkscape.org/namespaces/inkscape"
   xmlns:sodipodi="http://sodipodi.sourceforge.net/DTD/sodipodi-0.dtd"
   xmlns="http://www.w3.org/2000/svg"
   xmlns:svg="http://www.w3.org/2000/svg"
   xmlns:rdf="http://www.w3.org/1999/02/22-rdf-syntax-ns#"
   xmlns:cc="http://creativecommons.org/ns#"
   xmlns:dc="http://purl.org/dc/elements/1.1/">
  <metadata
     id="metadata557570">
    <rdf:RDF>
      <cc:Work
         rdf:about="">
        <dc:format>image/svg+xml</dc:format>
        <dc:type
           rdf:resource="http://purl.org/dc/dcmitype/StillImage" />
      </cc:Work>
    </rdf:RDF>
  </metadata>
  <sodipodi:namedview
     inkscape:guide-bbox="true"
     showguides="false"
     inkscape:current-layer="land"
     inkscape:window-maximized="0"
     inkscape:window-y="26"
     inkscape:window-x="0"
     inkscape:cy="827.92603"
     inkscape:cx="4536.581"
     inkscape:zoom="0.044086064"
     showgrid="false"
     id="namedview557568"
     inkscape:window-height="742"
     inkscape:window-width="1366"
     inkscape:pageshadow="2"
     inkscape:pageopacity="0"
     guidetolerance="10"
     gridtolerance="10"
     objecttolerance="10"
     borderopacity="1"
     inkscape:document-rotation="0"
     bordercolor="#666666"
     pagecolor="#ffffff"
     fit-margin-top="100"
     fit-margin-left="100"
     fit-margin-right="100"
     fit-margin-bottom="100"
     inkscape:pagecheckerboard="0"
     inkscape:document-units="mm"
     units="px" />
  <defs
     id="defs833" />
  <defs
     id="defs856" />
  <defs
     id="defs885" />
  <g
     fill="none"
     stroke-linecap="square"
     stroke-width="1"
     id="land"
     fill-rule="evenodd"
     stroke="#000000"
     stroke-linejoin="bevel"
     inkscape:groupmode="layer"
     inkscape:label="land"
     style="display:inline"
     transform="translate(-652.00067,-675.4363)">
    <g
       id="g1141320">
      <path
         id="path1153"
         style="font-style:normal;font-weight:400;font-size:54.1667px;font-family:'.AppleSystemUIFont';fill:#928167;fill-opacity:0.207843;stroke:#968263;stroke-width:0.937502;stroke-linecap:square;stroke-linejoin:bevel;stroke-miterlimit:4;stroke-dasharray:none;stroke-opacity:1"
         d="m 1600.3014,702.95292 9.4177,3.81705 -5.7886,1.90653 -8.9378,0.21994 -12.9067,0.48888 0.08,0.90077 8.8678,-0.55686 5.3487,1.75057 5.9685,-1.55562 0.4199,1.82355 -5.1487,3.01625 7.7981,-1.93552 12.9767,-1.9895 6.6084,0.98875 0.3599,2.21045 -12.217,3.76106 -2.1694,1.2377 -9.0778,0.93676 6.0585,0.26094 -5.5586,4.017 -4.4389,3.65409 -3.5191,6.43539 1.7995,3.87004 -5.1487,0.24694 -6.3784,1.90152 4.3989,3.2192 -1.7496,5.2497 -4.009,0.57785 2.0595,5.43165 -8.2779,0.45788 3.0092,2.60835 -2.2594,2.28044 -5.7686,1.00575 -5.2586,0.019 2.5893,4.4389 -1.3297,2.94926 -6.3684,-2.74232 -2.9192,1.77156 4.4588,1.66359 3.3192,4.09798 -0.8298,5.47064 -7.968,1.32067 -1.9495,-2.63735 -3.1092,-3.89703 -0.9198,4.60786 -6.6084,3.6081 10.8973,0.29293 5.6186,0.3769 -14.0865,6.05649 -14.4964,5.55862 -14.2464,2.45839 -4.9288,0.03 -6.1884,2.75731 -10.6774,7.6361 -13.0167,5.13472 -3.4392,0.30393 -7.4081,1.81154 -7.9181,1.73057 -7.0282,4.60586 -3.3392,5.26568 -5.5486,4.97577 -11.977,6.11947 -1.5696,6.0345 -6.1285,6.44639 -7.1482,7.69009 -7.8581,0.48288 -3.979,-6.4414 -10.5573,-0.041 -2.2595,-4.29193 1.7796,-7.57711 -1.7596,-9.52063 1.3297,-4.92777 4.7488,-6.72733 -0.8298,-6.8273 6.4084,-5.38766 -0.7698,-2.55736 12.187,-8.38191 9.0877,-2.63634 4.4489,-2.94527 6.0385,-5.44964 -7.2182,2.46138 -3.3392,1.03874 -4.8288,0.99676 -2.9892,-2.27944 4.5688,-4.70582 5.4687,-3.6461 3.909,-0.099 6.5684,1.81855 -2.6194,-4.32793 -1.1197,-2.31242 -5.0487,0.94776 -1.4797,-1.66958 11.4972,-6.20745 0.5398,-2.44939 2.4894,-4.49888 4.3889,-6.77732 -1.1397,-2.44239 3.7291,-2.60835 -3.7491,-3.6031 -6.4084,-0.44489 -9.3377,0.24594 -8.9378,0.44989 -0.4698,-1.94152 1.3096,-3.78806 11.8771,-1.87153 6.9283,-0.31292 -10.5074,-1.53362 -2.1295,-2.38441 5.1087,-2.24444 16.8858,-2.74431 16.006,-2.70033 5.2087,-2.0165 -3.1392,-1.96651 7.1183,-2.15546 17.1757,-3.70108 4.8588,-0.55886 4.2589,-2.32042 8.6878,-1.33867 8.9178,-0.7928 7.1782,-0.045 -0.6598,1.57461 11.6371,-2.77031 1.9095,1.87553 2.5694,0.3989 2.1095,1.66059 -0.8898,-2.74032 4.2289,-2.13047 12.6669,-2.90228 7.0082,0.21495 5.6086,-1.75456 7.8981,-0.45089 15.3861,0.58985 m -90.2876,1.97154 4.6389,0.37791 2.9592,0.62084 0.6199,1.32967 -3.3392,1.32367 -10.9373,2.18546 -8.2779,1.03374 -5.0188,1.15271 5.3787,-0.027 -13.3667,3.17421 -7.7281,1.50662 -14.7763,4.4329 -7.778,0.91577 -4.3789,1.13272 -9.9276,0.59685 2.2795,0.70282 -4.289,1.00475 -3.879,2.80531 -7.1582,1.9735 -8.288,1.64459 -6.4284,2.29443 -8.1979,1.76956 -2.4294,1.34967 5.9785,-0.23095 -2.9393,1.46264 -16.2159,3.63309 -5.1687,-1.67758 -11.7671,0.94077 -3.2892,-0.73482 -5.5186,-0.31792 6.3484,-2.88828 9.1077,-1.34966 8.7179,-4.25195 2.8792,-0.40889 2.1995,2.52737 4.7788,-3.74507 -2.1095,-1.10672 8.058,-2.21345 8.6179,-1.34967 5.8885,-1.95751 1.8595,-2.16946 6.7184,-2.8173 6.6383,0.23394 0.5099,0.58886 9.5176,-1.97251 -4.1689,-0.61985 -10.1275,0.34092 0.8598,-1.81055 4.5788,-2.12747 2.0995,-1.52262 5.3887,-1.74857 6.7983,-0.96676 3.2792,-0.16395 7.2781,-0.8148 9.6176,-1.85054 1.8796,0.25794 -2.1595,1.39065 10.5074,-2.66634 5.4786,-0.7768 5.6186,-0.53387 7.1283,-0.19995 -0.5399,0.52087 8.6578,-0.8138 3.6391,0.30393 3.6991,0.30592 m -95.4662,17.88356 -1.4496,1.79555 -8.318,1.67058 -16.5459,4.28993 -6.3884,0.4159 -4.2889,-0.73882 3.1892,-2.33341 5.8086,-2.05249 6.5183,-1.49263 -5.2786,0.042 2.4194,-1.84554 5.9385,-2.48038 9.4976,-2.39841 7.0782,-1.62359 3.8191,-0.36991 2.8993,-1.2037 6.6683,-0.26693 -5.7586,2.81729 0.8898,1.14572 1.3197,1.01974 -8.018,3.60911 m 531.2677,4.3619 -4.279,0.70782 -12.7868,-1.63459 -10.8673,-2.13947 -13.7565,-3.94901 -6.8683,-1.07174 -4.7189,-3.64509 1.4697,-1.1847 13.8665,2.65534 23.1842,5.23669 14.7564,5.02475 m -156.571,-9.19471 -2.3295,0.70882 -1.7095,0.4089 1.0597,0.88978 -1.7496,0.90078 -4.8787,-1.29068 -1.1198,-1.68258 -6.0485,-0.16296 3.5392,-0.97176 3.799,-0.064 2.8893,1.43965 -0.6198,-1.28069 0.9297,-0.87478 5.8286,1.16371 0.4099,0.8158 m -66.4935,0.75282 6.8783,1.90253 -1.5596,2.96526 -7.6381,0.65584 -8.8778,-0.92777 -1.4496,-1.52162 -3.989,-0.096 -4.4089,-2.50138 7.1782,-1.50262 4.7288,1.29268 1.4396,-1.6076 7.6981,1.34066 m -16.7058,3.84906 11.847,4.16697 -6.0085,2.23844 0.5999,4.25594 -2.1595,1.10672 0.7798,4.92278 -3.809,0.23394 -8.318,-3.6381 2.0195,-2.09247 -5.2586,-1.68758 -7.5182,-4.8478 -3.6591,-4.3859 6.7284,-1.96851 2.3294,1.92452 3.909,-0.077 0.12,-1.87854 3.869,-0.18995 4.5289,1.91652 m 264.774,7.87406 -10.5973,2.23745 -16.6359,-7.50913 0.3599,-0.62885 3.2792,0.36391 17.3357,3.2072 6.2584,2.32942 m -615.0768,-0.10297 -5.6686,2.4184 -3.1592,-0.64884 0.4899,-1.87554 -6.0185,-0.21394 8.048,-1.70158 0.7298,-1.36866 6.6784,-2.15646 3.1492,0.76381 1.4796,2.06049 -5.7286,2.72232 m 8.4479,1.54961 -7.788,1.2017 1.2297,-1.35266 4.8188,-2.16546 6.6083,-2.36041 3.1092,0.22594 0.6099,0.37591 -2.0595,1.9875 -6.5284,2.08748 m -32.162,-3.14022 -7.1982,1.11773 -4.9387,-0.006 2.7293,-0.8178 8.6378,-1.70657 0.7099,0.25893 0.06,1.15371 m 399.5904,4.32293 -5.3786,2.4014 -6.3185,-1.36666 1.2497,-1.50862 -2.9492,-1.85354 5.4786,-1.15372 2.6293,2.16646 5.2887,1.31468 m -417.566,0.91777 -10.9872,1.69458 1.2596,-1.90153 8.378,-1.85954 6.3084,-0.59085 1.4396,0.90877 -6.3984,1.74857 m 47.9881,1.04074 -1.8596,0.16896 -4.8788,-0.37591 3.5392,-1.63959 5.9685,0.085 -0.6599,1.08873 -2.1094,0.67283 m 637.5512,3.24017 9.2077,2.97526 -1.1097,-1.46963 9.7475,0.08 15.9661,2.95626 9.2577,2.29343 8.1479,3.2182 1.1697,1.84954 -0.1699,3.50413 2.0495,1.88952 6.7683,0.89578 9.5176,1.6216 0.2299,-1.2167 12.347,4.14797 -2.5794,-1.68558 3.3292,-1.02075 14.6963,1.06674 8.8478,3.04024 18.4454,0.97376 -13.2067,-4.96577 11.0173,1.13072 5.8585,-0.035 15.6661,3.42915 13.3267,4.21495 5.1287,2.7843 18.8553,5.29668 13.5267,2.76132 -14.7864,-7.09524 14.5764,3.02525 1.9195,-1.81155 13.4767,2.07348 -2.2895,-1.89052 9.2077,0.94376 -20.6448,-6.20445 -3.3692,-2.85729 48.138,4.29293 15.5862,3.97001 26.2334,5.17671 12.6069,-1.28768 11.6271,1.12172 12.1969,2.8283 14.7864,5.05274 11.1772,1.9855 1.4396,-1.42864 7.0083,-0.18196 12.2569,1.36766 5.7186,-0.7718 26.7333,6.23944 -1.5096,-2.25544 -17.4856,-4.47288 -7.968,-3.08123 19.755,1.93651 7.4482,-0.41489 23.2142,3.32317 16.076,3.06124 87.2083,28.9108 0.08,0.04 2.8492,3.28918 -7.828,-0.55087 15.2562,4.00701 19.5451,6.25544 7.6981,2.05949 8.7778,3.1752 3.8891,2.0435 -13.8066,-1.67959 0.01,5.82155 -2.4294,0.90678 4.9488,5.48963 3.3691,4.8308 6.0785,3.5981 -19.895,-5.46864 -0.27,6.20946 -8.8478,-2.94527 2.1595,3.39815 -9.5576,-1.08872 9.2877,5.23969 9.2677,7.77706 6.7083,3.27119 9.9775,1.81855 22.2345,11.91803 -4.7788,0.30592 10.2974,6.92628 8.9178,3.5851 -2.7593,4.27194 14.4464,9.6206 -5.5587,2.06849 12.277,8.65684 3.6591,8.00201 -11.5172,-5.92353 -22.5743,-12.4329 -34.9213,-18.64136 -17.7656,-11.44215 -4.2789,-4.87678 -6.9183,-3.80006 5.1987,-1.81154 -10.3574,-10.12348 -7.8281,-8.16597 -4.159,-6.27344 -20.8448,-10.94427 -4.6988,0.64984 11.4871,6.37941 5.4887,8.60086 -25.2337,-9.62361 -7.6781,2.64334 14.0965,13.20072 14.2064,4.89078 -8.1579,2.09248 -6.9183,0.82679 -10.7473,-5.78656 -10.7774,-1.2077 0.7599,3.92003 -19.2752,-1.37466 -13.6266,2.37041 9.2077,15.79307 8.4579,19.48914 10.8772,1.05274 10.7574,5.25369 8.5778,1.87054 -2.4694,-4.20096 7.3482,0.54587 22.5844,9.27868 10.8073,7.2372 7.3282,8.56487 13.5866,10.32543 15.3762,13.97252 6.0385,12.78781 5.1187,6.15947 2.9592,10.4334 2.3595,10.4214 1.2896,5.36567 -3.5891,5.33862 -4.2089,0.12 -8.8078,-4.4289 -2.4794,6.6783 1.9195,3.0393 -3.1592,-0.5499 0.01,3.1092 0.9298,3.1193 6.4783,6.6183 -1.7295,2.0395 0.2399,1.6296 -0.1599,2.7393 -3.3292,1.5296 -0.8498,2.4894 3.2992,4.029 0.06,1.0198 4.1389,1.5196 7.5481,4.099 15.4762,11.0572 6.7883,6.0985 8.7178,10.8973 1.2597,5.2187 -5.2787,1.8295 -2.9492,3.949 -6.0485,0.8198 -4.6389,-5.1887 -3.999,-7.1282 -10.8473,-9.8375 4.119,-1.5897 -11.4371,-8.0479 -4.9488,-1.7896 0.5698,1.7596 -1.4696,0.7798 -1.6896,-1.7596 -2.5593,-0.8598 -3.1393,-1.4996 -1.4296,-4.119 0.7698,-1.0997 -2.0695,-1.6996 -2.4494,-5.0287 -1.7695,-1.5197 -4.9988,-1.0097 -5.4786,-2.4894 -7.5681,2.6993 -1.5696,4.349 -5.5686,2.5393 0.2299,-4.3189 -4.4989,-3.6191 0.2699,-6.2284 -7.898,-4.8488 -3.2792,3.2592 -2.4993,6.4483 0.5598,5.9986 -6.6083,0.4498 -0.17,4.349 8.6878,6.3284 7.0583,1.5396 3.4691,4.2189 7.7981,2.7394 2.8993,-6.7084 9.2476,3.6591 4.8488,0.25 4.9988,4.9287 -8.248,2.6394 0.4099,5.0987 -3.629,4.7488 0.9497,6.6484 11.5671,5.2387 9.3277,9.4076 10.3574,8.7978 9.8676,7.3982 4.3889,7.1782 -3.1192,2.6393 4.9487,5.1788 6.2785,3.0092 3.4691,7.928 2.4294,7.7381 -3.8091,0.8798 0.08,10.6073 0.28,12.9168 -1.6096,11.7871 -6.6684,9.1477 -7.3881,8.3579 -8.4379,1.1397 -3.0493,4.4289 -4.039,-3.2292 -2.5094,4.9488 -9.1577,4.9888 -7.848,1.5296 1.1197,10.5674 -4.2189,0.5798 -4.6889,-7.2582 0.4699,-3.859 -11.857,-3.1992 -3.1493,1.6196 -7.5881,8.5478 -3.4591,9.4677 0.4699,6.9583 9.4176,10.5973 11.3572,13.1667 9.0677,6.2485 7.0883,8.118 8.2779,18.7553 2.6694,17.8855 -5.5787,6.7084 -8.2579,6.5583 -5.3387,8.5079 -8.8878,9.5076 -3.939,-6.5483 1.2497,-6.9183 -7.0582,-5.7986 -7.1383,-1.4796 -4.2589,-5.3087 -6.0985,-10.5174 -8.2679,-4.6688 -6.9683,0.19 -0.4199,-7.978 -7.1882,0.06 1.5696,11.1673 -1.7895,14.8763 -1.2497,9.0077 1.6496,7.3782 5.4186,0.3199 4.5989,9.3277 2.5493,8.8478 5.2687,5.8585 5.1387,1.1897 4.8288,5.3087 1.9995,0.9597 5.4587,6.1785 4.039,6.8583 0.9697,6.9083 -0.5898,4.6588 0.9997,3.5291 0.8998,6.0685 3.0493,2.8293 3.5691,9.0678 -0.08,3.4691 -5.8786,0.6798 -8.0579,-7.5981 -10.1375,-8.1379 -1.2097,-5.2287 -5.1887,-6.8583 -1.7096,-8.4879 -3.4291,-5.5786 0.2599,-7.4582 -2.2395,-4.3389 -3.669,-3.929 -1.9596,-5.0688 -5.0687,-5.7685 -4.5988,-4.8488 -0.6299,6.0085 -2.2494,-5.6786 0.07,-6.3784 1.0297,-9.7876 -1.9695,-7.5681 1.2097,-7.798 -3.8291,-6.0285 -1.4496,-11.0773 -4.3889,-5.2587 -5.2687,-12.127 -4.4689,-12.7868 -5.5886,-8.3579 -4.069,5.0588 -7.4981,7.2082 -4.7588,-0.8998 -5.5886,-2.3694 -0.27,-12.5069 -4.1489,-9.4377 -9.4977,-11.5771 -0.06,-3.6191 -5.0588,-1.2897 -8.078,-8.1679 -3.869,-5.2087 -2.0395,-5.0888 -3.0392,-4.7888 -5.1988,-5.7985 -7.4181,-0.3999 2.0495,4.099 -0.7398,5.5486 -4.009,-2.0195 -0.5899,1.8095 -2.5793,-1.0897 -3.3492,-0.8898 -0.02,3.6391 -5.4486,-0.12 -9.1778,2.0695 2.6294,7.5182 -2.6094,5.9185 -9.7275,6.7483 -6.0385,11.8171 -4.5689,6.3484 -6.5784,6.5983 0.9798,4.6489 -3.5191,2.4894 -6.5684,3.6191 -3.6891,0.5298 -0.9497,7.7181 4.0689,13.1767 1.8296,8.4279 -1.9795,9.6576 2.3494,17.2957 -4.199,0.4999 -2.8093,7.778 2.8893,3.3592 -7.2082,2.8993 -2.0695,6.9483 -3.0292,2.9392 -8.7678,-9.5376 -5.4287,-14.2964 -4.4489,-10.2775 -3.5291,-4.8188 -5.7386,-9.7675 -3.989,-12.6969 -2.4494,-6.3284 -9.8375,-13.9065 -7.1382,-19.5452 -5.1287,-12.8668 -2.7294,-12.1369 -3.779,-9.3677 -10.1775,5.9885 -5.8985,-1.1997 -13.2567,-12.097 2.9392,-3.5991 -3.3191,-3.909 -11.3972,-8.4279 -6.4084,-2.5094 -4.1989,-7.1182 -8.058,-7.5282 -13.9066,1.8596 -12.6468,0.1799 -10.6674,1.3897 -15.4361,-2.9793 -9.0578,-2.2694 -9.1077,-1.2797 -6.2384,-12.067 -4.129,-1.7395 -5.5286,1.7495 -6.6884,4.7588 -10.2374,-3.2591 -9.5576,-7.5382 -8.078,-2.7893 -7.3182,-9.2777 -8.7778,-12.9767 -3.7091,1.5796 -5.6086,-3.2192 -1.9295,3.789 -4.6289,-0.4799 2.5894,4.289 -0.17,2.2294 4.139,7.3482 4.8788,8.4379 4.2889,2.2394 2.0795,3.4392 6.1685,4.129 1.3396,4.0589 -0.09,3.2792 1.6796,3.3192 2.8093,2.7593 1.6996,3.2392 1.6596,2.4294 -1.9795,-7.1882 1.0097,-5.1787 1.8996,-1.0598 3.0192,3.0893 1.3597,5.7785 -0.5099,5.8186 2.2494,3.779 1.2997,-0.4798 0.8298,2.7193 5.8386,-1.5696 6.5583,0.2599 4.8088,0.2899 3.949,-6.6883 4.4389,-6.3384 3.5192,-6.0685 1.4696,-3.3592 1.1697,0.8598 0.2299,4.069 -0.5998,1.7896 2.8393,7.798 5.0187,6.7583 5.1787,3.5991 6.0585,1.2897 5.0588,1.8096 4.8088,5.6985 2.8393,3.2992 3.0992,1.2597 0.4599,2.2195 -1.6596,5.9485 -0.6998,2.7993 -2.7293,3.1892 -1.6596,6.8483 -3.7191,-0.5199 -1.2197,2.3894 -0.3599,5.0787 2.1594,6.7084 -0.5498,1.2297 -3.6991,-0.03 -4.3989,3.759 0.01,4.8988 -1.5096,2.1195 -5.0288,-0.08 -2.7693,2.5394 0.6499,4.069 -3.4992,2.7993 -4.5988,-0.9498 -4.9388,3.3992 -3.6591,0.5698 -5.4886,2.7193 -0.9898,4.4789 0.25,3.4492 -7.5682,4.2689 -12.4568,4.7288 -6.5184,7.1482 -3.5391,0.5599 -2.5094,-0.5998 -4.3489,4.2089 -5.0188,1.9595 -6.8083,0.5299 -2.0195,0.5698 -1.5396,2.6894 -2.0795,0.7398 -1.0297,2.5793 -4.079,-0.2199 -2.4994,1.3797 -5.7086,-0.5199 -2.6393,-5.9285 -0.2699,-5.5586 -1.6096,-2.9893 -2.3195,-7.4981 -2.7493,-4.159 1.5796,-0.4899 -1.3096,-4.6288 0.7798,-1.9495 -0.8398,-4.3989 -1.5197,-4.309 -2.7793,-3.0392 -1.0797,-4.019 -4.5888,-3.6191 -5.2987,-8.4279 -3.2692,-8.188 -6.4084,-6.8983 -3.7691,-1.6395 -6.5184,-9.5277 -1.8495,-6.9382 -0.4699,-5.9086 -6.0985,-11.0172 -4.2589,-3.8691 -4.5389,-2.0495 -3.4091,-5.6685 0.1,-2.2295 -2.9393,-5.1187 -2.6194,-2.1995 -4.1589,-7.3281 -5.9485,-7.9181 -4.9988,-6.7283 -3.829,0.05 0.3399,-5.3687 -0.22,-3.4091 0.3099,-3.899 -0.4998,-1.3997 -1.4897,3.909 -0.4598,7.3682 -1.2997,5.0987 -1.5396,1.7096 -3.0493,-3.1592 -4.1389,-4.3589 -7.6281,-13.9766 -0.6399,0.8798 4.7588,10.2875 6.2085,9.8275 8.088,15.2962 3.6391,5.3587 3.2891,5.5786 8.5579,10.9573 -1.3397,1.7295 1.1098,6.4484 10.3774,8.9378 1.6596,2.0395 3.789,9.7875 -1.5196,1.8196 2.3794,10.3074 4.2889,11.977 3.3392,2.4794 4.8088,3.7191 5.9185,11.6671 3.1593,9.2677 4.9187,4.9288 12.017,9.5676 5.0588,5.7785 4.9487,5.8486 2.8593,3.4891 4.279,3.0592 2.2094,3.1493 0.08,4.2189 -4.4889,2.4394 3.7391,2.7793 2.8093,1.8795 1.9295,4.209 4.019,4.2689 4.089,0.04 7.5681,-2.6093 8.8578,-1.2097 6.9883,-3.1692 4.019,-0.6699 2.7793,-1.8495 4.6488,-0.3599 2.6094,-0.2 3.649,-1.5096 4.269,-1.0297 3.5591,-3.4792 3.1092,-0.03 0.4499,2.8093 -0.2299,5.9286 0.4898,5.3486 -1.4396,3.6891 -1.4796,11.0273 -3.2192,11.4071 -4.3789,13.0668 -6.4284,14.9962 -6.6784,11.4772 -9.4176,13.9865 -8.168,8.2979 -12.3369,10.1875 -7.7181,7.808 -9.1277,12.4269 -1.9495,5.4087 -1.9096,2.4294 -5.8685,4.099 -2.1095,4.2789 -3.1292,0.7498 -1.3097,7.2282 -2.7593,4.139 -1.7795,6.8183 -3.4392,3.3792 -4.2289,12.6268 0.2799,5.7986 5.1587,3.729 0.13,2.6594 -2.5494,6.1784 0.3299,3.1093 -0.7898,4.8787 2.5494,6.4084 2.8193,10.0575 2.8893,2.2295 1.0297,4.5688 -1.0497,10.1475 0.3299,8.9278 -1.0098,15.866 0.9798,4.9588 -3.1092,7.2382 -3.8491,7.0183 -5.7985,6.2684 -7.7881,3.829 -9.6176,4.8988 -10.2274,10.7973 -3.2892,1.8396 -6.3684,7.1282 -3.5491,2.3194 -1.4597,7.1382 2.9093,7.5782 0.8698,5.8485 -0.27,2.9793 1.4697,-0.4899 -1.4697,9.7576 -1.8895,4.6088 1.6296,1.6996 -1.7296,4.129 -3.759,3.5191 -6.9283,3.3491 -10.1275,5.3487 -3.909,3.6491 0.1,4.149 1.8995,0.6598 -1.3897,5.1787 -2.9592,7.1482 -2.0995,8.128 -2.6493,4.4089 -5.9586,4.9288 -1.7095,1.3996 -3.979,4.9488 -2.8693,4.9788 -5.3587,6.9382 -10.0475,9.9576 -6.1684,5.7785 -6.2985,4.3589 -8.3279,3.7191 -3.849,0.4999 -1.3497,2.6493 -4.2989,-1.4096 -3.9291,1.8195 -7.778,-1.8395 -4.6389,1.1697 -3.0092,-0.4999 -8.108,3.7691 -6.4884,1.5096 -4.9787,3.5991 -3.3692,0.2299 -2.7393,-3.3991 -2.4694,-0.17 -2.7293,-4.2689 -0.4899,1.3297 -0.7198,-2.5694 0.6198,-5.6086 -1.7895,-6.4384 2.5893,-1.7496 0.5099,-7.3981 -4.109,-9.0478 -3.1092,-8.2179 -0.01,-0.02 -4.4789,-12.6569 -5.1787,-7.3881 -2.5294,-7.1682 -1.0997,-9.5677 -1.4796,-7.1382 -1.7496,-15.2362 0.4499,-11.887 -0.7398,-5.4287 -2.8893,-4.1089 -3.7291,-8.258 -3.6991,-12.007 -1.5096,-6.2984 -6.1984,-9.8176 -0.24,-7.7281 -0.5698,-6.3384 1.3896,-8.8878 3.0693,-9.2677 0.5398,-4.3389 2.8993,-9.1477 2.0495,-4.159 4.8788,-6.6483 2.7493,-4.5289 1.0397,-7.5381 -0.2899,-5.7786 -2.3894,-3.6391 -2.0595,-6.1884 -1.9095,-6.1285 0.4799,-2.1195 2.6093,-4.049 -2.3494,-9.8775 -1.5996,-6.8483 -4.069,-6.4684 0.8198,-1.9895 -1.1297,-3.1792 -2.1395,-7.6981 -6.7383,-10.8573 -8.4679,-10.3474 -5.4686,-8.4679 -5.0188,-10.5973 0.27,-3.4092 1.8195,-3.2792 2.0195,-7.4681 1.6696,-7.6081 -1.5596,-1.5496 2.8293,-11.5172 1.1797,-8.098 -3.2792,-6.7783 -3.7991,-1.7395 -1.7195,-4.5889 -2.1295,-1.4696 0.08,-2.8393 -8.5979,3.6891 -3.1592,-0.5299 -3.1792,2.2894 -6.6383,-0.2199 -4.4689,-6.4084 -2.7593,-7.4182 -5.8986,-6.7483 -6.2284,0.13 -7.3182,-0.01 -6.8383,1.1997 -6.6783,2.1794 -12.9968,5.9985 -4.6089,3.5092 -7.4881,2.9792 -7.3881,-2.9092 -3.7791,0.1 -5.7786,-1.9995 -5.3186,0.11 -9.8376,1.7896 -5.7686,2.9592 -8.2379,3.7591 -1.6096,-0.27 -2.1695,0.09 -8.5278,-4.8788 -7.4782,-7.798 -7.0082,-5.6086 -5.5087,-6.5984 -2.2194,-0.7598 -5.9085,-4.119 -4.229,-5.4786 -1.3896,-3.7391 -0.8798,-7.5481 -3.4991,-6.0485 -3.1293,-3.989 -2.0794,-1.3197 -2.0095,-2.0295 -0.8298,-4.4988 -1.1498,-2.2495 -2.3494,-1.6696 -4.2689,-4.2589 -3.4391,-0.6698 -1.7996,-2.8693 0.09,-1.5496 -2.4394,-2.1595 -0.4499,-2.1794 -1.0897,-7.7881 1.1997,-4.4989 -3.0693,-7.898 -3.929,-3.6091 3.6591,-1.9295 4.2289,-7.0983 2.1395,-5.1887 -0.4699,-5.4486 2.4694,-4.9688 1.4297,-9.4876 -0.4299,-9.9276 -0.7199,-4.9987 1.0598,-4.9888 -1.8196,-4.7588 -3.969,-4.3289 0.5799,-4.2189 0.6498,-4.6189 3.2092,-2.7193 2.8893,-5.1887 -0.3099,-3.3692 3.1292,-7.0082 4.7588,-6.2985 2.7393,-1.5896 2.4094,-5.7685 0.4999,-5.2587 3.1892,-6.0885 5.3887,-3.5891 5.4886,-10.0175 4.2489,-3.8991 7.2182,-1.0797 6.3985,-6.6783 3.969,-2.5994 6.7583,-8.128 -1.3097,-12.0569 3.2792,-8.308 1.2597,-5.0687 5.1187,-6.4784 7.6481,-4.3789 5.6586,-3.949 5.3087,-9.8676 2.5093,-5.8285 5.3787,0.04 4.2889,4.029 6.9883,-0.6499 7.5581,2.0895 3.1892,0.1 7.0882,-5.1787 7.9081,-1.6496 4.5888,-3.909 6.9783,-2.8693 12.2669,-1.6796 11.9671,-0.7698 3.699,1.3996 6.6784,-3.719 7.7181,-0.07 3.0492,2.1994 4.9188,-0.5798 7.6481,-3.7991 5.1287,1.1297 0.09,4.7688 5.9085,-3.4691 0.6398,1.8096 -3.3091,4.6288 0.2299,4.3689 2.6893,2.3594 -0.4399,8.218 -4.5588,4.7888 1.7096,5.2087 3.849,0.16 2.1395,4.5588 2.9292,1.4996 8.9778,3.2992 3.0792,-0.8298 6.3584,1.6096 10.2675,4.299 4.2189,8.5678 6.9283,1.8796 11.0173,4.049 8.5278,4.8188 3.4592,-2.5194 3.1792,-4.4489 -2.5194,-7.4082 1.8596,-4.6888 4.8987,-4.4989 4.9888,-1.3097 10.3474,1.9596 3.0792,4.2989 2.7994,0.05 2.5993,1.6396 7.6081,1.1297 2.2494,3.1892 9.9976,-0.16 7.6081,2.5494 7.908,2.8593 3.7191,1.5096 5.3686,-3.0692 2.6794,-2.7693 6.5083,-0.7998 5.5587,1.2197 2.8393,4.7988 1.2396,-3.1593 6.4284,2.2895 5.9885,0.5398 3.2992,-2.4294 1.6196,-3.1892 -0.6098,-0.5398 1.1697,-4.5089 0.1599,-7.2582 0.5999,-2.4294 0.18,-0.1 1.1097,-7.798 2.2994,-6.7283 0.07,-0.33 -2.2295,-7.2781 0.9498,-3.8991 -3.6291,-4.2989 1.9695,-3.5491 -4.2489,0.8098 -6.5484,-2.1695 -3.829,5.4287 -10.8373,1.0697 -6.8883,-5.0787 -7.8881,-0.31 -0.9297,3.9091 -4.8288,1.1297 -7.9381,-5.0288 -7.888,0.17 -5.8985,-9.3677 -6.1485,-5.1987 2.1895,-7.2682 -5.2987,-4.4489 6.1785,-8.8777 10.7273,-0.37 1.4796,-7.0182 13.5566,1.2197 6.9783,-5.9685 7.4381,-2.5894 11.3872,-0.1999 13.8166,6.4784 10.9772,3.5591 7.7281,-1.4197 6.2485,0.8198 6.7883,-4.7988 -0.17,-3.929 -3.6591,-6.2485 -5.0287,-3.3591 -4.109,-1.0498 -3.3692,-2.78724 -11.0272,-7.66209 -8.7279,-3.40715 -7.3981,-5.29068 4.4289,-1.43465 3.1392,-7.48913 -4.8388,-3.53012 8.4779,-3.6271 -0.8398,-1.94151 -5.3886,1.42964 -4.9888,0.71082 -3.4491,2.87629 -6.0086,0.47088 -4.6688,3.32117 2.0195,5.56462 3.899,2.16346 6.6384,-0.53887 -0.3399,3.2062 -6.8783,1.55861 -7.6781,5.2207 -4.2489,-1.83654 0.3299,-4.23694 -8.018,-2.63135 0.7198,-1.72157 5.5386,-2.97926 -2.4894,-2.04849 -10.9073,-2.25744 -1.3496,-3.32217 -5.8086,1.09673 -1.1697,4.91378 -3.4991,6.62635 0.7198,2.31742 -2.7893,1.93852 -2.2394,-0.8428 0.6098,10.90829 -2.6993,3.76202 -1.1097,6.5284 3.3091,5.2187 1.5596,3.5291 6.6884,2.9793 -0.7998,2.2494 -8.188,0.5099 -2.4194,2.8593 -4.9188,4.9787 -3.0092,-4.3089 -0.2599,-1.9095 -4.299,-0.26 -3.809,-0.8697 -8.048,2.3994 5.7486,5.1987 -3.3292,1.5096 -3.919,0.01 -4.4989,-4.7688 -0.9898,2.0295 2.4494,5.5486 4.229,4.3589 -2.3594,2.0495 4.6388,4.2989 3.969,2.7094 0.9398,5.2986 -7.0283,-2.4793 2.8393,4.7888 -4.4389,0.9797 3.949,8.3279 -4.8088,0.12 -6.5183,-4.109 -3.7291,-7.5281 -2.1195,-6.2384 -3.3791,-4.299 -4.379,-5.3186 -0.8497,-2.6494 -1.2897,-0.6498 -0.4199,-2.0395 -4.3289,-3.1092 -1.2197,-4.4089 -0.28,-6.2885 0.5399,-2.8593 -1.3797,-1.4496 -1.5496,-0.7098 -2.3594,-2.9893 -3.2292,-1.8195 -6.9183,-3.3792 -4.3989,-3.2792 -6.5883,-2.70427 -6.5284,-6.67234 1.2897,-0.67483 -3.5391,-3.79806 -0.4899,-3.04124 -4.4789,-1.41865 -1.5996,3.88603 -2.3194,-3.01624 -0.2,-3.11823 0.22,-0.14496 1.3896,-0.8148 -5.4486,-1.30467 -5.0787,3.1822 0.8198,4.46589 -0.5599,2.56936 2.6693,4.60186 6.8283,4.56886 4.239,7.52309 8.4779,7.3782 5.4086,-0.05 1.9295,2.0195 -1.7295,1.8395 6.6283,3.3192 5.4686,2.7893 6.6184,4.8288 0.9598,1.7296 -0.8998,3.3191 -4.4489,-4.3289 -6.2884,-1.5296 -2.2695,5.9985 5.5187,3.4492 -0.28,4.8587 -2.9193,0.5499 -2.9492,8.028 -2.9093,0.7198 -0.2699,-2.8593 0.9297,-5.0187 1.3397,-1.9895 -3.3592,-5.3987 -2.6593,-4.6888 -3.0392,-1.1497 -2.4994,-3.999 -4.6689,-1.6796 -3.3891,-3.7091 -5.2087,-0.5898 -5.8186,-4.159 -6.8383,-5.9685 -5.0987,-5.2587 -2.8493,-8.98974 -3.4591,-1.05274 -5.7186,-2.98626 -3.0292,1.2207 -3.6391,4.20395 -2.7793,0.66584 -5.8986,5.13865 -13.5766,-2.46932 -9.8575,2.95922 -0.6599,5.4987 0.4899,5.3186 -6.4684,6.1285 -8.9178,1.9395 -0.5998,3.1092 -4.2989,5.1288 -2.7294,7.5581 2.7694,5.3387 -4.139,4.1689 -1.5696,6.0885 -5.4487,1.8795 -5.2087,7.2382 -9.2077,0.15 -6.9083,-0.18 -4.6388,3.3292 -2.8993,3.5791 -3.5391,-0.7898 -2.5794,-3.1892 -1.8395,-5.4286 -6.6883,-1.4597 -3.0293,2.4394 -3.749,-1.3197 -3.7891,1.0298 1.5196,-7.3582 -0.3499,-5.7685 -3.1492,-0.8598 -1.4796,-3.5391 0.9497,-6.1085 3.0393,-3.3692 0.7298,-3.759 1.8195,-5.5587 0.09,-3.909 -1.1797,-3.3092 -0.1,-3.0892 0.7898,-6.5284 -2.5293,-3.959 10.0874,-6.56333 8.228,1.63959 9.1477,-0.058 7.1882,1.55261 5.6686,-0.47688 11.0073,0.29992 3.5891,-5.44364 1.4596,-17.93153 -6.6583,-9.35267 -4.7088,-4.48289 -9.8176,-3.40015 -0.3799,-6.4144 8.3779,-1.90853 10.7173,2.25644 -1.8595,-9.89654 5.9485,3.74007 14.7263,-6.79031 1.7796,-7.09023 5.4087,-1.73957 4.9287,-1.69857 3.0993,-2.35842 4.8088,-12.54887 8.038,-3.54112 5.0187,0.23894 1.0398,-1.78655 4.9687,-0.45789 1.2697,1.85854 3.6891,-4.15297 -1.6596,-3.14621 -0.7198,-4.74082 -2.7993,-4.61385 -0.9698,-8.4389 0.7398,-2.21545 1.3897,-2.45439 4.9387,-0.50587 1.7296,-2.24844 4.239,-2.29443 0.3399,4.18596 -1.3497,2.66233 0.9698,2.29543 3.2592,1.24369 -1.0198,3.10623 -1.8295,-0.89578 -3.4892,5.95452 2.0395,4.05099 0.4599,3.22619 6.1985,1.95052 0.2999,2.98026 5.8585,-1.57761 3.0293,-2.29743 7.1782,3.31318 3.2192,2.68033 3.6991,-2.47139 8.6078,-3.88003 6.8983,-2.82829 6.1685,1.41164 0.8598,2.0405 5.7385,0.10597 0.5499,-3.67808 7.4781,-2.70333 -2.9092,-6.96627 -1.3197,-6.19145 1.4796,-5.13073 4.5589,-2.7773 6.1684,6.08748 4.5089,-0.15896 -0.7398,-6.25344 -0.7798,-4.77281 -1.7396,1.01674 -4.3589,-2.86229 -1.8395,-4.60985 6.2084,-2.22444 6.4684,-1.15672 6.3384,1.31568 5.5287,-0.23594 4.5188,-4.39191 -7.0282,-3.75806 -9.4577,0.62784 -8.4478,2.89828 -8.248,1.67158 -4.3889,-4.31792 -5.9085,-2.58736 -1.0798,-7.70308 -4.5988,-6.97826 1.0497,-4.46489 2.9893,-4.77781 8.2979,-8.15997 2.6094,-1.56161 -1.7496,-3.14222 -7.968,-3.48813 -7.3682,2.08648 -2.8693,5.18071 2.2695,4.58686 -5.9985,6.07749 -7.9281,6.57136 -1.0797,10.90628 5.0587,5.52463 6.1785,4.38091 -2.8693,8.98876 -5.3087,1.87853 0.6299,13.60961 -1.7996,7.69208 -7.1282,-0.7968 -2.2094,6.56037 -6.6984,0.3819 -2.9792,-7.81705 -6.1085,-9.29069 -5.8486,-11.43315 -4.3389,-4.90978 -9.7475,9.27869 -7.2382,1.89353 -8.008,-4.10797 -2.5494,-8.60486 -2.9393,-18.12949 4.3489,-4.96776 12.6769,-6.4254 8.6578,-7.80505 6.9483,-10.37342 7.908,-14.0415 5.9885,-5.36367 9.0078,-8.79781 8.088,-3.02724 7.0382,0.36691 3.6891,-5.67359 7.5981,0.30092 6.5784,-1.35266 15.756,4.99176 -4.2989,1.84254 7.1382,4.35691 2.9593,-2.41839 9.5876,4.21095 12.9168,1.66958 22.1345,8.022 5.8485,3.41215 3.6391,4.8208 -2.5993,3.83805 -6.4284,1.95951 -24.144,-5.56462 -2.8893,0.92677 10.6174,5.37067 6.6583,11.06124 7.5681,2.29843 4.9488,1.96251 -1.4097,-3.66009 -4.9287,-3.34516 1.6296,-2.71033 14.4963,4.65484 2.9793,-1.82654 -6.6583,-5.45465 6.2284,-7.2102 4.5989,0.4209 6.1884,2.56436 -0.9297,-5.02875 -7.0283,-4.32192 -1.0297,-4.29693 -6.6784,-4.4169 14.1765,2.27843 5.8085,4.006 -5.0187,0.88678 3.1292,4.02 5.5386,2.49038 5.9086,-1.57861 -2.6294,-4.61485 6.5084,-3.41615 9.8076,-6.09748 3.6291,0.34691 -0.22,4.30493 6.2285,0.74282 0.8198,-2.4314 8.0879,-0.19595 3.4692,-2.93227 9.5276,4.26694 -0.07,-4.68883 -9.0177,-4.06099 -0.3699,-2.29643 15.0062,2.10548 8.5279,2.18445 25.5536,8.08299 -1.5696,-3.72008 -9.0477,-3.72707 -1.9795,-1.48663 -6.0285,-0.68683 -2.7293,-3.29717 -9.1178,-5.37067 -2.9792,-2.18245 -0.8898,-6.10448 -6.1385,-6.0245 0.9098,-1.28868 12.7668,1.73057 6.4484,3.67908 4.2589,5.43365 5.6186,2.15846 8.088,4.77781 11.957,9.52963 10.5174,4.33292 4.199,4.76481 3.4991,10.30044 6.6184,1.08173 -1.2697,-2.63735 2.8293,-1.87153 -3.2392,-3.58911 -0.4599,-3.42814 -7.898,-4.06099 -4.189,-4.67084 -5.5286,-0.57785 -6.3084,-3.89104 -6.3985,-6.93527 -13.3666,-5.53962 0.2999,-4.52087 -8.2979,-4.70383 1.6696,-0.14996 7.868,3.66208 8.4079,6.46439 6.1985,1.2377 -9.2877,-4.85879 2.4394,-2.62235 7.5381,-0.35091 13.6066,3.80305 -12.8168,-5.54262 -12.5369,-6.96127 4.079,-1.30067 9.4077,0.28393 6.3584,-0.84279 -9.5477,-3.33917 -4.3289,-4.14197 3.6591,-0.17096 0.04,-3.08623 7.1482,-0.82179 -2.7793,-1.68358 7.4482,-0.56686 6.0784,1.37465 -0.5398,-3.24219 6.3184,0.10098 -5.9285,-2.60336 -3.8091,-2.53936 0.5699,-2.4204 10.8573,1.90852 -0.16,1.46264 9.8276,0.91477 m -2.0095,281.00698 5.8685,6.5484 3.4192,0.4299 3.0492,2.4894 -5.5286,0.7498 1.2397,7.2082 -0.13,3.2692 -1.8895,2.1794 1.6896,4.6289 4.4788,6.9083 7.4582,1.9595 6.5284,4.7288 10.8273,1.6196 10.4774,-2.4894 -0.06,-2.2094 -3.6391,-6.6384 -2.4394,-9.7875 -6.6784,-3.1493 -0.5098,-6.3684 -4.8788,-0.5398 -1.3597,-7.7981 7.4582,2.2694 4.9987,-2.9592 -7.2482,-5.5286 -4.079,-5.2487 -4.6388,2.3394 1.8995,6.7383 -4.4589,-5.9585 -1.2597,-2.2395 0.19,-3.819 -2.5794,-3.1792 -9.1677,-3.1092 -6.3284,-8.15601 -4.6588,-2.29043 -1.4097,-2.94327 6.8983,0.85779 -2.4894,-6.58736 5.0588,-1.45964 6.4184,1.34267 -2.6894,-8.73982 -3.6791,-5.50963 -6.3684,0.42989 -6.5483,-2.16846 -5.8886,3.90903 -5.3586,1.86853 -0.8298,5.30168 -5.8486,1.47663 -3.0592,9.28469 9.3577,8.59086 1.5896,6.13245 11.4071,10.7673 5.3887,4.8488 m -703.1348,-284.98419 -14.7263,4.55987 -8.8778,2.08948 -3.969,0.29592 -14.0765,2.60635 -8.238,0.93977 -0.4899,-1.32767 v 0 l 19.8351,-4.52887 18.9453,-3.85204 4.5389,0.082 7.0582,-0.86479 m 58.5454,3.23918 -1.2097,1.92552 6.4184,-0.014 -1.8695,1.98651 -6.0485,2.28743 0.7298,1.38765 -1.0797,1.46564 4.039,0.27293 3.909,0.51887 8.2679,-1.34167 8.028,-0.52487 4.6589,0.43389 -0.9298,2.33742 -4.1689,2.58936 -5.3787,1.67558 -7.918,1.36266 -3.1193,-0.77181 -12.2369,0.97776 -7.6281,0.11197 -4.199,-0.7828 -5.1387,-2.0365 6.3984,-3.43714 6.5884,-3.06624 2.9193,-2.66933 -5.0388,-0.74182 0.8898,-1.87053 7.5081,-2.45439 5.6086,0.37791 m 539.7856,40.9288 -1.7696,0.60085 -14.4364,-0.88878 -4.2689,-3.02024 -9.2177,-1.81255 -4.3789,-3.6241 2.4793,-1.42964 -4.1189,-3.60611 1.0297,-5.56161 -4.3589,-0.7898 1.7096,-5.60761 -4.7288,-2.85828 3.2391,-3.28719 5.2887,-3.94501 9.1977,-1.13772 1.7996,-2.23744 4.9188,-0.77881 6.5083,2.37641 1.0998,1.88953 -6.8783,3.04024 -5.9585,2.95826 -2.5494,6.00251 2.6393,6.28443 1.5996,6.31743 7.1383,5.55062 14.0165,5.56461 m -598.231,-35.52415 -4.6089,2.18246 5.7686,-1.02775 2.8193,0.26694 -7.2982,3.02224 -9.6776,2.96027 -14.4564,0.97575 -16.116,2.74032 -5.8585,0.14396 5.0087,-2.06648 14.7664,-2.77831 -17.8656,0.74482 -1.7595,-1.11773 22.0845,-6.02949 8.1579,-1.70158 3.3692,2.05349 -4.099,3.64309 4.7488,0.47088 11.2972,-5.87053 9.2877,-2.19946 1.3696,0.69783 -6.9382,2.88928 m 40.3699,-3.14022 -4.5888,2.8063 -7.6081,3.14522 -12.5669,4.62585 -7.3282,0.64384 -1.3896,-1.00375 8.9477,-3.6321 -6.8083,0.47688 11.9571,-4.74282 3.0692,0.18996 10.3274,-2.06549 3.6991,0.34792 2.2894,-0.79181 m 819.016,7.06924 13.3867,4.63985 -13.6566,-0.17396 -1.0097,1.49063 -20.355,-4.08598 -12.4969,-4.25394 0.4399,-1.14872 9.7976,0.26793 23.894,3.26419 m -828.0537,3.6331 -7.3282,2.44439 -4.149,-0.47088 -0.5798,-1.64459 8.3779,-2.8153 8.8578,-1.67059 -2.0095,2.17746 -3.1692,1.97951 m 858.3062,-0.65184 4.7488,2.48538 -7.6581,-0.56386 -15.2062,-2.47838 -6.3084,-2.0165 9.7975,0.93777 14.6264,1.63559 m -1014.1274,23.99802 -18.8653,3.38016 5.1187,-2.97526 -0.2599,-3.55611 6.9682,-2.17446 17.5157,-5.46464 14.9163,-4.27494 7.4781,-3.93202 15.0363,-0.99475 1.4796,1.32267 8.3279,0.35491 -1.3697,1.85654 -3.0492,2.71732 -8.8978,1.6406 -21.0647,4.61585 -16.4459,4.65884 -6.8883,2.82529 m 127.5182,-9.14672 -13.9165,4.95277 -4.009,-0.24894 9.2977,-5.80855 6.8383,-3.2432 7.788,-2.74731 7.3982,-1.74757 7.1282,0.22295 3.7791,1.56161 -17.2057,5.78256 -7.0983,1.27568 m 900.7957,-2.88428 -5.5886,0.045 -9.9676,-0.72582 -1.7195,-0.34392 -4.4089,-2.55836 2.7293,-0.59685 13.1267,2.47038 5.8286,1.70958 m -912.9826,-4.09099 1.3896,1.35766 8.4079,-0.8178 -3.0792,1.87554 -10.1775,3.12522 -0.06,2.83229 -12.7068,5.99751 -11.7171,2.61035 -2.7793,-0.56486 2.3994,-2.57136 1.0098,-5.14072 4.6688,-2.10947 6.0785,0.81679 5.1487,-4.28093 11.4172,-3.13022 m 42.3794,4.44989 -4.5389,4.09398 13.2267,-5.28568 14.3765,-2.65934 -5.4887,6.74132 -7.918,4.33892 10.9573,-1.93052 7.998,-2.62535 3.2092,3.34617 0.5198,3.18121 -3.879,2.93827 9.7176,-1.52562 -1.9295,4.31392 6.2684,2.69933 v 2.77431 l -4.149,6.51438 -12.017,3.28018 4.8688,4.63984 5.3087,1.57061 -0.6998,6.63035 6.7483,0.48188 -6.6783,5.12872 -16.9858,8.59986 -2.6993,-3.18021 0.09,-7.08923 -7.0582,0.91777 -5.2287,4.21795 0.4299,4.31493 3.0392,3.43814 0.02,1.9955 -4.059,7.49414 -6.9182,5.50063 -4.4389,-2.07949 -6.5484,-6.10248 0.5399,6.57137 0.8798,4.64684 -1.6696,2.70333 -11.0473,-3.08923 -6.4884,-4.46589 -2.2194,-3.72208 4.029,-2.14646 -3.1592,-3.88903 -3.0193,-3.64709 -2.4094,2.17745 -15.5961,1.2017 -1.0797,-2.58235 9.8675,-5.49863 9.1777,-0.13197 10.9773,-0.94876 1.5296,-2.64135 6.0385,-3.66808 14.6164,-7.08824 2.7193,-3.1852 1.3797,-2.45139 -2.2795,-3.45214 -5.6086,-2.4034 5.2587,-1.77956 1.6096,-4.34192 -3.1592,-0.3959 0.1699,-2.35541 -5.3186,2.04149 -9.0378,0.89277 -12.9967,-1.55061 -5.5786,-2.02649 -5.0188,-1.03675 0.7098,-2.4074 9.7076,-3.10222 -5.7086,-0.03 11.1872,-6.7953 14.2165,-5.89454 9.0378,-2.65633 12.9267,-1.71758 -10.7273,4.19196 m 38.1204,0.35691 -2.6293,1.81155 -3.7591,-0.19195 -3.899,-0.13897 -5.6886,0.88378 -0.4299,-0.3989 1.8395,-3.46814 4.329,-2.33341 2.5493,-0.4289 7.2682,0.69583 0.4199,3.56911 m -102.1545,-2.06648 -13.1468,4.31392 4.6089,-4.57386 3.4091,-0.90677 5.5986,-0.25894 -0.4698,1.42565 m -41.0998,1.94451 -9.4577,3.07623 13.3667,-1.9895 -2.5494,3.32617 12.257,-3.36416 -1.5296,2.15546 -11.5172,6.54237 8.128,-2.77631 12.6969,-6.76231 5.5786,-0.95576 1.3396,1.04474 -1.7295,2.64834 -11.6871,6.48238 -8.7278,4.76782 0.08,3.38315 1.1997,3.26219 -6.2384,3.05424 -8.078,0.56086 -2.3194,2.69133 -6.2385,2.58336 -5.8385,-1.10873 -3.8491,-1.89852 -5.8585,0.42589 -12.8368,2.3894 -15.4661,1.24069 -6.9083,0.48888 4.4289,-3.33317 -1.9096,-1.91252 -5.4886,0.7828 6.6783,-5.51962 4.4389,-0.73682 9.0778,-1.1787 5.2287,0.30992 8.048,-1.1987 -4.5289,-1.6036 -10.0775,0.54486 -5.5686,-0.13796 3.6291,-2.51938 15.7461,-2.71432 -6.4584,0.094 -2.8093,-1.77756 15.5661,-5.00975 9.2577,-2.63235 20.215,-3.98501 0.7098,1.25969 m 45.2186,24.49988 -11.827,7.19621 14.7863,-5.52463 -2.0595,4.53287 -9.5076,5.28069 -2.9193,4.85679 12.4569,-5.20071 12.5469,-6.13447 12.3069,-7.68109 5.1787,0.53187 4.6988,1.02275 0.5199,3.46813 -4.8688,3.49813 -8.7678,3.78706 -2.2494,3.83404 -5.4287,3.51013 -16.026,5.09173 -8.058,1.13072 -1.7395,-2.20245 -6.5584,3.67908 -13.1867,6.23745 -5.8386,3.26419 -12.4969,5.08573 -7.748,0.50187 -8.228,3.20121 -6.9183,4.95876 -7.1682,0.95976 -14.4864,6.24745 -16.9857,8.78081 -9.8776,6.21545 -11.5871,9.2537 6.4884,1.33866 -6.1985,7.55812 -4.2489,6.17446 9.6876,-1.61259 6.7583,3.53911 2.4794,3.11723 0.1599,3.89403 4.9988,2.27543 2.7893,3.49313 9.1977,0.48088 5.6286,0.8028 -7.5481,7.2362 -5.6086,8.46889 -3.6591,9.51563 2.5794,8.14097 6.9782,-2.7973 10.3674,-8.79081 7.998,-13.35568 -0.3499,-4.4089 12.8468,-3.91002 11.7171,-5.81655 8.2979,-5.74257 4.4889,-5.47364 2.6194,-6.90328 -0.8598,-6.06649 14.7863,-8.36892 4.9988,-7.15122 11.3271,-12.16896 5.5387,-1.77856 6.4983,2.09748 4.4989,0.75281 6.3784,-2.0295 2.0795,2.61735 1.8596,4.50188 -1.3797,3.03225 8.8278,0.59185 -6.3184,6.61335 -7.2282,10.06549 3.939,1.25369 -0.01,4.74382 11.7371,-4.47189 12.6368,-8.8128 6.6884,-3.68208 -1.7296,7.08823 -0.9798,10.24245 -1.0797,9.75457 -6.0285,5.15372 4.4089,4.65384 2.0095,4.74082 7.948,2.15346 2.0795,2.66334 -2.0495,7.10323 3.989,1.11972 0.5199,3.18521 -5.0787,9.55462 -6.2885,3.21719 -6.1384,3.01225 -11.9871,3.05924 -11.977,7.10123 -11.4771,1.40965 -12.3669,-1.82754 -9.3977,-0.062 -6.8883,0.60185 -9.2577,6.24045 -10.5673,3.87004 -16.6059,11.6401 -12.5769,8.18396 6.4684,-1.46164 17.5856,-11.6191 17.9856,-7.30918 10.0774,-0.87179 3.0993,4.29393 -9.5477,5.90553 -3.4091,9.53863 -1.5796,6.72032 6.2084,4.46689 11.6571,-1.29668 11.8271,-10.0215 -2.8893,6.45639 2.6294,3.2372 -11.1873,5.87553 -17.5656,5.35767 -8.5578,3.65709 -10.9173,6.52837 -4.8288,-0.66683 3.759,-7.66609 15.6062,-7.45115 -10.8473,0.29493 -8.038,1.09473 -0.4499,2.95226 -9.5676,4.37291 -8.6579,3.12422 -8.6378,2.68534 -7.1583,5.9485 -1.6695,1.4997 -2.6694,4.8487 -0.2699,4.8588 2.7493,0.23 1.0198,-3.3492 1.0097,2.0395 -1.9095,2.6193 -5.4487,1.4897 -3.2492,-0.18 -5.9785,1.6096 -3.2692,0.4599 -4.2889,0.4599 -7.2282,2.6693 11.1672,-1.7395 1.1597,1.7395 -11.2272,2.7793 -4.4788,0.01 0.8098,-1.1297 -3.4892,2.5594 1.8496,0.4299 -4.9688,6.6583 -8.7978,7.1682 0.6898,-2.3994 -1.3097,-0.4799 -1.1297,-2.3294 -1.0997,5.0188 0.8498,1.6696 -1.5696,3.5191 -4.099,3.6391 -7.6981,7.4981 -0.4799,-0.3699 5.3487,-6.3884 -1.8795,-3.5791 3.1192,-7.7581 -3.4491,4.029 -1.4697,5.9385 -3.809,-1.4096 3.2392,2.9592 -4.059,8.9378 1.7695,0.6599 -0.7998,3.2591 -3.3591,9.4677 -7.8381,7.0582 -8.8878,2.8193 -7.3481,5.5986 -3.979,0.6199 -5.3087,3.5091 -2.4794,3.2192 -10.9073,6.2384 -6.1984,4.5789 -5.9686,5.7186 -4.029,6.8683 -1.3896,6.7383 -0.7198,8.3179 0.7898,6.9083 -1.5096,4.2289 -0.3999,11.3672 -2.5094,6.6384 -1.6196,3.829 -3.929,6.0185 -2.7394,1.2497 -3.4591,-1.1997 0.2,-4.3289 -2.1995,-2.2695 -1.1897,-8.4579 -0.8898,-7.5081 0.2699,-3.839 4.029,-6.4884 -0.06,-5.3687 -2.6794,-8.1379 -2.3594,-1.4897 -9.4976,4.4089 -1.1697,-0.4799 -1.7996,-4.5388 -3.72905,-2.3994 -9.11173,1.2197 -6.27044,-1.0698 -6.08448,0.6699 -3.82405,1.3496 0.24994,2.7394 -1.83455,3.949 0.79781,1.9195 -2.00051,1.2797 -2.22444,-1.4297 -3.66009,1.8496 -5.41965,-0.31 -3.44814,-5.1387 -7.19321,1.2097 -4.53087,-2.2494 -5.04974,0.6798 -7.45415,2.2694 -10.22245,7.2282 -9.50264,4.209 -6.26044,4.6688 -3.68808,4.4089 -2.95426,6.7784 -1.56761,4.7188 0.11397,3.3591 0.006,0.01 -0.033,0.02 -6.4344,8.6279 -4.10498,7.1182 -5.45264,13.2967 -2.47138,4.8588 -0.48988,5.4386 0.84179,4.8688 -0.90578,7.7481 3.00625,7.4581 0.17496,5.7186 1.72257,4.9388 7.79706,2.6693 2.18546,4.209 7.82105,-2.8093 6.4104,-1.0198 6.51038,-1.8095 5.52462,-1.7196 6.22445,-4.099 3.53812,-5.8485 3.08323,-8.4079 2.24545,-2.9293 6.17946,-2.6093 9.11173,-2.3195 6.94027,0.3499 5.07473,-0.8497 1.28568,2.1194 -1.65858,4.8088 -5.96652,5.9485 -3.57611,6.1085 1.00875,1.7396 -2.34741,4.3389 -4.023,7.8481 -1.38766,-2.5894 -1.72756,0.17 -0.34592,1.4796 1.51362,0.04 -0.81879,2.7393 -2.37641,4.3589 0.32892,1.5596 -1.70558,3.5991 0.28393,0.9698 -2.11347,5.0987 -2.19645,2.6793 -1.53662,0.32 -2.38341,3.4991 2.24944,1.8295 1.02775,-1.5096 2.10247,1.2897 0.75881,0.3999 2.16446,-1.7796 2.35542,-0.1399 0.57485,0.8198 1.36866,-0.4999 3.57711,0.9098 3.81005,-0.26 2.85029,-1.1197 1.19371,-1.1297 2.47438,0.5199 1.79755,0.6898 2.17346,-0.2399 1.79755,-0.8798 3.41415,1.3996 1.24269,0.23 2.09048,1.8895 1.89053,2.2694 2.64834,1.5496 1.5976,2.7794 -0.88677,0.9697 -0.84679,2.2594 0.13996,3.7091 -2.50937,3.4592 -1.6006,4.0789 -1.03575,4.4789 10e-4,2.6194 -0.53786,4.5688 -1.41165,0.9998 -1.44564,4.3589 0.15696,2.6793 -2.06549,2.6094 -0.017,2.7493 1.02374,1.6696 1.32567,5.5386 2.64934,4.109 3.32917,4.3589 2.52737,3.6591 -0.41689,2.1594 3.24119,0.4599 0.87378,-0.8298 1.98951,2.5094 4.14197,-0.7398 3.79805,-2.5794 5.24369,-2.0594 3.16722,-3.0493 4.48087,0.5999 -0.4199,0.9997 4.5589,0.3499 3.4691,1.7696 2.3594,3.0692 2.8093,2.8193 4.239,0.3299 6.9383,-7.1282 3.5191,-1.0897 0.4599,-3.3792 2.5293,-8.6178 5.3187,-4.7188 5.1987,-0.2 0.9298,-2.1195 6.3184,0.8498 7.1282,-5.1387 3.4992,-2.2794 4.6288,-4.8988 2.8193,0.6198 1.7896,2.6794 -2.0395,3.4291 -0.5399,2.3994 -4.9688,1.1897 2.1095,4.6189 -0.7298,5.3286 -4.2989,5.9286 2.2794,8.0979 3.6191,-0.6598 2.6194,-7.3782 -2.1595,-3.5891 0.4799,-7.718 10.7373,-4.139 -0.5399,-4.7988 3.2992,-3.2092 2.0295,7.1482 5.7486,0.16 4.6688,5.6885 -0.06,3.3692 7.3782,0.09 8.9078,-1.0498 4.2289,4.5689 6.1785,1.2597 4.9387,-3.1892 0.36,-2.5594 10.2574,-0.6198 9.8775,-0.14 -7.2981,3.0093 2.3494,4.8188 6.5184,0.7598 5.7885,5.0187 0.6299,8.188 4.3289,-0.2399 3.0492,2.4094 5.1487,3.759 4.6489,6.6684 -0.1,5.2686 3.1092,0.24 4.149,4.9887 3.0792,3.5692 9.8276,2.0494 0.9797,-1.8495 6.7484,-0.7398 8.7778,2.7593 2.7593,1.1197 5.9985,2.4294 8.4379,8.6479 1.2297,4.1989 2.8493,-0.4899 1.8795,5.6686 4.2689,17.9456 4.4289,1.6895 0.15,7.0783 -6.2984,8.4479 2.5793,3.0892 14.7064,1.6096 0.3599,10.2874 6.2684,-6.7283 10.4874,3.6891 13.8665,6.2584 4.129,6.0185 -1.2697,5.6786 9.6076,-3.1692 16.276,5.4287 12.4069,-0.3999 12.4469,8.4878 10.8873,11.4772 6.4684,2.9592 7.1082,0.4099 3.0992,3.2292 3.2392,13.0368 1.6096,6.1885 -2.5593,16.8957 -3.8591,6.6684 -10.7873,14.1864 -4.4589,11.5072 -5.4086,8.8078 -2.0395,0.1999 -1.6796,7.4682 2.2594,18.9853 -0.6998,15.5661 -0.15,6.6383 -2.1094,3.969 0.1599,13.4367 -6.4384,13.0667 0.08,10.3075 -5.7985,4.3189 -0.9598,5.9685 -8.5879,-0.03 -11.807,3.8191 -4.7988,4.4189 -8.308,2.8992 -7.778,7.8781 -4.6989,9.7875 0.37,7.3482 2.4293,5.4287 0.7099,9.8975 -0.6699,4.7688 -4.0989,5.3587 -4.219,17.0957 -4.5988,7.6581 -3.8691,4.5089 -0.8098,9.1377 -3.2892,5.4786 -1.3696,5.9985 -6.6484,5.2987 -6.0485,-1.8995 -3.649,1.0197 -8.158,-4.0989 -4.8988,0.3099 -6.2584,-5.2787 1.1597,4.9788 12.097,8.1579 1.2596,6.5384 5.9886,4.119 1.2696,4.6088 -2.4893,12.047 -8.6579,5.0188 -13.4966,1.9395 -8.208,-0.9398 3.8291,5.5586 1.5496,6.9583 3.3392,4.6589 -2.7394,3.2491 -6.5683,1.2797 -8.268,-3.3691 -1.5696,2.4194 5.3187,9.1377 5.9885,2.7593 2.3994,-2.8893 4.3189,4.7488 -4.9387,2.8393 -2.6594,5.6586 3.7091,9.1177 0.9698,4.8288 -6.3185,0.02 -2.6993,4.6089 1.8995,6.7083 10.2275,6.5184 7.2882,1.7895 2.3994,7.9381 -4.6089,4.9587 2.3094,10.2375 -3.5291,3.4291 0.14,4.059 8.118,8.9378 7.5281,4.9488 -2.8793,-0.4399 -5.4886,-0.06 -1.4397,2.0995 -3.2392,3.0692 4.9488,7.898 -2.3794,0.19 -8.8678,-2.7393 -11.4471,-5.8886 -11.3272,-4.8787 -6.0485,-5.4187 -1.9995,-5.0387 -7.3582,-5.7486 -11.3672,-14.8663 -3.0092,-8.4679 2.4094,-6.8483 -11.6471,-2.5993 1.2697,-7.8881 -6.7983,-14.9563 9.3776,3.1792 -7.1182,-18.8353 -5.9585,-2.4394 4.2289,11.3972 -5.0387,-1.2797 -5.1587,-13.0767 -6.6584,-17.0958 0.04,-6.3584 -6.5183,-9.1077 -5.6186,-10.5774 2.8992,-0.2999 -2.3894,-15.2662 -1.3196,-15.2362 -2.4994,-14.2964 -7.1382,-14.4564 -0.5899,-7.998 -5.0387,-12.0171 0.5998,-11.937 -4.3889,-19.0152 -3.1992,-20.5449 -3.0892,-22.2545 -4.309,-16.3759 -4.6288,-14.1365 -9.2377,-5.7785 -1.5096,-4.139 -17.9756,-10.1275 -16.5858,-11.0572 -7.3682,-6.2485 -4.7888,-8.3679 0.8698,-2.9293 -8.9578,-13.3366 -10.6373,-18.7854 -10.0875,-20.3249 -3.84408,-4.6588 -3.29518,-7.5282 -6.99526,-6.6783 -6.22845,-4.149 2.34942,-4.5688 -4.65084,-9.7676 2.19345,-7.1782 6.32443,-6.4784 4.13997,-7.6581 -1.93152,-4.4789 -3.03425,4.7588 -5.11472,-4.4888 1.61159,-2.8993 -1.5766,-9.3077 2.89428,-1.5496 1.48363,-6.3884 3.15121,-6.6084 -0.55186,-4.1889 4.57886,-2.1995 5.77656,-4.079 -1.06973,-3.1892 3.11919,-0.7698 -0.2499,-5.1387 2.0595,-3.7191 4.149,-0.6798 3.729,-6.4484 3.4092,-5.3787 -2.9493,-2.4394 1.8696,-5.9485 -1.2997,-9.3676 1.9595,-2.6894 -0.6698,-8.6578 -2.8993,-5.4487 -2.4994,-2.9592 -1.2597,-5.5187 2.3094,-2.7293 -2.0195,-0.6998 -1.1997,-3.3692 -3.809,-2.8393 -3.67711,0.6499 -2.05349,3.5491 -3.6031,2.5694 -1.83954,0.3599 -1.02475,2.1194 3.41215,5.5587 -2.37841,1.2996 -1.33166,1.5197 -3.89803,0.5198 -0.86279,-6.1084 -1.24369,1.7395 -2.67033,-0.5998 -1.26269,-4.119 -3.31917,-0.6798 -2.0205,-1.1897 -3.54812,0.01 -0.48488,2.2194 -0.7888,-1.5396 -4.24394,-2.2694 -1.44164,-2.1495 1.14971,-1.7696 -0.042,-2.2594 -1.9995,-2.4394 -3.00325,-2.0095 -2.67534,-1.3097 -0.16396,-2.9792 -1.92352,-1.8296 0.14497,2.9693 -1.95252,2.4394 -1.52562,-2.8293 -2.51637,-1.0098 -0.85479,-2.0595 0.46789,-3.0992 1.53761,-3.2092 -2.11747,-1.4396 2.16946,-1.9695 -2.36541,-3.2092 -3.2062,-4.109 -1.25769,-3.4292 -2.92927,-3.1892 -3.31917,-4.5888 1.1847,-1.5796 1.08273,1.5296 0.74582,-0.7098 -0.85079,-3.1792 -2.32342,-0.8898 -1.33867,2.3894 -4.71083,-0.15 -2.76831,-0.9697 -3.01125,-2.0195 -4.42389,-0.6299 -1.90153,-2.1794 -3.84904,-1.7696 -5.05774,-0.1799 -3.33317,-2.0095 -3.53612,-4.189 -6.8463,-10.8973 -3.43714,-3.2892 -6.0045,-2.6293 -4.70683,0.7298 -7.42015,3.8091 -4.32793,0.9897 -5.10373,-2.6593 -5.6146,-1.9196 -6.4194,-4.6388 -5.70958,-1.4096 -7.92102,-4.6889 -5.43565,-4.8188 -1.27768,-2.6893 -4.33992,-0.5999 -7.31518,-3.1892 -1.97351,-4.5888 -6.85729,-5.6986 -1.96551,-6.3284 -0.27193,-4.8788 2.99725,-0.9698 0.15796,-2.8593 2.73432,-2.5893 1.25669,-3.4492 -1.06574,-4.4888 0.74482,-3.959 -0.75781,-5.0288 -3.06824,-9.8775 -4.70183,-7.7381 -1.16171,-6.1585 -4.92077,-4.029 -0.34892,-2.4094 3.98001,-6.0885 -2.88328,-2.2894 -2.29243,-4.7788 1.43664,-6.8383 -3.74606,-0.7898 -1.83954,-5.1587 -1.11273,-4.7488 1.28668,-3.0393 -0.10397,-7.3381 1.49363,-7.4282 2.25643,-3.7191 -3.2062,-3.829 -2.76431,0.4199 -2.70532,-2.6594 -3.55312,3.9191 -1.48163,4.6388 -3.44514,7.2882 0.36291,3.999 2.0025,6.7083 0.035,2.2995 0.7958,0.6898 -0.75081,3.3592 1.43664,-0.14 -1.69858,6.3084 1.08773,2.4994 -0.077,3.4691 2.44039,4.9988 -1.71457,9.1577 0.35291,4.3189 0.11597,4.6289 -1.83254,5.2187 3.64709,0.3299 1.25669,4.4989 1.03574,4.4389 -0.91077,1.7795 -4.78581,3.6491 -1.38166,-0.05 0.36091,-6.0385 -2.7943,-5.6586 -3.6041,-4.7888 -2.90528,-2.5093 3.51413,-7.2282 1.29267,-5.3487 -2.26343,-3.0493 -3.2152,-4.3889 -1.64159,1.2697 -0.69983,-2.5593 -3.5941,-2.3794 -1.65759,-5.6886 0.94476,-0.7398 2.88829,0.5498 4.74981,-3.6591 2.60035,-4.3989 -2.14546,-6.9582 -2.99126,-2.6994 0.62185,-6.0685 0.87778,-6.3584 1.13172,-7.728 2.32842,-8.6579 1.87553,-4.9088 -1.22369,-5.5086 -2.70233,-1.1497 1.02974,-2.7393 -3.82804,-0.4799 -0.88178,-2.5894 -6.20846,-0.9397 -0.8068,-1.5396 2.79931,-5.2187 -0.13697,-9.5277 4.012,-13.1067 1.97351,-2.1695 -0.69283,-3.0992 0.88578,-7.828 5.42765,-7.5982 0.62884,-5.0587 8.31793,-7.6581 6.92928,-7.888 4.35791,-7.0083 10.90528,-8.57985 18.02052,-16.37992 11.38916,-11.97902 6.19646,-7.58411 2.67633,-4.09598 2.71732,-1.71757 5.99651,2.99026 -5.60461,8.35192 4.12398,-2.34142 6.85129,-7.2442 5.87754,-7.2012 -0.8328,-0.023 -2.33541,-8.56586 0.007,-3.74907 -6.93427,-3.58011 6.18946,-7.6161 7.69008,-5.24869 -2.99225,-3.6251 8.21895,-6.8293 1.32367,-6.10948 6.0525,-4.30893 1.33866,-3.13522 -1.22369,-2.65034 9.28868,-7.2062 3.02825,-6.62935 9.41665,-7.67109 -4.48188,-0.52187 -8.51488,-0.19895 -2.55136,-2.32242 3.29318,-8.31393 -2.45039,-1.50962 -4.19296,-2.8323 -8.71183,0.67483 -3.5931,-3.63309 0.26093,-3.35217 -9.18271,1.66359 -9.6546,5.48863 -3.96201,0.50688 -9.46464,1.65758 -9.98452,2.68833 -9.32567,1.69658 8.39091,-4.69883 17.92353,-7.75507 10.53638,-2.4164 2.57636,-1.96251 -15.6701,4.36791 -14.25245,5.2537 -19.04226,5.65759 -3.58611,3.88703 -16.31593,5.78556 -12.43291,3.39115 -10.30443,2.47939 -8.15797,3.6141 -16.75382,4.23494 -8.91278,3.86904 -13.20672,3.53612 -2.83329,-0.63784 -9.6496,2.31442 -11.07424,2.83129 -9.92952,2.79031 -14.45341,2.3904 1.6156,-1.40665 13.54263,-3.90002 10.4294,-2.56737 14.55738,-4.53287 8.90378,-0.93376 9.10873,-3.37816 17.12074,-4.90878 4.35591,-1.63559 9.6366,-2.87729 12.81481,-6.14147 12.15897,-4.75181 -11.17322,2.43439 0.96776,-1.38265 -8.79981,2.92527 4.54387,-4.07799 -7.27419,2.88328 6.01151,-4.002 -12.01101,3.2112 -3.37416,-0.006 9.30768,-4.77081 7.07524,-2.92627 2.48838,-2.8273 -10.24945,1.52063 3.46814,-3.72008 0.48988,-1.89453 9.86854,-4.45089 3.50013,-3.33017 12.31293,-4.46689 14.27244,-4.30592 11.17122,-3.93602 5.41365,-0.55786 0.55087,1.22269 12.8208,-3.67908 2.07049,0.65483 9.42865,-2.35741 7.41915,-3.45414 0.56886,-1.35566 10.76432,-2.89428 -3.1962,0.086 -9.23171,1.63159 -5.6106,1.66059 0.26194,-1.65659 -9.02875,0.84079 -2.58636,-1.79855 5.72857,-3.00525 5.34067,-4.31493 14.94228,-3.08323 20.11299,-3.57811 h 3.82005 l -10.4254,3.65909 10.68134,-0.28493 8.25894,-4.53187 1.88153,-2.76731 6.8223,-3.6071 4.4149,-3.05724 0.45489,-2.25144 13.48964,-3.71107 8.4149,-0.22795 15.01326,-3.1982 11.29719,-3.39216 14.40841,-3.28418 6.49438,-0.7858 17.26671,-3.03825 2.3594,0.45689 17.5357,-3.6201 1.7095,1.42165 -6.3784,3.07523 5.8086,-1.32167 5.7086,0.4089 -4.9088,1.57161 2.9393,1.16671 6.2284,-0.68683 2.5794,2.17346 6.2584,0.64784 0.7698,0.89977 8.6679,-1.12272 0.7898,2.07948 2.0394,0.97176 3.5991,1.67958 -1.7395,3.37116 2.9293,0.64884 11.0572,-2.92927 10.6374,-2.18146 4.2289,0.85179 13.9065,-3.05424 11.1573,-1.72257 -4.119,2.86929 7.0782,-1.6196 8.8778,-3.24619 1.0797,0.73282 -7.6681,6.21245 16.6859,-4.70583 -11.6971,5.27169 7.878,-1.14572 6.2585,-2.02949 4.2189,0.3999 -0.02,2.92727 4.5289,2.57136 3.4691,1.1967 5.2187,-0.45388 -1.4296,3.5861 -13.3667,3.53912 5.0888,1.53762 13.7965,-0.84579 6.2185,-1.25269 -3.2992,4.30593 11.6771,-3.6361 1.1897,-3.02824 7.5181,-2.4274 5.9685,-0.32592 4.8588,-0.70682 0.3399,1.68858 -2.6793,3.86504 6.0185,-0.56986 2.1995,3.23019 8.9777,-1.13971 6.2585,0.17195 7.1382,-4.44089 6.0785,-1.23969 2.7193,2.4094 -11.2872,6.78531 12.3169,-5.72457 3.2692,0.19095 13.9765,-7.12123 2.9193,-4.31292 0.11,-2.80231 14.4864,-7.56211 14.1865,-4.88579 3.1592,1.07474 -1.5397,2.97226 -8.2479,7.70108 -9.6476,3.40315 5.5386,1.40965 m -344.71902,-9.62361 -6.8173,0.41389 16.56387,-4.63384 1.53862,-0.28193 3.34717,0.014 -1.08073,1.93052 -3.6181,0.92677 -9.93353,1.6306 m 1471.76842,0.41388 -3.2792,0.34892 -8.3379,-2.16347 -4.9388,-2.81929 16.5559,4.63384 m -1153.6826,11.94003 -6.9883,2.47038 -2.1395,-2.13546 -4.9087,0.7698 -0.2,-3.15321 7.7481,-2.16146 8.5279,-3.00325 0.8497,1.96151 0.29,1.25069 -1.0898,1.32467 -2.0894,2.67633 m -398.65575,18.0765 -2.07548,1.81954 14.23345,-5.29568 9.33868,1.08273 -10.0715,6.8443 -13.47864,3.2192 -9.91453,0.76681 -19.6741,7.29618 -6.07749,1.56561 -4.013,-0.22495 3.2372,-2.62034 -0.55387,-2.18246 7.82106,-3.23119 -1.46564,-1.2127 -8.14197,0.96176 4.76281,-2.59136 8.90778,-2.73831 -10.70733,1.74856 -7.81305,3.48013 -11.62411,3.15822 87.20228,-28.9088 -6.46039,5.40865 -9.84255,7.13722 -13.58961,4.51688 m 465.79895,-4.10398 -5.6086,0.36291 3.4992,-3.53212 7.2582,-4.014 5.3986,-0.98776 0.8698,1.97451 -3.939,3.07124 -1.7896,0.99175 -5.6886,2.13347 m 279.6204,5.04274 -2.2095,4.75482 4.259,5.05674 -7.5681,5.70958 -15.5462,5.18071 -4.6788,1.38565 -6.2484,-1.11972 -13.1068,-2.3984 5.9685,-3.33417 -9.3176,-3.66609 9.0777,-1.44664 0.5599,-2.18445 -9.3877,-1.72357 5.0387,-4.79881 7.4982,-1.08373 5.6086,4.98876 8.4479,-4.008 5.2887,2.07748 8.7178,-3.90803 7.5981,0.51787 m -337.406,5.87354 -3.4991,3.26219 3.979,-1.14672 0.22,1.94952 1.9895,2.56136 2.6393,2.33642 -3.989,3.5861 4.3589,-0.58885 0.5199,2.50938 -7.2882,2.3924 -5.5686,-1.82854 1.4296,-3.40916 -9.9575,4.032 -12.047,3.94602 3.879,-4.45889 -7.708,0.72982 9.1777,-3.75007 8.4079,-5.91753 10.8473,-6.8083 2.6093,0.60285 m -448.88217,14.0405 -0.60085,1.44464 5.08573,-0.7798 -1.00375,2.0055 2.45539,1.01874 -2.46539,0.8308 -7.80605,1.61859 0.26493,-1.66258 1.53862,-1.38466 -5.53762,0.44289 0.49587,-0.67083 7.57312,-2.86329 m 436.89517,8.17997 -10.9872,4.25294 -3.4192,-0.17896 1.3497,-2.08848 8.038,-3.54512 6.8783,0.073 -1.8596,1.48663 m 8.6079,4.25693 -6.5484,4.07798 -1.5696,-0.66184 1.2297,-2.31542 0.8398,-0.53487 4.6088,-2.31842 1.9096,0.16896 -0.4699,1.58361 m -484.27242,17.62061 -5.98051,1.23569 -0.31892,-1.48463 1.45864,-2.15147 8.26794,-1.35266 2.66934,0.71582 -6.09649,3.03725 m 876.09482,10.18746 -6.3384,8.75182 5.7685,-1.11372 6.1585,0.043 -1.6396,6.64434 -5.3887,7.37117 5.9586,0.52686 5.4886,10.68234 4.029,1.34367 3.6691,9.58961 1.7295,3.34717 7.3782,1.61759 -0.6498,5.45165 -3.0993,2.50837 2.5194,4.4419 -5.5586,4.51387 -8.3579,-0.08 -10.6874,2.37841 -2.8792,-1.70358 -4.279,4.05699 -5.7785,-0.98375 -4.5789,3.31417 -3.2592,-1.73457 9.6176,-9.07873 5.6286,-1.85754 -9.6476,-1.43764 -1.5696,-3.41015 6.5284,-2.64735 -3.1192,-4.58585 1.4196,-5.54762 8.9178,0.76581 1.0397,-4.89578 -3.879,-5.28269 -7.0982,-1.47063 -1.2697,-2.25744 2.3294,-3.71407 -1.7896,-2.28243 -3.3691,3.92102 0.1699,-7.97402 -2.5993,-4.18995 2.6493,-8.4289 4.7588,-6.55337 4.379,0.63684 6.6983,-0.67683 m -851.24201,12.31594 -11.35517,3.11923 0.94077,-2.11348 6.19146,-3.82205 10.50138,-2.88828 5.30468,-1.23569 2.68933,0.54786 -2.29143,2.51938 -11.98102,3.87303 m 941.63951,12.38992 -2.5794,6.73732 -6.7483,-4.70383 -1.2397,-3.44114 8.128,-2.73832 2.4394,4.14597 m -115.3513,28.18198 -11.2872,5.05474 -8.6078,-1.29568 5.8285,-8.90578 -2.2794,-8.59586 8.7178,-6.56936 4.7888,-3.89703 4.9488,-0.34292 5.9485,5.15872 -3.5591,5.76656 0.5998,6.0325 -5.0987,7.59411 m 939.2661,12.98876 27.4531,15.40716 -13.3067,-2.88728 12.5869,12.69084 17.7656,9.08074 7.4581,6.22945 -11.5671,-5.37566 4.049,6.90528 -10.2774,-7.48514 -10.0176,-8.63585 -12.9367,-9.49463 -7.2682,-6.60836 -15.5661,-11.59411 -15.5762,-8.44689 -16.4959,-11.62811 -0.3199,-3.88503 -8.3579,-3.89603 0.8098,-1.17771 10.1275,5.55862 14.3964,8.15997 12.137,8.3999 14.9063,8.68284 M 864.49969,906.63219 v 0 0 0 l 6.68133,-0.67183 -15.2572,9.58361 -4.003,6.8453 -2.4214,-0.016 1.6026,-3.89903 3.14922,-3.90802 0.64884,-2.63635 4.15996,-3.70807 4.21295,-2.68134 1.2267,1.09173 m 440.01541,28.58988 -8.2779,7.58611 5.6985,-2.93627 3.2492,1.86154 -3.819,3.03624 4.3989,2.39241 4.019,-2.12747 4.9887,2.68533 -5.1487,6.4174 5.2287,-1.50163 -1.4296,4.66584 -0.5699,5.48864 -6.3484,7.81205 -3.1292,0.33092 -3.5391,-1.67958 4.8488,-7.2562 -1.2697,-1.12372 -11.2772,7.68709 -3.7591,-0.30892 6.6384,-4.16897 -5.1887,-2.15046 -7.2582,0.52887 -12.4869,-0.27094 0.3899,-2.61634 5.6786,-3.10323 -1.5297,-2.38941 8.238,-5.28168 14.1465,-13.84855 6.6183,-4.90678 7.0283,-2.96126 2.6593,0.37591 -2.4894,2.33041 -6.3084,5.43265 m -443.47355,18.97528 -4.61285,1.22369 -6.00851,-3.98901 1.69658,-3.10822 -2.08648,-3.05624 1.83354,-2.48238 -4.60785,-1.56561 3.39516,-4.71883 3.03924,-2.0015 4.22295,1.88553 2.23544,1.31268 4.78981,0.91777 -1.45764,2.99525 -1.75856,4.13497 2.17846,3.6071 -2.85929,4.8448 m 399.91435,-5.2177 -3.1992,0.15696 -6.6483,-2.74032 -3.4192,-4.11598 2.6394,-0.73181 6.9982,2.18145 4.369,3.64509 -0.7399,1.60461 m -24.6638,22.56238 4.129,1.1957 6.2484,-0.24294 -5.1887,3.65809 -2.7593,0.58285 -6.3484,-3.79105 v -2.98326 l 3.999,-2.74232 -0.08,4.32293 m 1392.5332,21.33768 6.9682,1.93052 0.3599,-3.83604 13.1568,10.18641 -7.3682,2.4894 3.819,9.0778 -17.5256,-6.2485 6.8083,10.0275 -7.5781,0.13 -10.4374,-9.1077 -4.139,-7.0183 6.7384,-0.5099 -12.087,-12.52284 -6.1785,-7.00926 18.7853,9.37067 8.6779,3.04024 m -907.2041,18.40839 -1.7995,7.0983 -3.2792,-1.8796 -1.9995,-6.1684 1.1697,-3.3992 4.1789,-3.4891 1.7296,7.838 m 952.5428,46.5584 3.899,7.5282 5.3487,4.7388 1.8195,6.6883 -5.7286,4.4789 -12.4869,0.5898 -2.0794,10.8973 -7.7781,-3.6691 -5.8285,-7.1382 -11.1973,2.0995 -5.3486,4.4989 -8.5379,0.1799 12.7068,7.0483 6.5284,16.3559 -2.1395,4.069 -6.1784,-3.7591 -4.119,-8.6878 -6.6883,-2.7993 -7.7081,-6.5784 4.8888,-2.9492 -0.5599,-6.0085 3.6791,-4.9288 0.3099,-6.4984 12.287,-2.8293 9.3976,1.9395 -6.5383,-16.7958 8.7178,4.4989 2.2994,-9.4077 0.7698,-3.6491 -6.2084,-11.4071 -11.3772,-10.4374 -2.8993,-5.8286 5.6786,-1.6895 16.7458,12.8168 7.1283,7.5381 2.2794,9.4076 8.9178,9.6876 m -954.3723,-37.9005 4.6388,6.5583 -0.16,12.277 -3.2691,-0.5899 -2.7094,3.1192 -2.8393,-2.4793 -0.9297,-11.1972 -1.9095,-5.2887 3.869,0.4599 3.3092,-2.8593 m 46.9283,27.6731 -1.8496,7.3881 1.3597,2.9093 -1.0497,4.8488 -5.8686,-3.5491 -3.769,-1.0198 -10.4674,-4.7788 0.6098,-4.8188 8.4679,0.8598 7.2182,-1.0197 5.3487,-0.8198 m 62.1145,23.804 4.4589,3.1993 5.6286,-0.5399 5.5486,0.6698 0.08,1.6496 3.819,-1.1397 -0.4798,2.8093 -10.4674,0.8098 -0.15,-1.5696 -9.2177,-1.8596 0.7798,-4.029 m 79.5602,0.32 -4.119,4.039 0.8898,1.7795 0.3899,0.7698 -6.7883,3.8591 -3.8491,-1.2297 -2.4393,-3.8291 3.4191,-0.3499 0.5099,-0.05 0.6098,-2.2894 5.2987,0.13 6.0785,-2.8293 m 742.9849,14.4864 3.4592,3.2691 0.1699,5.7986 -5.3386,-3.0692 -2.1595,2.2194 2.1195,5.6186 -6.8483,-2.7393 -3.2692,-4.5489 -0.16,-5.6986 5.0488,1.0998 -0.03,-4.009 7.0082,2.0595 m -1593.3531,73.2917 -3.6191,6.9983 -1.0298,-1.2597 1.8096,-5.1487 -2.1795,-3.8791 0.3699,-1.1297 4.6489,4.4189 m -6.3984,0.1 -8.9878,1.5796 0.6798,-3.6391 3.9091,-0.7898 5.0187,0.2999 -0.6198,2.5494 m 1562.3709,37.4806 0.1099,8.168 -7.768,-8.4079 -4.159,-7.3682 0.14,-9.7275 2.6593,-7.4882 5.0088,2.9493 1.5096,5.9685 2.4994,15.906 m -1568.8593,-9.6176 -2.0795,0.4899 -0.2899,-5.7086 -2.0695,-2.8692 3.6591,-6.2785 2.2294,0.3999 0.22,8.208 -1.6696,5.7585 m -19.7951,9.8776 2.1195,3.6391 7.7081,-1.1197 2.1594,2.3394 5.0588,6.1684 3.789,4.5089 2.6494,-0.14 4.2389,2.0395 -1.2797,2.8093 5.7786,0.4099 5.0587,4.099 -1.4996,2.3494 -5.6186,1.2697 -5.5086,0.4999 -5.3287,-0.7998 -11.6971,0.9797 6.7283,-5.5886 -2.6093,-2.5993 -4.9688,-0.6698 -2.0095,-2.8793 -0.3899,-5.6886 -4.5988,0.3899 -6.6784,-2.6793 -1.7995,-2.0895 -9.8975,-1.5496 -2.2095,-1.9396 3.6991,-2.4893 -7.6181,-0.5099 -7.21622,5.1787 -3.32717,0.14 -1.84854,2.4294 -4.24794,1.0897 -3.12122,-0.9398 5.09773,-3.0792 2.7903,-3.5991 4.24594,-2.2095 4.62485,-1.9395 6.27147,-0.9497 2.2394,-1.0898 6.6084,0.7099 6.1684,0.1099 6.4384,3.3892 m 1517.762,40.8698 -5.4186,4.8288 -7.5782,-3.1192 -3.0192,-8.6379 2.4294,-4.5388 7.7781,-2.8093 4.6888,0.2399 3.1092,3.819 -2.0295,4.4189 0.04,5.7986 m -1468.6542,-11.977 6.5984,1.5796 1.3796,-1.7096 6.2385,0.04 4.1789,2.5794 2.1695,-0.25 0.6998,3.5591 4.4289,-0.1999 -0.8798,2.9892 3.4991,0.37 3.2092,3.679 -3.799,4.099 -3.3992,-2.1894 -3.779,0.4199 -2.5494,-0.4799 -1.8195,1.8395 -3.2192,0.6199 -0.7299,-2.4394 -2.9592,1.4396 -4.5989,6.8983 -1.7695,-1.6096 0.1699,-2.8893 -4.9987,-1.7096 -3.949,0.6999 -4.7589,-0.7298 -4.1689,1.8795 -3.6491,-3.1292 1.3996,-3.2492 7.1083,1.3996 5.8985,0.8098 3.3692,-2.2394 -2.7294,-4.3489 0.8998,-3.8391 -4.7088,-1.5596 2.4394,-2.7693 4.7788,0.4399 m -39.1802,20.125 -2.8193,1.6796 -4.159,-1.6096 -3.8091,-3.6691 1.4797,-2.2995 3.5491,-0.6998 1.7496,0.3399 5.2187,0.8998 3.749,2.4194 0.7498,2.7493 -5.7085,0.19 m 91.9071,-3.6191 -2.5294,2.5393 -6.0585,-0.06 -4.7788,0.3499 0.3499,-4.309 1.4296,-1.4696 6.5684,0.06 3.949,0.8898 1.0698,1.9995 m 1504.8852,-2.7792 5.9585,2.8693 1.5696,-2.6194 1.6296,2.5594 0.1199,4.1689 5.1688,7.2282 0.5298,8.3879 -3.769,3.3492 1.1097,8.158 4.059,8.068 4.6288,1.1097 3.2792,-1.1997 11.7071,5.6286 0.6498,5.5186 3.2792,2.4394 0.2899,4.6888 -7.5981,-4.9887 -4.3689,-5.3387 -1.1597,3.7291 -6.7483,-6.0785 -7.0383,1.4996 -4.6388,-2.2394 -0.6898,-4.189 1.8595,-2.5793 -3.0792,-2.3495 -0.06,3.6591 -5.6086,-5.8285 -2.4594,-4.3989 -3.1692,-9.6776 4.2689,3.3192 -4.1289,-15.7861 -0.4699,-9.1177 4.8788,0.01 m 18.0155,54.9363 -0.09,8.7878 -4.6888,-5.0787 -6.0585,-7.7381 7.0882,0.3699 3.7491,3.6591 m 34.7813,9.2177 4.8588,11.3672 -6.9283,-2.6994 0.9098,3.4192 3.2992,6.2884 -3.4692,2.2794 -1.7795,-7.1682 -2.5894,-0.5298 -2.6093,-6.1585 5.0187,0.8098 -0.9697,-3.859 -6.8283,-7.7681 7.928,0.2299 3.1592,3.7891 m -29.0528,2.7593 5.6186,3.1492 5.2287,-0.01 0.7499,4.249 -2.9093,4.3289 -4.6189,3.0592 -1.2397,-4.7388 -0.4998,-5.1887 -2.3295,-4.8488 m -22.6643,26.2535 -9.4377,9.6876 2.9293,-7.1483 4.8888,-6.2984 3.6591,-7.0582 2.2894,-10.1175 3.1392,8.3079 -4.3789,5.6086 -3.0892,7.0183 m 43.3592,-9.8176 -2.3194,3.3492 -1.3997,6.4484 -2.0695,3.0192 -6.3284,-7.0582 1.1997,-2.7293 1.5196,-2.8593 -0.3599,-6.3185 4.4189,-0.5998 0.05,6.8583 4.079,-9.8376 1.2097,9.7276 m -1522.8007,1.7196 -6.9883,1.1197 -1.3897,-0.9198 2.6594,-2.7993 0.2399,-4.029 4.8588,-1.3296 1.6896,0.3599 -1.0697,7.5981 m 1174.9473,39.99 -7.0382,2.3394 -4.5789,-8.1379 -2.8093,-14.7064 1.9095,-16.5758 6.3685,5.6785 4.6388,7.1883 5.0687,10.6373 -0.3199,10.6573 -3.2392,2.9193 m 371.0076,-22.6843 1.9095,6.7883 1.3097,5.7386 -1.5996,9.3676 -4.3889,-10.4374 -3.1692,5.1887 3.5791,7.5481 -1.8495,4.7988 -10.4174,-5.9485 -3.2392,-7.4081 1.8595,-4.8588 -5.9285,-4.8388 -1.9895,4.2389 -3.949,-0.3899 -5.3587,5.7086 -1.7596,-2.9992 2.0195,-8.6179 4.7588,-2.8793 3.8891,-3.849 3.6591,4.6288 5.8385,-2.7993 0.5899,-4.5588 5.7785,-0.27 -1.9095,-7.898 7.5781,4.8488 1.5896,5.1387 1.1997,3.7591 m -64.014,67.4632 9.5576,9.4976 -9.8276,1.2097 -2.7193,6.9983 0.2999,9.2976 -8.1379,7.0183 -0.5799,10.2075 -4.109,15.686 -0.9797,-3.649 -9.7476,4.6088 -2.8693,-6.2584 -5.8885,-0.5799 -3.959,-3.2892 -10.0875,3.6891 -2.7593,-4.9588 -5.4687,0.5599 -6.7883,-1.1797 -0.7498,-13.7566 -4.079,-2.8593 -3.869,-8.7778 -1.1497,-8.9677 0.8298,-9.5077 4.7488,-6.8183 6.1984,3.5091 6.3685,-1.9095 1.3396,-8.6878 3.4592,-1.9295 9.8475,-2.2295 5.4686,-8.108 3.5991,-6.4783 2.9693,-3.8391 6.5484,-5.6086 5.6586,-7.1182 3.2392,-7.998 3.3491,-0.04 4.8788,5.1787 0.8698,4.4489 5.7586,2.8593 7.2282,3.0792 -0.21,4.009 -5.5186,0.5099 1.9095,5.0087 -5.8385,3.4892 -4.119,9.2577 6.5983,9.7075 -1.2696,4.7189 m -102.8044,78.7604 -9.1977,0.2199 -6.2385,-8.5679 -10.0475,-8.3679 -3.1792,-6.2184 -5.8685,-8.348 -3.8491,-7.688 -6.0185,-14.3665 -7.2782,-8.5478 -2.5193,-8.8178 -3.2392,-8.008 -7.7081,-6.4684 -4.7188,-8.7679 -6.5584,-5.7485 -9.3877,-11.2872 -1.1297,-5.2187 5.3787,0.4199 12.9967,1.9695 8.048,10.0275 6.8383,6.9483 4.7988,4.2689 8.318,11.0173 8.4579,0.1699 7.1682,7.0183 4.9487,8.5978 6.3585,4.6889 -3.3792,8.3779 4.7188,3.5591 2.9893,0.2599 1.2397,7.1582 2.7093,5.7286 6.0685,0.8998 3.7591,6.4984 -2.8493,12.7468 -1.6296,15.8461 m 192.9119,-71.6222 -0.3099,8.9678 -4.2989,-1.0098 -1.2597,6.2485 3.3791,5.4086 -2.3494,1.2397 -3.2892,-6.5084 -2.5593,-13.1067 1.4396,-8.198 2.6194,-3.739 0.7998,5.6086 4.9387,0.8997 0.8898,4.189 m -28.7428,-2.9493 -6.4984,10.1775 -6.2385,1.9695 -8.018,-2.0095 -13.8565,0.5199 -7.2582,1.4696 -1.1997,7.7681 7.2782,9.1277 4.5888,-4.6488 15.5662,-3.4892 -0.7598,4.7188 -3.5991,-1.4896 -3.7491,6.0185 -7.4382,3.969 7.2382,13.1468 -1.7395,3.5191 6.5583,11.837 -0.6998,6.7284 -4.7388,3.0092 -2.8893,-3.5991 4.7788,-8.3879 -8.4979,3.959 -1.8095,-2.8293 1.3996,-3.959 -5.5586,-6.0085 1.1897,-9.9975 -5.6985,3.1192 -0.07,11.957 -0.9598,14.6564 -5.4086,1.4896 -3.2592,-3.0092 3.2192,-9.4277 -0.5699,-9.8975 -3.4791,-0.07 -2.1895,-7.0283 3.7391,-6.7183 1.4496,-8.138 4.3389,-15.4661 1.7196,-4.239 6.9383,-7.6181 6.5584,3.0293 10.5073,1.4296 9.5577,-0.4299 8.038,-7.4581 1.5196,2.2994 m 74.1015,26.3835 1.6596,16.5858 8.208,6.1385 7.5881,-10.8773 9.7975,-6.1885 7.3882,-0.01 6.9683,3.5792 5.9985,3.669 8.8178,1.9596 13.9665,7.0682 14.8963,5.8685 5.2487,5.2487 4.089,5.1487 0.5598,6.0385 12.9968,6.3285 1.2397,5.4286 -7.7881,1.0997 0.7498,6.8183 6.2085,6.7084 3.2592,10.8373 4.7888,-0.3399 -1.2897,4.5188 5.9885,1.7396 -2.9093,1.9195 7.7581,4.2889 -1.6296,2.9493 -5.6186,0.7098 -1.3897,-2.6393 -6.7983,-1.1497 -7.968,-1.5296 -4.9587,-6.5084 -3.5192,-5.6186 -2.5893,-8.9378 -9.9975,-4.4689 -7.5082,2.9093 -5.6486,3.3792 -0.3699,7.5381 -7.1882,3.5091 -4.2789,-1.7096 -8.4479,-0.4299 -5.7786,-8.3779 -8.038,-2.0595 -2.5393,2.9093 -10.5274,0.3199 4.9188,-8.3179 5.6586,-2.8393 -0.5699,-11.1272 -2.9193,-8.5979 -15.1862,-8.6778 -6.7683,-0.8598 -11.6871,-9.4676 -2.8393,4.9787 -3.2592,0.9098 -1.5896,-3.7591 0.2899,-4.4589 -6.0384,-5.0387 9.1577,-3.6891 5.9185,0.2 -0.5699,-2.7294 -12.1669,-0.02 -3.0593,-6.1084 -7.3681,-1.8896 -3.3992,-5.0787 11.2472,-2.4794 4.2989,-3.3491 13.2967,4.2189 1.2397,3.8091 m 155.7112,34.3314 -2.8892,2.7293 -0.9398,-6.0485 -1.5696,-3.959 -3.4791,-3.3591 -4.399,-4.369 -5.7985,-3.0192 2.4594,-2.4794 4.3189,2.8793 2.6693,2.2494 3.3092,2.4594 2.9793,4.3089 2.8693,3.2792 0.4698,5.3287 m -187.0834,-14.4164 2.4794,7.848 -6.7083,-4.2289 -6.8883,-0.8598 -4.7288,0.6798 -5.7286,-0.3599 2.3194,-5.6386 10.2875,-0.4299 8.9677,2.9893 m -27.0132,3.7491 -3.3492,3.3991 -5.6086,-1.8795 -1.3297,-4.4089 8.4379,-0.4899 1.8496,3.3792 m 203.3293,20.6948 -4.4489,0.8398 -1.6895,2.8693 -4.8788,2.4894 -4.5889,2.3994 -4.3989,-0.02 -6.3784,-2.9693 -4.3489,-2.8593 1.0797,-3.1692 7.2482,1.4996 4.6388,-0.7998 1.8496,-4.9087 1.2197,-0.26 0.1499,5.4387 4.8288,-0.7798 2.7694,-3.5092 5.0487,-3.6491 -0.2899,-6.0385 4.9887,-0.1999 1.5096,1.6896 -0.7698,5.6786 -3.5391,6.2584 m 30.3125,13.7366 -2.4894,1.0197 -2.9593,-3.929 -2.6693,-6.4984 -0.7698,-7.808 1.2697,-0.9898 0.5198,3.0493 2.2095,2.3294 3.1092,6.4884 3.3892,3.4691 -1.6096,2.8693 m -174.3466,-6.1985 -5.1987,6.9683 0.2199,-7.7081 1.9196,-3.6791 2.1394,-3.4591 1.5396,2.9992 -0.6198,4.8788 m -216.916,5.7686 15.7461,1.0197 2.3094,-4.2189 14.7963,4.9188 2.1795,6.6283 12.157,1.8595 9.2777,6.0785 -10.0076,3.8891 -8.4778,-4.109 -7.5182,0.2799 -8.4579,-0.7598 -7.4781,-1.8395 -9.0577,-3.8991 -5.9386,-1.0197 -3.6091,1.2797 -14.5563,-4.209 -0.9298,-4.3989 -7.4881,-0.7498 6.6883,-9.7776 9.9975,0.5999 6.2884,3.999 3.3492,0.7798 0.7298,3.6491 m 404.0694,5.8285 -1.7496,0.5799 -3.2092,-2.3294 -2.6993,-4.199 0.6998,-1.7096 4.239,4.319 2.7193,3.3391 m 17.3956,10.1175 -0.08,2.0495 -5.5886,-4.3289 -3.8191,-3.6791 -2.4794,-3.3991 1.4197,-1.0398 3.3591,2.4494 5.8886,4.6988 1.2996,3.2492 m -305.0939,-2.4894 -2.0994,5.6786 -12.8868,2.8993 -10.7673,-1.2597 0.5598,-3.7291 6.8883,-2.1294 4.6988,3.0692 5.6186,-0.7798 7.988,-3.7491 m -41.3597,0.02 2.5794,2.7194 5.2287,-0.8298 1.3796,4.3389 -9.8775,2.0595 -5.9385,1.3696 -4.4189,-0.08 3.7591,-5.8885 4.5388,-0.08 2.7493,-3.6091 m 50.3975,20.8748 -7.4881,2.2395 -0.7499,-1.2197 1.3997,-3.4692 4.6788,-6.2284 8.8678,-4.059 1.3797,-2.4094 7.4781,-2.2894 5.8286,-0.3499 2.7893,-1.2797 2.9192,1.2697 -3.4991,2.7693 -9.3777,4.4689 -7.4281,2.9292 -6.7983,7.6281 m 308.1032,-5.5086 -1.6895,1.8795 -4.069,-8.8478 -0.4299,-6.1084 h 2.8093 l 1.2097,8.1779 2.1694,4.8988 m -7.4981,2.7793 -3.2592,0.23 -4.8088,-1.0298 -1.3496,-1.5796 1.4596,-4.049 5.0687,1.6096 2.1895,2.1395 0.6998,2.6793 m -331.4374,3.7391 -3.4992,0.1999 -9.6376,-7.1482 8.038,-2.0095 3.7891,3.1092 2.3194,3.0993 -1.0097,2.7493 m 340.3052,2.4794 1.3697,3.5091 -5.7286,-0.07 -1.4896,-6.2684 4.2889,2.4594 1.5596,0.3699 m -161.6897,33.3717 0.4399,7.958 6.4584,-3.8191 1.3196,4.289 2.5894,3.959 -2.3694,4.4789 -1.3697,8.6678 -0.6598,5.0387 1.5696,1.2397 -1.2097,8.6079 -2.9193,5.2187 -0.2999,6.8183 6.3784,5.2487 3.4791,4.7588 3.3192,4.3589 -2.2094,2.4294 1.4796,6.2684 -2.4694,10.7874 4.3189,-2.1895 0.9198,4.3189 2.7593,-1.5296 -4.4189,10.5374 2.0995,6.0885 1.4296,3.779 1.2697,8.008 -2.7993,7.9281 -3.4391,5.6086 -4.5789,6.0784 -2.0395,8.318 -6.5983,8.6478 -4.6189,4.5089 -8.5479,8.6678 -4.1189,5.5587 -6.9483,6.9282 -10.4174,8.7578 -9.4377,4.7189 -8.9777,7.4281 -6.5384,4.7188 -9.4176,8.218 -7.0783,4.7288 -8.3379,7.0883 -7.0382,6.4983 -2.4694,2.9693 -7.2682,3.2692 -8.3679,0.3399 -10.3275,3.839 -6.8083,3.6291 -8.2379,4.009 -1.8696,-4.1289 -2.7893,-1.6496 5.7486,-4.8788 -5.5986,1.7696 -12.7068,6.7683 -3.7491,-2.5294 -2.6593,-1.4796 -3.4592,-0.6699 -4.4289,-2.7093 0.5899,-5.7885 4.9787,-7.1483 2.4294,-4.7788 -0.3299,-3.839 -6.0785,-1.1397 6.1985,-4.6089 3.929,-7.0682 -8.8978,6.5883 -7.948,1.7496 8.088,-5.2687 5.4786,-5.4986 6.5184,-4.6789 4.8188,-7.0982 -12.2769,8.168 -7.1683,3.2692 -8.7978,7.5781 -2.6493,-3.9191 4.149,-5.0587 0.5998,-6.9483 -1.2797,-3.5891 3.0193,-2.2194 -5.4487,-5.8286 -5.0787,-0.2799 -3.989,-4.6988 -14.1065,0.9197 -12.077,3.4492 -10.7173,3.2192 -6.7183,-0.6399 -11.2772,4.9288 -7.978,2.2195 -4.8788,5.0287 -5.4487,3.879 -6.4484,0.24 -5.2487,0.8498 -5.3386,-1.7496 -6.0485,1.0498 -5.3787,0.4398 -7.888,5.0888 -1.8596,-0.4299 -5.5486,2.6893 -5.6386,3.0293 -5.0987,-0.3799 h -4.9188 l -3.6991,-6.0885 -2.7693,-1.8096 3.7291,-5.4786 4.5289,-1.2997 2.6593,-2.1794 1.9295,-3.4492 5.0988,-6.6883 2.6393,-5.7086 1.7796,-9.7776 1.9195,-5.5386 3.4291,-5.5386 0.4099,-6.3384 1.3397,-2.8693 -1.3597,-3.899 2.9593,-7.6681 -0.5799,-7.7781 0.9398,-4.199 1.3697,4.259 1.7195,-9.1377 2.5194,2.8593 0.4799,3.809 2.2794,-5.0387 -0.2599,-7.7781 0.6498,-3.1092 -0.4998,-2.9593 3.3491,-5.7386 2.6594,-2.4394 3.1692,-4.9687 1.5396,-5.8086 6.1385,-7.1782 -2.4294,7.5881 6.0984,-6.8483 7.7681,-3.3391 5.5386,-4.259 7.4982,-3.6691 3.919,-0.7798 1.7296,1.2297 7.708,-3.729 5.2687,-1.1098 2.0395,-2.1894 2.4694,-0.9198 4.3289,0.2399 9.5177,-2.9392 6.0085,-4.4489 3.989,-5.3687 6.5183,-5.1087 1.7396,-4.009 2.0395,-5.4786 8.4179,-8.5779 0.5999,8.7078 4.1089,-2.0095 -1.3396,-4.7688 4.0789,-4.8988 2.8993,2.1895 3.3492,-7.6881 5.9185,-4.9788 3.1192,-3.999 4.5889,-1.7295 0.9198,-2.8293 3.2492,1.1797 0.8497,-2.5494 3.9891,-1.4496 4.3189,-1.3697 4.7488,4.6589 2.7893,5.9985 5.0687,0.07 4.8988,0.9498 -0.09,-5.5586 6.1985,-8.138 4.3989,-2.6493 -0.5999,-2.5394 5.0588,-5.8085 5.8585,-3.5791 3.8891,1.2096 7.3681,-1.9195 1.1097,-5.1987 -5.2386,-3.3591 4.7188,-1.4797 4.8588,2.5294 3.3691,4.179 6.2785,2.5993 2.5993,-1.0297 4.2989,3.1292 5.5287,-2.9193 2.8593,0.8898 2.4094,-1.9495 2.4793,5.0287 -3.6291,5.4387 -4.2389,4.1089 -2.9093,0.33 -0.1999,4.059 -3.8891,5.0687 -4.4089,4.9788 -0.3099,2.8592 4.6689,5.5986 5.1787,3.2392 2.9892,3.4792 3.7391,5.9785 2.2894,-0.01 3.2892,2.5893 0.06,3.1093 6.4084,3.4191 6.6483,-3.4391 3.6191,-5.4187 3.2792,-4.4689 2.9693,-5.5486 5.1987,-8.048 0.4599,-4.8988 1.5196,-2.9492 0.8298,-5.7986 3.2992,-7.6481 2.1494,-2.0695 -0.3399,-3.3891 3.4092,-5.3987 2.9792,-5.5886 0.9098,-2.9093 3.969,-3.819 1.1197,4.9888 -1.0397,6.3884 1.7296,1.2297 -0.7899,4.2689 1.5397,5.1687 -1.0598,5.7586 -1.3996,3.6791 m -763.5698,-2.1096 -0.03,12.1969 1.5596,4.7389 -1.3997,4.8488 -1.7995,2.9792 -2.0395,-5.9285 -1.8896,2.9992 0.6199,7.4782 -1.2697,4.2789 -2.5394,2.3294 -1.6695,8.5379 -4.8388,11.7171 -6.0485,13.8165 -7.998,18.9153 -5.4387,13.8166 -5.6586,11.4871 -6.8083,2.3395 -7.5881,4.1689 -4.039,-2.5194 -5.5686,-3.5291 -1.2597,-5.2187 0.9498,-8.7878 -1.5096,-7.918 0.3699,-7.1682 2.4993,-7.1882 3.9191,-1.7296 0.4998,-3.3292 4.8988,-7.5881 1.5996,-6.3884 -1.2297,-4.7488 -0.7098,-6.3384 0.4999,-9.2777 3.4891,-5.6386 1.8096,-6.4084 4.0889,-0.3699 4.7589,-2.0695 3.2092,-1.8296 3.5891,-0.1399 5.2787,-5.7586 7.3781,-6.2384 2.9893,-5.0988 -0.6699,-4.3389 3.3492,1.2197 5.2187,-7.0582 0.7398,-6.1085 3.1392,-4.5489 2.4494,4.3689 1.7596,4.319 1.3397,6.7083 m 951.503,13.9765 -1.9195,8.158 -1.6696,-1.2697 -1.9096,0.5498 -0.04,-2.7993 2.8292,-7.758 2.7094,3.1192 m -0.3298,15.4961 -3.2492,1.3297 -0.8298,-4.4289 1.4296,-2.7093 2.6494,5.8085 m 91.7871,3.3792 -6.1785,2.1295 0.7299,-3.7691 4.9987,-2.0695 2.8193,-0.5498 6.1885,-3.1593 -2.2495,4.9388 -6.3084,2.4794 m -10.5974,5.4286 1.3697,2.9093 -3.959,5.2587 -5.6886,1.3797 -3.8191,-1.2397 1.4197,-4.4289 4.7988,-3.4592 3.0692,1.2497 2.8093,-1.6696 m -115.9711,48.318 -4.4189,2.3894 -2.7793,-2.6893 -3.1092,-4.4889 -2.1795,-5.2887 -1.4796,-7.0482 0.6698,-3.3992 3.3692,0.15 2.6893,3.3991 1.6896,3.3992 1.0197,2.7993 3.0493,6.1985 1.4796,4.5788 m -53.8066,136.2361 -5.5886,9.9375 7.2382,-6.4384 0.4499,2.5694 -6.8583,7.1282 2.2994,3.0592 3.989,0.7498 8.218,-3.5791 2.3994,1.0798 -11.4472,8.3179 -8.6678,5.4386 -5.1987,-0.1899 -5.2987,2.8293 -4.2189,3.999 -3.1592,1.7296 -8.8578,4.9887 -11.4572,6.3184 -10.0775,3.6691 1.8996,-2.4194 -1.2097,-1.3196 13.5366,-7.5981 3.949,-5.0988 -3.1292,-3.7191 4.1889,-3.3691 8.9578,-3.2592 9.5176,-7.1982 6.5184,-6.0685 4.019,-6.3184 2.0095,-1.6596 0.7098,-3.899 3.0193,-8.388 3.749,-6.7383 3.4892,-0.7498 -1.3397,5.2887 3.1692,2.4594 -6.8183,8.4479 m -62.7244,44.5189 -3.1792,3.809 9.6376,-3.739 -2.8793,3.899 -4.9287,3.869 -8.058,4.239 -13.3367,6.7383 -8.3779,3.6591 -3.3992,4.3689 -5.3886,0.12 -10.4374,3.4091 -9.9575,5.9086 -16.6259,9.0877 -10.9473,3.989 -6.9782,2.5494 -5.7886,-0.19 -0.05,-2.9393 -6.2884,-0.6298 3.4991,-3.2892 12.7768,-6.6483 20.5149,-8.9078 6.6484,-1.7096 9.4676,-3.4491 12.117,-4.7688 10.2774,-4.7389 11.7971,-6.8283 5.5586,-2.3194 7.4482,-5.1487 10.1574,-4.2689 -3.2792,3.929 m -191.8022,-1.1697 3.4192,3.1892 5.1287,-1.2697 7.3282,-1.7696 3.5391,0.6199 -11.3272,10.9173 -5.8685,3.1592 -8.9778,7.3382 0.4399,-2.4994 -11.957,6.3484 -0.8498,-0.4899 -3.8691,-0.2799 4.5289,-7.7981 5.6586,-6.0385 4.5089,-8.008 4.5688,-4.2389 3.7291,0.8198 m -571.8876,80.1 -10.0874,0.5699 2.8393,-4.6489 3.2391,-3.6091 1.5697,-1.7995 2.3794,2.7693 5.3286,1.0897 -0.8697,1.6596 -4.399,3.969 m -809.4484,12.047 7.1983,3.8691 -0.1,2.9992 -6.7583,2.5694 -4.5689,-2.9993 -2.8593,3.8491 -5.4586,-3.8491 4.2989,-5.1487 6.5384,2.1495 1.7095,-3.4392 m -40.8798,23.4242 11.4072,5.0387 9.7876,2.0895 0.3799,4.169 -5.2487,0.4199 -5.1787,-2.9393 0.5798,3.3592 -3.0292,2.5793 -7.0283,-0.9297 -6.1984,-2.4994 -7.0883,-1.1997 -11.1172,-4.6689 -9.6376,-4.5088 -15.7161,-9.4677 6.3784,1.7796 12.8268,5.6486 10.2575,3.0192 0.1499,-3.859 -2.3494,-5.7986 3.0593,-3.5091 5.0487,0.9998 v 0.01 l 5.1387,3.929 7.5781,6.3384" />
    </g>
  </g>
  <defs
     id="defs1174" />
  <defs
     id="defs253699" />
</svg>
